<svg preserveAspectRatio="none" width="100%" height="100%" overflow="visible" style="display: block;" viewBox="0 0 252 85" fill="none" xmlns="http://www.w3.org/2000/svg">
<g id="arrow button" filter="url(#filter0_d_0_4)">
<rect id="Rectangle 2" x="4" width="244" height="77" rx="38.5" fill="var(--fill-0, #0000FF)"/>
<path id="Arrow 1" d="M47.0224 34.5001C45.0895 34.4877 43.5125 36.0446 43.5001 37.9776C43.4877 39.9105 45.0446 41.4875 46.9776 41.4999L47 38L47.0224 34.5001ZM210.459 41.5227C211.834 40.1647 211.849 37.9487 210.49 36.5731L188.36 14.1569C187.002 12.7813 184.786 12.7671 183.41 14.1252C182.035 15.4832 182.02 17.6993 183.378 19.0748L203.05 39.0003L183.125 58.672C181.749 60.03 181.735 62.2461 183.093 63.6216C184.451 64.9972 186.667 65.0114 188.043 63.6534L210.459 41.5227ZM47 38L46.9776 41.4999L207.977 42.532L208 39.0321L208.022 35.5321L47.0224 34.5001L47 38Z" fill="var(--stroke-0, white)"/>
</g>
<defs>
<filter id="filter0_d_0_4" x="0" y="0" width="252" height="85" filterUnits="userSpaceOnUse" color-interpolation-filters="sRGB">
<feFlood flood-opacity="0" result="BackgroundImageFix"/>
<feColorMatrix in="SourceAlpha" type="matrix" values="0 0 0 0 0 0 0 0 0 0 0 0 0 0 0 0 0 0 127 0" result="hardAlpha"/>
<feOffset dy="4"/>
<feGaussianBlur stdDeviation="2"/>
<feComposite in2="hardAlpha" operator="out"/>
<feColorMatrix type="matrix" values="0 0 0 0 0 0 0 0 0 0 0 0 0 0 0 0 0 0 0.25 0"/>
<feBlend mode="normal" in2="BackgroundImageFix" result="effect1_dropShadow_0_4"/>
<feBlend mode="normal" in="SourceGraphic" in2="effect1_dropShadow_0_4" result="shape"/>
</filter>
</defs>
</svg>
