<svg preserveAspectRatio="none" width="100%" height="100%" overflow="visible" style="display: block;" viewBox="0 0 360 149.392" fill="none" xmlns="http://www.w3.org/2000/svg">
<path id="Vector" d="M285 146.98H290V149.392H285V146.98ZM289.673 149.059V147.301H285.327V149.059H289.673ZM280 149.386H285V146.974H280V149.386ZM284.673 149.059V147.301H280.327V149.059H284.673ZM275 149.386H280V146.974H275V149.386ZM279.673 149.059V147.301H275.327V149.059H279.673ZM95 149.386H100V146.974H95V149.386ZM99.6732 149.059V147.301H95.3268V149.059H99.6732ZM90 149.386H95V146.974H90V149.386ZM94.6732 149.059V147.301H90.3268V149.059H94.6732ZM85 149.386H90V146.974H85V149.386ZM89.6732 149.059V147.301H85.3268V149.059H89.6732ZM295 146.98H300V144.569H295V146.98ZM299.673 146.654V144.895H295.327V146.654H299.673ZM290 146.98H295V144.569H290V146.98ZM294.673 146.654V144.895H290.327V146.654H294.673ZM275 146.98H280V144.569H275V146.98ZM279.673 146.654V144.895H275.327V146.654H279.673ZM270 146.98H275V144.569H270V146.98ZM274.673 146.654V144.895H270.327V146.654H274.673ZM105 146.98H110V144.569H105V146.98ZM109.673 146.654V144.895H105.327V146.654H109.673ZM100 146.98H105V144.569H100V146.98ZM104.673 146.654V144.895H100.327V146.654H104.673ZM85 146.98H90V144.569H85V146.98ZM89.6732 146.654V144.895H85.3268V146.654H89.6732ZM80 146.98H85V144.569H80V146.98ZM84.6732 146.654V144.895H80.3268V146.654H84.6732ZM295 144.569H300V142.157H295V144.569ZM299.673 144.242V142.484H295.327V144.242H299.673ZM290 144.569H295V142.157H290V144.569ZM294.673 144.242V142.484H290.327V144.242H294.673ZM275 144.569H280V142.157H275V144.569ZM279.673 144.242V142.484H275.327V144.242H279.673ZM270 144.569H275V142.157H270V144.569ZM274.673 144.242V142.484H270.327V144.242H274.673ZM265 144.569H270V142.157H265V144.569ZM269.673 144.242V142.484H265.327V144.242H269.673ZM110 144.569H115V142.157H110V144.569ZM114.673 144.242V142.484H110.327V144.242H114.673ZM105 144.569H110V142.157H105V144.569ZM109.673 144.242V142.484H105.327V144.242H109.673ZM85 144.569H90V142.157H85V144.569ZM89.6732 144.242V142.484H85.3268V144.242H89.6732ZM80 144.569H85V142.157H80V144.569ZM84.6732 144.242V142.484H80.3268V144.242H84.6732ZM300 142.157H305V139.745H300V142.157ZM304.673 141.83V140.072H300.327V141.83H304.673ZM295 142.157H300V139.745H295V142.157ZM299.673 141.83V140.072H295.327V141.83H299.673ZM270 142.157H275V139.745H270V142.157ZM274.673 141.83V140.072H270.327V141.83H274.673ZM265 142.157H270V139.745H265V142.157ZM269.673 141.83V140.072H265.327V141.83H269.673ZM110 142.157H115V139.745H110V142.157ZM114.673 141.83V140.072H110.327V141.83H114.673ZM105 142.157H110V139.745H105V142.157ZM109.673 141.83V140.072H105.327V141.83H109.673ZM80 142.157H85V139.745H80V142.157ZM84.6732 141.83V140.072H80.3268V141.83H84.6732ZM75 142.157H80V139.745H75V142.157ZM79.6732 141.83V140.072H75.3268V141.83H79.6732ZM300 139.752H305V137.34H300V139.752ZM304.673 139.425V137.667H300.327V139.425H304.673ZM295 139.752H300V137.34H295V139.752ZM299.673 139.425V137.667H295.327V139.425H299.673ZM270 139.752H275V137.34H270V139.752ZM274.673 139.425V137.667H270.327V139.425H274.673ZM265 139.752H270V137.34H265V139.752ZM269.673 139.425V137.667H265.327V139.425H269.673ZM110 139.752H115V137.34H110V139.752ZM114.673 139.425V137.667H110.327V139.425H114.673ZM105 139.752H110V137.34H105V139.752ZM109.673 139.425V137.667H105.327V139.425H109.673ZM80 139.752H85V137.34H80V139.752ZM84.6732 139.425V137.667H80.3268V139.425H84.6732ZM75 139.752H80V137.34H75V139.752ZM79.6732 139.425V137.667H75.3268V139.425H79.6732ZM305 137.34H310V134.928H305V137.34ZM309.673 137.013V135.255H305.327V137.013H309.673ZM300 137.34H305V134.928H300V137.34ZM304.673 137.013V135.255H300.327V137.013H304.673ZM270 137.34H275V134.928H270V137.34ZM274.673 137.013V135.255H270.327V137.013H274.673ZM265 137.34H270V134.928H265V137.34ZM269.673 137.013V135.255H265.327V137.013H269.673ZM115 137.34H120V134.928H115V137.34ZM119.673 137.013V135.255H115.327V137.013H119.673ZM110 137.34H115V134.928H110V137.34ZM114.673 137.013V135.255H110.327V137.013H114.673ZM80 137.34H85V134.928H80V137.34ZM84.6732 137.013V135.255H80.3268V137.013H84.6732ZM75 137.34H80V134.928H75V137.34ZM79.6732 137.013V135.255H75.3268V137.013H79.6732ZM305 134.928H310V132.516H305V134.928ZM309.673 134.601V132.843H305.327V134.601H309.673ZM300 134.928H305V132.516H300V134.928ZM304.673 134.601V132.843H300.327V134.601H304.673ZM270 134.928H275V132.516H270V134.928ZM274.673 134.601V132.843H270.327V134.601H274.673ZM265 134.928H270V132.516H265V134.928ZM269.673 134.601V132.843H265.327V134.601H269.673ZM115 134.928H120V132.516H115V134.928ZM119.673 134.601V132.843H115.327V134.601H119.673ZM110 134.928H115V132.516H110V134.928ZM114.673 134.601V132.843H110.327V134.601H114.673ZM80 134.928H85V132.516H80V134.928ZM84.6732 134.601V132.843H80.3268V134.601H84.6732ZM75 134.928H80V132.516H75V134.928ZM79.6732 134.601V132.843H75.3268V134.601H79.6732ZM310 132.523H315V130.111H310V132.523ZM314.673 132.196V130.438H310.327V132.196H314.673ZM305 132.523H310V130.111H305V132.523ZM309.673 132.196V130.438H305.327V132.196H309.673ZM300 132.523H305V130.111H300V132.523ZM304.673 132.196V130.438H300.327V132.196H304.673ZM270 132.523H275V130.111H270V132.523ZM274.673 132.196V130.438H270.327V132.196H274.673ZM265 132.523H270V130.111H265V132.523ZM269.673 132.196V130.438H265.327V132.196H269.673ZM120 132.523H125V130.111H120V132.523ZM124.673 132.196V130.438H120.327V132.196H124.673ZM115 132.523H120V130.111H115V132.523ZM119.673 132.196V130.438H115.327V132.196H119.673ZM80 132.523H85V130.111H80V132.523ZM84.6732 132.196V130.438H80.3268V132.196H84.6732ZM75 132.523H80V130.111H75V132.523ZM79.6732 132.196V130.438H75.3268V132.196H79.6732ZM310 130.111H315V127.699H310V130.111ZM314.673 129.784V128.026H310.327V129.784H314.673ZM305 130.111H310V127.699H305V130.111ZM309.673 129.784V128.026H305.327V129.784H309.673ZM270 130.111H275V127.699H270V130.111ZM274.673 129.784V128.026H270.327V129.784H274.673ZM265 130.111H270V127.699H265V130.111ZM269.673 129.784V128.026H265.327V129.784H269.673ZM120 130.111H125V127.699H120V130.111ZM124.673 129.784V128.026H120.327V129.784H124.673ZM115 130.111H120V127.699H115V130.111ZM119.673 129.784V128.026H115.327V129.784H119.673ZM80 130.111H85V127.699H80V130.111ZM84.6732 129.784V128.026H80.3268V129.784H84.6732ZM75 130.111H80V127.699H75V130.111ZM79.6732 129.784V128.026H75.3268V129.784H79.6732ZM310 127.699H315V125.288H310V127.699ZM314.673 127.373V125.614H310.327V127.373H314.673ZM305 127.699H310V125.288H305V127.699ZM309.673 127.373V125.614H305.327V127.373H309.673ZM270 127.699H275V125.288H270V127.699ZM274.673 127.373V125.614H270.327V127.373H274.673ZM265 127.699H270V125.288H265V127.699ZM269.673 127.373V125.614H265.327V127.373H269.673ZM120 127.699H125V125.288H120V127.699ZM124.673 127.373V125.614H120.327V127.373H124.673ZM115 127.699H120V125.288H115V127.699ZM119.673 127.373V125.614H115.327V127.373H119.673ZM80 127.699H85V125.288H80V127.699ZM84.6732 127.373V125.614H80.3268V127.373H84.6732ZM75 127.699H80V125.288H75V127.699ZM79.6732 127.373V125.614H75.3268V127.373H79.6732ZM315 125.294H320V122.882H315V125.294ZM319.673 124.967V123.209H315.327V124.967H319.673ZM310 125.294H315V122.882H310V125.294ZM314.673 124.967V123.209H310.327V124.967H314.673ZM305 125.294H310V122.882H305V125.294ZM309.673 124.967V123.209H305.327V124.967H309.673ZM270 125.294H275V122.882H270V125.294ZM274.673 124.967V123.209H270.327V124.967H274.673ZM265 125.294H270V122.882H265V125.294ZM269.673 124.967V123.209H265.327V124.967H269.673ZM125 125.294H130V122.882H125V125.294ZM129.673 124.967V123.209H125.327V124.967H129.673ZM120 125.294H125V122.882H120V125.294ZM124.673 124.967V123.209H120.327V124.967H124.673ZM80 125.294H85V122.882H80V125.294ZM84.6732 124.967V123.209H80.3268V124.967H84.6732ZM75 125.294H80V122.882H75V125.294ZM79.6732 124.967V123.209H75.3268V124.967H79.6732ZM315 122.882H320V120.471H315V122.882ZM319.673 122.556V120.797H315.327V122.556H319.673ZM310 122.882H315V120.471H310V122.882ZM314.673 122.556V120.797H310.327V122.556H314.673ZM270 122.882H275V120.471H270V122.882ZM274.673 122.556V120.797H270.327V122.556H274.673ZM265 122.882H270V120.471H265V122.882ZM269.673 122.556V120.797H265.327V122.556H269.673ZM125 122.882H130V120.471H125V122.882ZM129.673 122.556V120.797H125.327V122.556H129.673ZM120 122.882H125V120.471H120V122.882ZM124.673 122.556V120.797H120.327V122.556H124.673ZM80 122.882H85V120.471H80V122.882ZM84.6732 122.556V120.797H80.3268V122.556H84.6732ZM75 122.882H80V120.471H75V122.882ZM79.6732 122.556V120.797H75.3268V122.556H79.6732ZM315 120.471H320V118.059H315V120.471ZM319.673 120.144V118.386H315.327V120.144H319.673ZM310 120.471H315V118.059H310V120.471ZM314.673 120.144V118.386H310.327V120.144H314.673ZM270 120.471H275V118.059H270V120.471ZM274.673 120.144V118.386H270.327V120.144H274.673ZM265 120.471H270V118.059H265V120.471ZM269.673 120.144V118.386H265.327V120.144H269.673ZM125 120.471H130V118.059H125V120.471ZM129.673 120.144V118.386H125.327V120.144H129.673ZM120 120.471H125V118.059H120V120.471ZM124.673 120.144V118.386H120.327V120.144H124.673ZM80 120.471H85V118.059H80V120.471ZM84.6732 120.144V118.386H80.3268V120.144H84.6732ZM75 120.471H80V118.059H75V120.471ZM79.6732 120.144V118.386H75.3268V120.144H79.6732ZM315 118.065H320V115.654H315V118.065ZM319.673 117.739V115.98H315.327V117.739H319.673ZM310 118.065H315V115.654H310V118.065ZM314.673 117.739V115.98H310.327V117.739H314.673ZM275 118.065H280V115.654H275V118.065ZM279.673 117.739V115.98H275.327V117.739H279.673ZM270 118.065H275V115.654H270V118.065ZM274.673 117.739V115.98H270.327V117.739H274.673ZM265 118.065H270V115.654H265V118.065ZM269.673 117.739V115.98H265.327V117.739H269.673ZM125 118.065H130V115.654H125V118.065ZM129.673 117.739V115.98H125.327V117.739H129.673ZM120 118.065H125V115.654H120V118.065ZM124.673 117.739V115.98H120.327V117.739H124.673ZM85 118.065H90V115.654H85V118.065ZM89.6732 117.739V115.98H85.3268V117.739H89.6732ZM80 118.065H85V115.654H80V118.065ZM84.6732 117.739V115.98H80.3268V117.739H84.6732ZM320 115.654H325V113.242H320V115.654ZM324.673 115.327V113.569H320.327V115.327H324.673ZM315 115.654H320V113.242H315V115.654ZM319.673 115.327V113.569H315.327V115.327H319.673ZM310 115.654H315V113.242H310V115.654ZM314.673 115.327V113.569H310.327V115.327H314.673ZM280 115.654H285V113.242H280V115.654ZM284.673 115.327V113.569H280.327V115.327H284.673ZM275 115.654H280V113.242H275V115.654ZM279.673 115.327V113.569H275.327V115.327H279.673ZM130 115.654H135V113.242H130V115.654ZM134.673 115.327V113.569H130.327V115.327H134.673ZM125 115.654H130V113.242H125V115.654ZM129.673 115.327V113.569H125.327V115.327H129.673ZM90 115.654H95V113.242H90V115.654ZM94.6732 115.327V113.569H90.3268V115.327H94.6732ZM85 115.654H90V113.242H85V115.654ZM89.6732 115.327V113.569H85.3268V115.327H89.6732ZM320 113.248H325V110.837H320V113.248ZM324.673 112.922V111.163H320.327V112.922H324.673ZM315 113.248H320V110.837H315V113.248ZM319.673 112.922V111.163H315.327V112.922H319.673ZM130 113.248H135V110.837H130V113.248ZM134.673 112.922V111.163H130.327V112.922H134.673ZM125 113.248H130V110.837H125V113.248ZM129.673 112.922V111.163H125.327V112.922H129.673ZM320 110.837H325V108.425H320V110.837ZM324.673 110.51V108.752H320.327V110.51H324.673ZM315 110.837H320V108.425H315V110.837ZM319.673 110.51V108.752H315.327V110.51H319.673ZM130 110.837H135V108.425H130V110.837ZM134.673 110.51V108.752H130.327V110.51H134.673ZM125 110.837H130V108.425H125V110.837ZM129.673 110.51V108.752H125.327V110.51H129.673ZM325 108.425H330V106.013H325V108.425ZM329.673 108.098V106.34H325.327V108.098H329.673ZM320 108.425H325V106.013H320V108.425ZM324.673 108.098V106.34H320.327V108.098H324.673ZM315 108.425H320V106.013H315V108.425ZM319.673 108.098V106.34H315.327V108.098H319.673ZM300 108.425H305V106.013H300V108.425ZM304.673 108.098V106.34H300.327V108.098H304.673ZM235 108.425H240V106.013H235V108.425ZM239.673 108.098V106.34H235.327V108.098H239.673ZM230 108.425H235V106.013H230V108.425ZM234.673 108.098V106.34H230.327V108.098H234.673ZM200 108.425H205V106.013H200V108.425ZM204.673 108.098V106.34H200.327V108.098H204.673ZM170 108.425H175V106.013H170V108.425ZM174.673 108.098V106.34H170.327V108.098H174.673ZM165 108.425H170V106.013H165V108.425ZM169.673 108.098V106.34H165.327V108.098H169.673ZM160 108.425H165V106.013H160V108.425ZM164.673 108.098V106.34H160.327V108.098H164.673ZM135 108.425H140V106.013H135V108.425ZM139.673 108.098V106.34H135.327V108.098H139.673ZM130 108.425H135V106.013H130V108.425ZM134.673 108.098V106.34H130.327V108.098H134.673ZM125 108.425H130V106.013H125V108.425ZM129.673 108.098V106.34H125.327V108.098H129.673ZM330 106.02H335V103.608H330V106.02ZM334.673 105.693V103.935H330.327V105.693H334.673ZM325 106.02H330V103.608H325V106.02ZM329.673 105.693V103.935H325.327V105.693H329.673ZM320 106.02H325V103.608H320V106.02ZM324.673 105.693V103.935H320.327V105.693H324.673ZM315 106.02H320V103.608H315V106.02ZM319.673 105.693V103.935H315.327V105.693H319.673ZM305 106.02H310V103.608H305V106.02ZM309.673 105.693V103.935H305.327V105.693H309.673ZM300 106.02H305V103.608H300V106.02ZM304.673 105.693V103.935H300.327V105.693H304.673ZM260 106.02H265V103.608H260V106.02ZM264.673 105.693V103.935H260.327V105.693H264.673ZM255 106.02H260V103.608H255V106.02ZM259.673 105.693V103.935H255.327V105.693H259.673ZM240 106.02H245V103.608H240V106.02ZM244.673 105.693V103.935H240.327V105.693H244.673ZM235 106.02H240V103.608H235V106.02ZM239.673 105.693V103.935H235.327V105.693H239.673ZM230 106.02H235V103.608H230V106.02ZM234.673 105.693V103.935H230.327V105.693H234.673ZM225 106.02H230V103.608H225V106.02ZM229.673 105.693V103.935H225.327V105.693H229.673ZM205 106.02H210V103.608H205V106.02ZM209.673 105.693V103.935H205.327V105.693H209.673ZM200 106.02H205V103.608H200V106.02ZM204.673 105.693V103.935H200.327V105.693H204.673ZM195 106.02H200V103.608H195V106.02ZM199.673 105.693V103.935H195.327V105.693H199.673ZM175 106.02H180V103.608H175V106.02ZM179.673 105.693V103.935H175.327V105.693H179.673ZM170 106.02H175V103.608H170V106.02ZM174.673 105.693V103.935H170.327V105.693H174.673ZM165 106.02H170V103.608H165V106.02ZM169.673 105.693V103.935H165.327V105.693H169.673ZM160 106.02H165V103.608H160V106.02ZM164.673 105.693V103.935H160.327V105.693H164.673ZM155 106.02H160V103.608H155V106.02ZM159.673 105.693V103.935H155.327V105.693H159.673ZM140 106.02H145V103.608H140V106.02ZM144.673 105.693V103.935H140.327V105.693H144.673ZM135 106.02H140V103.608H135V106.02ZM139.673 105.693V103.935H135.327V105.693H139.673ZM130 106.02H135V103.608H130V106.02ZM134.673 105.693V103.935H130.327V105.693H134.673ZM125 106.02H130V103.608H125V106.02ZM129.673 105.693V103.935H125.327V105.693H129.673ZM115 106.02H120V103.608H115V106.02ZM119.673 105.693V103.935H115.327V105.693H119.673ZM110 106.02H115V103.608H110V106.02ZM114.673 105.693V103.935H110.327V105.693H114.673ZM80 106.02H85V103.608H80V106.02ZM84.6732 105.693V103.935H80.3268V105.693H84.6732ZM75 106.02H80V103.608H75V106.02ZM79.6732 105.693V103.935H75.3268V105.693H79.6732ZM70 106.02H75V103.608H70V106.02ZM74.6732 105.693V103.935H70.3268V105.693H74.6732ZM65 106.02H70V103.608H65V106.02ZM69.6732 105.693V103.935H65.3268V105.693H69.6732ZM50 106.02H55V103.608H50V106.02ZM54.6732 105.693V103.935H50.3268V105.693H54.6732ZM20 106.02H25V103.608H20V106.02ZM24.6732 105.693V103.935H20.3268V105.693H24.6732ZM15 106.02H20V103.608H15V106.02ZM19.6732 105.693V103.935H15.3268V105.693H19.6732ZM10 106.02H15V103.608H10V106.02ZM14.6732 105.693V103.935H10.3268V105.693H14.6732ZM330 103.608H335V101.196H330V103.608ZM334.673 103.281V101.523H330.327V103.281H334.673ZM325 103.608H330V101.196H325V103.608ZM329.673 103.281V101.523H325.327V103.281H329.673ZM320 103.608H325V101.196H320V103.608ZM324.673 103.281V101.523H320.327V103.281H324.673ZM315 103.608H320V101.196H315V103.608ZM319.673 103.281V101.523H315.327V103.281H319.673ZM310 103.608H315V101.196H310V103.608ZM314.673 103.281V101.523H310.327V103.281H314.673ZM305 103.608H310V101.196H305V103.608ZM309.673 103.281V101.523H305.327V103.281H309.673ZM300 103.608H305V101.196H300V103.608ZM304.673 103.281V101.523H300.327V103.281H304.673ZM260 103.608H265V101.196H260V103.608ZM264.673 103.281V101.523H260.327V103.281H264.673ZM255 103.608H260V101.196H255V103.608ZM259.673 103.281V101.523H255.327V103.281H259.673ZM245 103.608H250V101.196H245V103.608ZM249.673 103.281V101.523H245.327V103.281H249.673ZM240 103.608H245V101.196H240V103.608ZM244.673 103.281V101.523H240.327V103.281H244.673ZM235 103.608H240V101.196H235V103.608ZM239.673 103.281V101.523H235.327V103.281H239.673ZM230 103.608H235V101.196H230V103.608ZM234.673 103.281V101.523H230.327V103.281H234.673ZM225 103.608H230V101.196H225V103.608ZM229.673 103.281V101.523H225.327V103.281H229.673ZM205 103.608H210V101.196H205V103.608ZM209.673 103.281V101.523H205.327V103.281H209.673ZM200 103.608H205V101.196H200V103.608ZM204.673 103.281V101.523H200.327V103.281H204.673ZM195 103.608H200V101.196H195V103.608ZM199.673 103.281V101.523H195.327V103.281H199.673ZM175 103.608H180V101.196H175V103.608ZM179.673 103.281V101.523H175.327V103.281H179.673ZM170 103.608H175V101.196H170V103.608ZM174.673 103.281V101.523H170.327V103.281H174.673ZM155 103.608H160V101.196H155V103.608ZM159.673 103.281V101.523H155.327V103.281H159.673ZM140 103.608H145V101.196H140V103.608ZM144.673 103.281V101.523H140.327V103.281H144.673ZM135 103.608H140V101.196H135V103.608ZM139.673 103.281V101.523H135.327V103.281H139.673ZM130 103.608H135V101.196H130V103.608ZM134.673 103.281V101.523H130.327V103.281H134.673ZM120 103.608H125V101.196H120V103.608ZM124.673 103.281V101.523H120.327V103.281H124.673ZM115 103.608H120V101.196H115V103.608ZM119.673 103.281V101.523H115.327V103.281H119.673ZM110 103.608H115V101.196H110V103.608ZM114.673 103.281V101.523H110.327V103.281H114.673ZM90 103.608H95V101.196H90V103.608ZM94.6732 103.281V101.523H90.3268V103.281H94.6732ZM85 103.608H90V101.196H85V103.608ZM89.6732 103.281V101.523H85.3268V103.281H89.6732ZM80 103.608H85V101.196H80V103.608ZM84.6732 103.281V101.523H80.3268V103.281H84.6732ZM75 103.608H80V101.196H75V103.608ZM79.6732 103.281V101.523H75.3268V103.281H79.6732ZM70 103.608H75V101.196H70V103.608ZM74.6732 103.281V101.523H70.3268V103.281H74.6732ZM65 103.608H70V101.196H65V103.608ZM69.6732 103.281V101.523H65.3268V103.281H69.6732ZM50 103.608H55V101.196H50V103.608ZM54.6732 103.281V101.523H50.3268V103.281H54.6732ZM20 103.608H25V101.196H20V103.608ZM24.6732 103.281V101.523H20.3268V103.281H24.6732ZM15 103.608H20V101.196H15V103.608ZM19.6732 103.281V101.523H15.3268V103.281H19.6732ZM10 103.608H15V101.196H10V103.608ZM14.6732 103.281V101.523H10.3268V103.281H14.6732ZM5 103.608H10V101.196H5V103.608ZM9.6732 103.281V101.523H5.3268V103.281H9.6732ZM330 101.196H335V98.7843H330V101.196ZM334.673 100.869V99.1111H330.327V100.869H334.673ZM325 101.196H330V98.7843H325V101.196ZM329.673 100.869V99.1111H325.327V100.869H329.673ZM320 101.196H325V98.7843H320V101.196ZM324.673 100.869V99.1111H320.327V100.869H324.673ZM310 101.196H315V98.7843H310V101.196ZM314.673 100.869V99.1111H310.327V100.869H314.673ZM305 101.196H310V98.7843H305V101.196ZM309.673 100.869V99.1111H305.327V100.869H309.673ZM300 101.196H305V98.7843H300V101.196ZM304.673 100.869V99.1111H300.327V100.869H304.673ZM260 101.196H265V98.7843H260V101.196ZM264.673 100.869V99.1111H260.327V100.869H264.673ZM255 101.196H260V98.7843H255V101.196ZM259.673 100.869V99.1111H255.327V100.869H259.673ZM245 101.196H250V98.7843H245V101.196ZM249.673 100.869V99.1111H245.327V100.869H249.673ZM240 101.196H245V98.7843H240V101.196ZM244.673 100.869V99.1111H240.327V100.869H244.673ZM235 101.196H240V98.7843H235V101.196ZM239.673 100.869V99.1111H235.327V100.869H239.673ZM230 101.196H235V98.7843H230V101.196ZM234.673 100.869V99.1111H230.327V100.869H234.673ZM225 101.196H230V98.7843H225V101.196ZM229.673 100.869V99.1111H225.327V100.869H229.673ZM210 101.196H215V98.7843H210V101.196ZM214.673 100.869V99.1111H210.327V100.869H214.673ZM205 101.196H210V98.7843H205V101.196ZM209.673 100.869V99.1111H205.327V100.869H209.673ZM200 101.196H205V98.7843H200V101.196ZM204.673 100.869V99.1111H200.327V100.869H204.673ZM195 101.196H200V98.7843H195V101.196ZM199.673 100.869V99.1111H195.327V100.869H199.673ZM180 101.196H185V98.7843H180V101.196ZM184.673 100.869V99.1111H180.327V100.869H184.673ZM175 101.196H180V98.7843H175V101.196ZM179.673 100.869V99.1111H175.327V100.869H179.673ZM170 101.196H175V98.7843H170V101.196ZM174.673 100.869V99.1111H170.327V100.869H174.673ZM155 101.196H160V98.7843H155V101.196ZM159.673 100.869V99.1111H155.327V100.869H159.673ZM145 101.196H150V98.7843H145V101.196ZM149.673 100.869V99.1111H145.327V100.869H149.673ZM135 101.196H140V98.7843H135V101.196ZM139.673 100.869V99.1111H135.327V100.869H139.673ZM130 101.196H135V98.7843H130V101.196ZM134.673 100.869V99.1111H130.327V100.869H134.673ZM120 101.196H125V98.7843H120V101.196ZM124.673 100.869V99.1111H120.327V100.869H124.673ZM115 101.196H120V98.7843H115V101.196ZM119.673 100.869V99.1111H115.327V100.869H119.673ZM110 101.196H115V98.7843H110V101.196ZM114.673 100.869V99.1111H110.327V100.869H114.673ZM95 101.196H100V98.7843H95V101.196ZM99.6732 100.869V99.1111H95.3268V100.869H99.6732ZM90 101.196H95V98.7843H90V101.196ZM94.6732 100.869V99.1111H90.3268V100.869H94.6732ZM85 101.196H90V98.7843H85V101.196ZM89.6732 100.869V99.1111H85.3268V100.869H89.6732ZM75 101.196H80V98.7843H75V101.196ZM79.6732 100.869V99.1111H75.3268V100.869H79.6732ZM70 101.196H75V98.7843H70V101.196ZM74.6732 100.869V99.1111H70.3268V100.869H74.6732ZM65 101.196H70V98.7843H65V101.196ZM69.6732 100.869V99.1111H65.3268V100.869H69.6732ZM55 101.196H60V98.7843H55V101.196ZM59.6732 100.869V99.1111H55.3268V100.869H59.6732ZM50 101.196H55V98.7843H50V101.196ZM54.6732 100.869V99.1111H50.3268V100.869H54.6732ZM25 101.196H30V98.7843H25V101.196ZM29.6732 100.869V99.1111H25.3268V100.869H29.6732ZM20 101.196H25V98.7843H20V101.196ZM24.6732 100.869V99.1111H20.3268V100.869H24.6732ZM5 101.196H10V98.7843H5V101.196ZM9.6732 100.869V99.1111H5.3268V100.869H9.6732ZM335 98.7908H340V96.3791H335V98.7908ZM339.673 98.464V96.7059H335.327V98.464H339.673ZM325 98.7908H330V96.3791H325V98.7908ZM329.673 98.464V96.7059H325.327V98.464H329.673ZM320 98.7908H325V96.3791H320V98.7908ZM324.673 98.464V96.7059H320.327V98.464H324.673ZM315 98.7908H320V96.3791H315V98.7908ZM319.673 98.464V96.7059H315.327V98.464H319.673ZM300 98.7908H305V96.3791H300V98.7908ZM304.673 98.464V96.7059H300.327V98.464H304.673ZM295 98.7908H300V96.3791H295V98.7908ZM299.673 98.464V96.7059H295.327V98.464H299.673ZM265 98.7908H270V96.3791H265V98.7908ZM269.673 98.464V96.7059H265.327V98.464H269.673ZM260 98.7908H265V96.3791H260V98.7908ZM264.673 98.464V96.7059H260.327V98.464H264.673ZM255 98.7908H260V96.3791H255V98.7908ZM259.673 98.464V96.7059H255.327V98.464H259.673ZM250 98.7908H255V96.3791H250V98.7908ZM254.673 98.464V96.7059H250.327V98.464H254.673ZM230 98.7908H235V96.3791H230V98.7908ZM234.673 98.464V96.7059H230.327V98.464H234.673ZM225 98.7908H230V96.3791H225V98.7908ZM229.673 98.464V96.7059H225.327V98.464H229.673ZM210 98.7908H215V96.3791H210V98.7908ZM214.673 98.464V96.7059H210.327V98.464H214.673ZM200 98.7908H205V96.3791H200V98.7908ZM204.673 98.464V96.7059H200.327V98.464H204.673ZM195 98.7908H200V96.3791H195V98.7908ZM199.673 98.464V96.7059H195.327V98.464H199.673ZM190 98.7908H195V96.3791H190V98.7908ZM194.673 98.464V96.7059H190.327V98.464H194.673ZM185 98.7908H190V96.3791H185V98.7908ZM189.673 98.464V96.7059H185.327V98.464H189.673ZM175 98.7908H180V96.3791H175V98.7908ZM179.673 98.464V96.7059H175.327V98.464H179.673ZM170 98.7908H175V96.3791H170V98.7908ZM174.673 98.464V96.7059H170.327V98.464H174.673ZM155 98.7908H160V96.3791H155V98.7908ZM159.673 98.464V96.7059H155.327V98.464H159.673ZM145 98.7908H150V96.3791H145V98.7908ZM149.673 98.464V96.7059H145.327V98.464H149.673ZM135 98.7908H140V96.3791H135V98.7908ZM139.673 98.464V96.7059H135.327V98.464H139.673ZM130 98.7908H135V96.3791H130V98.7908ZM134.673 98.464V96.7059H130.327V98.464H134.673ZM125 98.7908H130V96.3791H125V98.7908ZM129.673 98.464V96.7059H125.327V98.464H129.673ZM110 98.7908H115V96.3791H110V98.7908ZM114.673 98.464V96.7059H110.327V98.464H114.673ZM100 98.7908H105V96.3791H100V98.7908ZM104.673 98.464V96.7059H100.327V98.464H104.673ZM80 98.7908H85V96.3791H80V98.7908ZM84.6732 98.464V96.7059H80.3268V98.464H84.6732ZM55 98.7908H60V96.3791H55V98.7908ZM59.6732 98.464V96.7059H55.3268V98.464H59.6732ZM30 98.7908H35V96.3791H30V98.7908ZM34.6732 98.464V96.7059H30.3268V98.464H34.6732ZM5 98.7908H10V96.3791H5V98.7908ZM9.6732 98.464V96.7059H5.3268V98.464H9.6732ZM0 98.7908H5V96.3791H0V98.7908ZM4.6732 98.464V96.7059H0.326797V98.464H4.6732ZM325 96.3791H330V93.9673H325V96.3791ZM329.673 96.0523V94.2941H325.327V96.0523H329.673ZM320 96.3791H325V93.9673H320V96.3791ZM324.673 96.0523V94.2941H320.327V96.0523H324.673ZM315 96.3791H320V93.9673H315V96.3791ZM319.673 96.0523V94.2941H315.327V96.0523H319.673ZM300 96.3791H305V93.9673H300V96.3791ZM304.673 96.0523V94.2941H300.327V96.0523H304.673ZM295 96.3791H300V93.9673H295V96.3791ZM299.673 96.0523V94.2941H295.327V96.0523H299.673ZM265 96.3791H270V93.9673H265V96.3791ZM269.673 96.0523V94.2941H265.327V96.0523H269.673ZM260 96.3791H265V93.9673H260V96.3791ZM264.673 96.0523V94.2941H260.327V96.0523H264.673ZM255 96.3791H260V93.9673H255V96.3791ZM259.673 96.0523V94.2941H255.327V96.0523H259.673ZM250 96.3791H255V93.9673H250V96.3791ZM254.673 96.0523V94.2941H250.327V96.0523H254.673ZM230 96.3791H235V93.9673H230V96.3791ZM234.673 96.0523V94.2941H230.327V96.0523H234.673ZM225 96.3791H230V93.9673H225V96.3791ZM229.673 96.0523V94.2941H225.327V96.0523H229.673ZM215 96.3791H220V93.9673H215V96.3791ZM219.673 96.0523V94.2941H215.327V96.0523H219.673ZM200 96.3791H205V93.9673H200V96.3791ZM204.673 96.0523V94.2941H200.327V96.0523H204.673ZM195 96.3791H200V93.9673H195V96.3791ZM199.673 96.0523V94.2941H195.327V96.0523H199.673ZM190 96.3791H195V93.9673H190V96.3791ZM194.673 96.0523V94.2941H190.327V96.0523H194.673ZM185 96.3791H190V93.9673H185V96.3791ZM189.673 96.0523V94.2941H185.327V96.0523H189.673ZM175 96.3791H180V93.9673H175V96.3791ZM179.673 96.0523V94.2941H175.327V96.0523H179.673ZM155 96.3791H160V93.9673H155V96.3791ZM159.673 96.0523V94.2941H155.327V96.0523H159.673ZM150 96.3791H155V93.9673H150V96.3791ZM154.673 96.0523V94.2941H150.327V96.0523H154.673ZM135 96.3791H140V93.9673H135V96.3791ZM139.673 96.0523V94.2941H135.327V96.0523H139.673ZM130 96.3791H135V93.9673H130V96.3791ZM134.673 96.0523V94.2941H130.327V96.0523H134.673ZM125 96.3791H130V93.9673H125V96.3791ZM129.673 96.0523V94.2941H125.327V96.0523H129.673ZM115 96.3791H120V93.9673H115V96.3791ZM119.673 96.0523V94.2941H115.327V96.0523H119.673ZM110 96.3791H115V93.9673H110V96.3791ZM114.673 96.0523V94.2941H110.327V96.0523H114.673ZM100 96.3791H105V93.9673H100V96.3791ZM104.673 96.0523V94.2941H100.327V96.0523H104.673ZM85 96.3791H90V93.9673H85V96.3791ZM89.6732 96.0523V94.2941H85.3268V96.0523H89.6732ZM80 96.3791H85V93.9673H80V96.3791ZM84.6732 96.0523V94.2941H80.3268V96.0523H84.6732ZM60 96.3791H65V93.9673H60V96.3791ZM64.6732 96.0523V94.2941H60.3268V96.0523H64.6732ZM55 96.3791H60V93.9673H55V96.3791ZM59.6732 96.0523V94.2941H55.3268V96.0523H59.6732ZM30 96.3791H35V93.9673H30V96.3791ZM34.6732 96.0523V94.2941H30.3268V96.0523H34.6732ZM5 96.3791H10V93.9673H5V96.3791ZM9.6732 96.0523V94.2941H5.3268V96.0523H9.6732ZM0 96.3791H5V93.9673H0V96.3791ZM4.6732 96.0523V94.2941H0.326797V96.0523H4.6732ZM340 93.9673H345V91.5555H340V93.9673ZM344.673 93.6405V91.8824H340.327V93.6405H344.673ZM325 93.9673H330V91.5555H325V93.9673ZM329.673 93.6405V91.8824H325.327V93.6405H329.673ZM320 93.9673H325V91.5555H320V93.9673ZM324.673 93.6405V91.8824H320.327V93.6405H324.673ZM315 93.9673H320V91.5555H315V93.9673ZM319.673 93.6405V91.8824H315.327V93.6405H319.673ZM300 93.9673H305V91.5555H300V93.9673ZM304.673 93.6405V91.8824H300.327V93.6405H304.673ZM295 93.9673H300V91.5555H295V93.9673ZM299.673 93.6405V91.8824H295.327V93.6405H299.673ZM265 93.9673H270V91.5555H265V93.9673ZM269.673 93.6405V91.8824H265.327V93.6405H269.673ZM260 93.9673H265V91.5555H260V93.9673ZM264.673 93.6405V91.8824H260.327V93.6405H264.673ZM255 93.9673H260V91.5555H255V93.9673ZM259.673 93.6405V91.8824H255.327V93.6405H259.673ZM230 93.9673H235V91.5555H230V93.9673ZM234.673 93.6405V91.8824H230.327V93.6405H234.673ZM225 93.9673H230V91.5555H225V93.9673ZM229.673 93.6405V91.8824H225.327V93.6405H229.673ZM215 93.9673H220V91.5555H215V93.9673ZM219.673 93.6405V91.8824H215.327V93.6405H219.673ZM200 93.9673H205V91.5555H200V93.9673ZM204.673 93.6405V91.8824H200.327V93.6405H204.673ZM195 93.9673H200V91.5555H195V93.9673ZM199.673 93.6405V91.8824H195.327V93.6405H199.673ZM190 93.9673H195V91.5555H190V93.9673ZM194.673 93.6405V91.8824H190.327V93.6405H194.673ZM185 93.9673H190V91.5555H185V93.9673ZM189.673 93.6405V91.8824H185.327V93.6405H189.673ZM175 93.9673H180V91.5555H175V93.9673ZM179.673 93.6405V91.8824H175.327V93.6405H179.673ZM155 93.9673H160V91.5555H155V93.9673ZM159.673 93.6405V91.8824H155.327V93.6405H159.673ZM150 93.9673H155V91.5555H150V93.9673ZM154.673 93.6405V91.8824H150.327V93.6405H154.673ZM140 93.9673H145V91.5555H140V93.9673ZM144.673 93.6405V91.8824H140.327V93.6405H144.673ZM135 93.9673H140V91.5555H135V93.9673ZM139.673 93.6405V91.8824H135.327V93.6405H139.673ZM130 93.9673H135V91.5555H130V93.9673ZM134.673 93.6405V91.8824H130.327V93.6405H134.673ZM125 93.9673H130V91.5555H125V93.9673ZM129.673 93.6405V91.8824H125.327V93.6405H129.673ZM115 93.9673H120V91.5555H115V93.9673ZM119.673 93.6405V91.8824H115.327V93.6405H119.673ZM110 93.9673H115V91.5555H110V93.9673ZM114.673 93.6405V91.8824H110.327V93.6405H114.673ZM105 93.9673H110V91.5555H105V93.9673ZM109.673 93.6405V91.8824H105.327V93.6405H109.673ZM85 93.9673H90V91.5555H85V93.9673ZM89.6732 93.6405V91.8824H85.3268V93.6405H89.6732ZM80 93.9673H85V91.5555H80V93.9673ZM84.6732 93.6405V91.8824H80.3268V93.6405H84.6732ZM60 93.9673H65V91.5555H60V93.9673ZM64.6732 93.6405V91.8824H60.3268V93.6405H64.6732ZM55 93.9673H60V91.5555H55V93.9673ZM59.6732 93.6405V91.8824H55.3268V93.6405H59.6732ZM30 93.9673H35V91.5555H30V93.9673ZM34.6732 93.6405V91.8824H30.3268V93.6405H34.6732ZM5 93.9673H10V91.5555H5V93.9673ZM9.6732 93.6405V91.8824H5.3268V93.6405H9.6732ZM0 93.9673H5V91.5555H0V93.9673ZM4.6732 93.6405V91.8824H0.326797V93.6405H4.6732ZM330 91.5621H335V89.1503H330V91.5621ZM334.673 91.2353V89.4771H330.327V91.2353H334.673ZM325 91.5621H330V89.1503H325V91.5621ZM329.673 91.2353V89.4771H325.327V91.2353H329.673ZM320 91.5621H325V89.1503H320V91.5621ZM324.673 91.2353V89.4771H320.327V91.2353H324.673ZM305 91.5621H310V89.1503H305V91.5621ZM309.673 91.2353V89.4771H305.327V91.2353H309.673ZM300 91.5621H305V89.1503H300V91.5621ZM304.673 91.2353V89.4771H300.327V91.2353H304.673ZM265 91.5621H270V89.1503H265V91.5621ZM269.673 91.2353V89.4771H265.327V91.2353H269.673ZM260 91.5621H265V89.1503H260V91.5621ZM264.673 91.2353V89.4771H260.327V91.2353H264.673ZM255 91.5621H260V89.1503H255V91.5621ZM259.673 91.2353V89.4771H255.327V91.2353H259.673ZM230 91.5621H235V89.1503H230V91.5621ZM234.673 91.2353V89.4771H230.327V91.2353H234.673ZM225 91.5621H230V89.1503H225V91.5621ZM229.673 91.2353V89.4771H225.327V91.2353H229.673ZM220 91.5621H225V89.1503H220V91.5621ZM224.673 91.2353V89.4771H220.327V91.2353H224.673ZM200 91.5621H205V89.1503H200V91.5621ZM204.673 91.2353V89.4771H200.327V91.2353H204.673ZM195 91.5621H200V89.1503H195V91.5621ZM199.673 91.2353V89.4771H195.327V91.2353H199.673ZM190 91.5621H195V89.1503H190V91.5621ZM194.673 91.2353V89.4771H190.327V91.2353H194.673ZM180 91.5621H185V89.1503H180V91.5621ZM184.673 91.2353V89.4771H180.327V91.2353H184.673ZM175 91.5621H180V89.1503H175V91.5621ZM179.673 91.2353V89.4771H175.327V91.2353H179.673ZM160 91.5621H165V89.1503H160V91.5621ZM164.673 91.2353V89.4771H160.327V91.2353H164.673ZM155 91.5621H160V89.1503H155V91.5621ZM159.673 91.2353V89.4771H155.327V91.2353H159.673ZM150 91.5621H155V89.1503H150V91.5621ZM154.673 91.2353V89.4771H150.327V91.2353H154.673ZM140 91.5621H145V89.1503H140V91.5621ZM144.673 91.2353V89.4771H140.327V91.2353H144.673ZM135 91.5621H140V89.1503H135V91.5621ZM139.673 91.2353V89.4771H135.327V91.2353H139.673ZM130 91.5621H135V89.1503H130V91.5621ZM134.673 91.2353V89.4771H130.327V91.2353H134.673ZM115 91.5621H120V89.1503H115V91.5621ZM119.673 91.2353V89.4771H115.327V91.2353H119.673ZM110 91.5621H115V89.1503H110V91.5621ZM114.673 91.2353V89.4771H110.327V91.2353H114.673ZM105 91.5621H110V89.1503H105V91.5621ZM109.673 91.2353V89.4771H105.327V91.2353H109.673ZM90 91.5621H95V89.1503H90V91.5621ZM94.6732 91.2353V89.4771H90.3268V91.2353H94.6732ZM85 91.5621H90V89.1503H85V91.5621ZM89.6732 91.2353V89.4771H85.3268V91.2353H89.6732ZM65 91.5621H70V89.1503H65V91.5621ZM69.6732 91.2353V89.4771H65.3268V91.2353H69.6732ZM60 91.5621H65V89.1503H60V91.5621ZM64.6732 91.2353V89.4771H60.3268V91.2353H64.6732ZM55 91.5621H60V89.1503H55V91.5621ZM59.6732 91.2353V89.4771H55.3268V91.2353H59.6732ZM35 91.5621H40V89.1503H35V91.5621ZM39.6732 91.2353V89.4771H35.3268V91.2353H39.6732ZM5 91.5621H10V89.1503H5V91.5621ZM9.6732 91.2353V89.4771H5.3268V91.2353H9.6732ZM0 91.5621H5V89.1503H0V91.5621ZM4.6732 91.2353V89.4771H0.326797V91.2353H4.6732ZM345 89.1503H350V86.7386H345V89.1503ZM349.673 88.8235V87.0654H345.327V88.8235H349.673ZM330 89.1503H335V86.7386H330V89.1503ZM334.673 88.8235V87.0654H330.327V88.8235H334.673ZM325 89.1503H330V86.7386H325V89.1503ZM329.673 88.8235V87.0654H325.327V88.8235H329.673ZM320 89.1503H325V86.7386H320V89.1503ZM324.673 88.8235V87.0654H320.327V88.8235H324.673ZM305 89.1503H310V86.7386H305V89.1503ZM309.673 88.8235V87.0654H305.327V88.8235H309.673ZM300 89.1503H305V86.7386H300V89.1503ZM304.673 88.8235V87.0654H300.327V88.8235H304.673ZM265 89.1503H270V86.7386H265V89.1503ZM269.673 88.8235V87.0654H265.327V88.8235H269.673ZM260 89.1503H265V86.7386H260V89.1503ZM264.673 88.8235V87.0654H260.327V88.8235H264.673ZM230 89.1503H235V86.7386H230V89.1503ZM234.673 88.8235V87.0654H230.327V88.8235H234.673ZM225 89.1503H230V86.7386H225V89.1503ZM229.673 88.8235V87.0654H225.327V88.8235H229.673ZM220 89.1503H225V86.7386H220V89.1503ZM224.673 88.8235V87.0654H220.327V88.8235H224.673ZM200 89.1503H205V86.7386H200V89.1503ZM204.673 88.8235V87.0654H200.327V88.8235H204.673ZM195 89.1503H200V86.7386H195V89.1503ZM199.673 88.8235V87.0654H195.327V88.8235H199.673ZM190 89.1503H195V86.7386H190V89.1503ZM194.673 88.8235V87.0654H190.327V88.8235H194.673ZM180 89.1503H185V86.7386H180V89.1503ZM184.673 88.8235V87.0654H180.327V88.8235H184.673ZM175 89.1503H180V86.7386H175V89.1503ZM179.673 88.8235V87.0654H175.327V88.8235H179.673ZM160 89.1503H165V86.7386H160V89.1503ZM164.673 88.8235V87.0654H160.327V88.8235H164.673ZM155 89.1503H160V86.7386H155V89.1503ZM159.673 88.8235V87.0654H155.327V88.8235H159.673ZM150 89.1503H155V86.7386H150V89.1503ZM154.673 88.8235V87.0654H150.327V88.8235H154.673ZM140 89.1503H145V86.7386H140V89.1503ZM144.673 88.8235V87.0654H140.327V88.8235H144.673ZM135 89.1503H140V86.7386H135V89.1503ZM139.673 88.8235V87.0654H135.327V88.8235H139.673ZM130 89.1503H135V86.7386H130V89.1503ZM134.673 88.8235V87.0654H130.327V88.8235H134.673ZM115 89.1503H120V86.7386H115V89.1503ZM119.673 88.8235V87.0654H115.327V88.8235H119.673ZM110 89.1503H115V86.7386H110V89.1503ZM114.673 88.8235V87.0654H110.327V88.8235H114.673ZM90 89.1503H95V86.7386H90V89.1503ZM94.6732 88.8235V87.0654H90.3268V88.8235H94.6732ZM85 89.1503H90V86.7386H85V89.1503ZM89.6732 88.8235V87.0654H85.3268V88.8235H89.6732ZM65 89.1503H70V86.7386H65V89.1503ZM69.6732 88.8235V87.0654H65.3268V88.8235H69.6732ZM60 89.1503H65V86.7386H60V89.1503ZM64.6732 88.8235V87.0654H60.3268V88.8235H64.6732ZM55 89.1503H60V86.7386H55V89.1503ZM59.6732 88.8235V87.0654H55.3268V88.8235H59.6732ZM35 89.1503H40V86.7386H35V89.1503ZM39.6732 88.8235V87.0654H35.3268V88.8235H39.6732ZM5 89.1503H10V86.7386H5V89.1503ZM9.6732 88.8235V87.0654H5.3268V88.8235H9.6732ZM0 89.1503H5V86.7386H0V89.1503ZM4.6732 88.8235V87.0654H0.326797V88.8235H4.6732ZM345 86.7386H350V84.3268H345V86.7386ZM349.673 86.4118V84.6536H345.327V86.4118H349.673ZM330 86.7386H335V84.3268H330V86.7386ZM334.673 86.4118V84.6536H330.327V86.4118H334.673ZM325 86.7386H330V84.3268H325V86.7386ZM329.673 86.4118V84.6536H325.327V86.4118H329.673ZM320 86.7386H325V84.3268H320V86.7386ZM324.673 86.4118V84.6536H320.327V86.4118H324.673ZM305 86.7386H310V84.3268H305V86.7386ZM309.673 86.4118V84.6536H305.327V86.4118H309.673ZM300 86.7386H305V84.3268H300V86.7386ZM304.673 86.4118V84.6536H300.327V86.4118H304.673ZM270 86.7386H275V84.3268H270V86.7386ZM274.673 86.4118V84.6536H270.327V86.4118H274.673ZM265 86.7386H270V84.3268H265V86.7386ZM269.673 86.4118V84.6536H265.327V86.4118H269.673ZM260 86.7386H265V84.3268H260V86.7386ZM264.673 86.4118V84.6536H260.327V86.4118H264.673ZM230 86.7386H235V84.3268H230V86.7386ZM234.673 86.4118V84.6536H230.327V86.4118H234.673ZM225 86.7386H230V84.3268H225V86.7386ZM229.673 86.4118V84.6536H225.327V86.4118H229.673ZM220 86.7386H225V84.3268H220V86.7386ZM224.673 86.4118V84.6536H220.327V86.4118H224.673ZM200 86.7386H205V84.3268H200V86.7386ZM204.673 86.4118V84.6536H200.327V86.4118H204.673ZM195 86.7386H200V84.3268H195V86.7386ZM199.673 86.4118V84.6536H195.327V86.4118H199.673ZM180 86.7386H185V84.3268H180V86.7386ZM184.673 86.4118V84.6536H180.327V86.4118H184.673ZM175 86.7386H180V84.3268H175V86.7386ZM179.673 86.4118V84.6536H175.327V86.4118H179.673ZM170 86.7386H175V84.3268H170V86.7386ZM174.673 86.4118V84.6536H170.327V86.4118H174.673ZM160 86.7386H165V84.3268H160V86.7386ZM164.673 86.4118V84.6536H160.327V86.4118H164.673ZM155 86.7386H160V84.3268H155V86.7386ZM159.673 86.4118V84.6536H155.327V86.4118H159.673ZM140 86.7386H145V84.3268H140V86.7386ZM144.673 86.4118V84.6536H140.327V86.4118H144.673ZM135 86.7386H140V84.3268H135V86.7386ZM139.673 86.4118V84.6536H135.327V86.4118H139.673ZM130 86.7386H135V84.3268H130V86.7386ZM134.673 86.4118V84.6536H130.327V86.4118H134.673ZM115 86.7386H120V84.3268H115V86.7386ZM119.673 86.4118V84.6536H115.327V86.4118H119.673ZM110 86.7386H115V84.3268H110V86.7386ZM114.673 86.4118V84.6536H110.327V86.4118H114.673ZM90 86.7386H95V84.3268H90V86.7386ZM94.6732 86.4118V84.6536H90.3268V86.4118H94.6732ZM85 86.7386H90V84.3268H85V86.7386ZM89.6732 86.4118V84.6536H85.3268V86.4118H89.6732ZM65 86.7386H70V84.3268H65V86.7386ZM69.6732 86.4118V84.6536H65.3268V86.4118H69.6732ZM60 86.7386H65V84.3268H60V86.7386ZM64.6732 86.4118V84.6536H60.3268V86.4118H64.6732ZM55 86.7386H60V84.3268H55V86.7386ZM59.6732 86.4118V84.6536H55.3268V86.4118H59.6732ZM5 86.7386H10V84.3268H5V86.7386ZM9.6732 86.4118V84.6536H5.3268V86.4118H9.6732ZM0 86.7386H5V84.3268H0V86.7386ZM4.6732 86.4118V84.6536H0.326797V86.4118H4.6732ZM330 84.3333H335V81.9216H330V84.3333ZM334.673 84.0065V82.2484H330.327V84.0065H334.673ZM325 84.3333H330V81.9216H325V84.3333ZM329.673 84.0065V82.2484H325.327V84.0065H329.673ZM305 84.3333H310V81.9216H305V84.3333ZM309.673 84.0065V82.2484H305.327V84.0065H309.673ZM300 84.3333H305V81.9216H300V84.3333ZM304.673 84.0065V82.2484H300.327V84.0065H304.673ZM270 84.3333H275V81.9216H270V84.3333ZM274.673 84.0065V82.2484H270.327V84.0065H274.673ZM265 84.3333H270V81.9216H265V84.3333ZM269.673 84.0065V82.2484H265.327V84.0065H269.673ZM230 84.3333H235V81.9216H230V84.3333ZM234.673 84.0065V82.2484H230.327V84.0065H234.673ZM225 84.3333H230V81.9216H225V84.3333ZM229.673 84.0065V82.2484H225.327V84.0065H229.673ZM205 84.3333H210V81.9216H205V84.3333ZM209.673 84.0065V82.2484H205.327V84.0065H209.673ZM200 84.3333H205V81.9216H200V84.3333ZM204.673 84.0065V82.2484H200.327V84.0065H204.673ZM195 84.3333H200V81.9216H195V84.3333ZM199.673 84.0065V82.2484H195.327V84.0065H199.673ZM175 84.3333H180V81.9216H175V84.3333ZM179.673 84.0065V82.2484H175.327V84.0065H179.673ZM170 84.3333H175V81.9216H170V84.3333ZM174.673 84.0065V82.2484H170.327V84.0065H174.673ZM160 84.3333H165V81.9216H160V84.3333ZM164.673 84.0065V82.2484H160.327V84.0065H164.673ZM155 84.3333H160V81.9216H155V84.3333ZM159.673 84.0065V82.2484H155.327V84.0065H159.673ZM140 84.3333H145V81.9216H140V84.3333ZM144.673 84.0065V82.2484H140.327V84.0065H144.673ZM135 84.3333H140V81.9216H135V84.3333ZM139.673 84.0065V82.2484H135.327V84.0065H139.673ZM115 84.3333H120V81.9216H115V84.3333ZM119.673 84.0065V82.2484H115.327V84.0065H119.673ZM110 84.3333H115V81.9216H110V84.3333ZM114.673 84.0065V82.2484H110.327V84.0065H114.673ZM95 84.3333H100V81.9216H95V84.3333ZM99.6732 84.0065V82.2484H95.3268V84.0065H99.6732ZM90 84.3333H95V81.9216H90V84.3333ZM94.6732 84.0065V82.2484H90.3268V84.0065H94.6732ZM70 84.3333H75V81.9216H70V84.3333ZM74.6732 84.0065V82.2484H70.3268V84.0065H74.6732ZM65 84.3333H70V81.9216H65V84.3333ZM69.6732 84.0065V82.2484H65.3268V84.0065H69.6732ZM60 84.3333H65V81.9216H60V84.3333ZM64.6732 84.0065V82.2484H60.3268V84.0065H64.6732ZM40 84.3333H45V81.9216H40V84.3333ZM44.6732 84.0065V82.2484H40.3268V84.0065H44.6732ZM5 84.3333H10V81.9216H5V84.3333ZM9.6732 84.0065V82.2484H5.3268V84.0065H9.6732ZM0 84.3333H5V81.9216H0V84.3333ZM4.6732 84.0065V82.2484H0.326797V84.0065H4.6732ZM350 81.9216H355V79.5098H350V81.9216ZM354.673 81.5948V79.8366H350.327V81.5948H354.673ZM330 81.9216H335V79.5098H330V81.9216ZM334.673 81.5948V79.8366H330.327V81.5948H334.673ZM325 81.9216H330V79.5098H325V81.9216ZM329.673 81.5948V79.8366H325.327V81.5948H329.673ZM305 81.9216H310V79.5098H305V81.9216ZM309.673 81.5948V79.8366H305.327V81.5948H309.673ZM300 81.9216H305V79.5098H300V81.9216ZM304.673 81.5948V79.8366H300.327V81.5948H304.673ZM270 81.9216H275V79.5098H270V81.9216ZM274.673 81.5948V79.8366H270.327V81.5948H274.673ZM265 81.9216H270V79.5098H265V81.9216ZM269.673 81.5948V79.8366H265.327V81.5948H269.673ZM235 81.9216H240V79.5098H235V81.9216ZM239.673 81.5948V79.8366H235.327V81.5948H239.673ZM230 81.9216H235V79.5098H230V81.9216ZM234.673 81.5948V79.8366H230.327V81.5948H234.673ZM225 81.9216H230V79.5098H225V81.9216ZM229.673 81.5948V79.8366H225.327V81.5948H229.673ZM205 81.9216H210V79.5098H205V81.9216ZM209.673 81.5948V79.8366H205.327V81.5948H209.673ZM200 81.9216H205V79.5098H200V81.9216ZM204.673 81.5948V79.8366H200.327V81.5948H204.673ZM195 81.9216H200V79.5098H195V81.9216ZM199.673 81.5948V79.8366H195.327V81.5948H199.673ZM175 81.9216H180V79.5098H175V81.9216ZM179.673 81.5948V79.8366H175.327V81.5948H179.673ZM170 81.9216H175V79.5098H170V81.9216ZM174.673 81.5948V79.8366H170.327V81.5948H174.673ZM160 81.9216H165V79.5098H160V81.9216ZM164.673 81.5948V79.8366H160.327V81.5948H164.673ZM155 81.9216H160V79.5098H155V81.9216ZM159.673 81.5948V79.8366H155.327V81.5948H159.673ZM140 81.9216H145V79.5098H140V81.9216ZM144.673 81.5948V79.8366H140.327V81.5948H144.673ZM135 81.9216H140V79.5098H135V81.9216ZM139.673 81.5948V79.8366H135.327V81.5948H139.673ZM120 81.9216H125V79.5098H120V81.9216ZM124.673 81.5948V79.8366H120.327V81.5948H124.673ZM115 81.9216H120V79.5098H115V81.9216ZM119.673 81.5948V79.8366H115.327V81.5948H119.673ZM110 81.9216H115V79.5098H110V81.9216ZM114.673 81.5948V79.8366H110.327V81.5948H114.673ZM95 81.9216H100V79.5098H95V81.9216ZM99.6732 81.5948V79.8366H95.3268V81.5948H99.6732ZM90 81.9216H95V79.5098H90V81.9216ZM94.6732 81.5948V79.8366H90.3268V81.5948H94.6732ZM70 81.9216H75V79.5098H70V81.9216ZM74.6732 81.5948V79.8366H70.3268V81.5948H74.6732ZM65 81.9216H70V79.5098H65V81.9216ZM69.6732 81.5948V79.8366H65.3268V81.5948H69.6732ZM60 81.9216H65V79.5098H60V81.9216ZM64.6732 81.5948V79.8366H60.3268V81.5948H64.6732ZM40 81.9216H45V79.5098H40V81.9216ZM44.6732 81.5948V79.8366H40.3268V81.5948H44.6732ZM5 81.9216H10V79.5098H5V81.9216ZM9.6732 81.5948V79.8366H5.3268V81.5948H9.6732ZM0 81.9216H5V79.5098H0V81.9216ZM4.6732 81.5948V79.8366H0.326797V81.5948H4.6732ZM350 79.5098H355V77.098H350V79.5098ZM354.673 79.183V77.4248H350.327V79.183H354.673ZM330 79.5098H335V77.098H330V79.5098ZM334.673 79.183V77.4248H330.327V79.183H334.673ZM325 79.5098H330V77.098H325V79.5098ZM329.673 79.183V77.4248H325.327V79.183H329.673ZM310 79.5098H315V77.098H310V79.5098ZM314.673 79.183V77.4248H310.327V79.183H314.673ZM305 79.5098H310V77.098H305V79.5098ZM309.673 79.183V77.4248H305.327V79.183H309.673ZM300 79.5098H305V77.098H300V79.5098ZM304.673 79.183V77.4248H300.327V79.183H304.673ZM295 79.5098H300V77.098H295V79.5098ZM299.673 79.183V77.4248H295.327V79.183H299.673ZM270 79.5098H275V77.098H270V79.5098ZM274.673 79.183V77.4248H270.327V79.183H274.673ZM265 79.5098H270V77.098H265V79.5098ZM269.673 79.183V77.4248H265.327V79.183H269.673ZM240 79.5098H245V77.098H240V79.5098ZM244.673 79.183V77.4248H240.327V79.183H244.673ZM235 79.5098H240V77.098H235V79.5098ZM239.673 79.183V77.4248H235.327V79.183H239.673ZM230 79.5098H235V77.098H230V79.5098ZM234.673 79.183V77.4248H230.327V79.183H234.673ZM225 79.5098H230V77.098H225V79.5098ZM229.673 79.183V77.4248H225.327V79.183H229.673ZM205 79.5098H210V77.098H205V79.5098ZM209.673 79.183V77.4248H205.327V79.183H209.673ZM200 79.5098H205V77.098H200V79.5098ZM204.673 79.183V77.4248H200.327V79.183H204.673ZM195 79.5098H200V77.098H195V79.5098ZM199.673 79.183V77.4248H195.327V79.183H199.673ZM175 79.5098H180V77.098H175V79.5098ZM179.673 79.183V77.4248H175.327V79.183H179.673ZM170 79.5098H175V77.098H170V79.5098ZM174.673 79.183V77.4248H170.327V79.183H174.673ZM160 79.5098H165V77.098H160V79.5098ZM164.673 79.183V77.4248H160.327V79.183H164.673ZM155 79.5098H160V77.098H155V79.5098ZM159.673 79.183V77.4248H155.327V79.183H159.673ZM145 79.5098H150V77.098H145V79.5098ZM149.673 79.183V77.4248H145.327V79.183H149.673ZM140 79.5098H145V77.098H140V79.5098ZM144.673 79.183V77.4248H140.327V79.183H144.673ZM135 79.5098H140V77.098H135V79.5098ZM139.673 79.183V77.4248H135.327V79.183H139.673ZM120 79.5098H125V77.098H120V79.5098ZM124.673 79.183V77.4248H120.327V79.183H124.673ZM115 79.5098H120V77.098H115V79.5098ZM119.673 79.183V77.4248H115.327V79.183H119.673ZM110 79.5098H115V77.098H110V79.5098ZM114.673 79.183V77.4248H110.327V79.183H114.673ZM95 79.5098H100V77.098H95V79.5098ZM99.6732 79.183V77.4248H95.3268V79.183H99.6732ZM90 79.5098H95V77.098H90V79.5098ZM94.6732 79.183V77.4248H90.3268V79.183H94.6732ZM70 79.5098H75V77.098H70V79.5098ZM74.6732 79.183V77.4248H70.3268V79.183H74.6732ZM65 79.5098H70V77.098H65V79.5098ZM69.6732 79.183V77.4248H65.3268V79.183H69.6732ZM60 79.5098H65V77.098H60V79.5098ZM64.6732 79.183V77.4248H60.3268V79.183H64.6732ZM5 79.5098H10V77.098H5V79.5098ZM9.6732 79.183V77.4248H5.3268V79.183H9.6732ZM350 77.1046H355V74.6928H350V77.1046ZM354.673 76.7778V75.0196H350.327V76.7778H354.673ZM335 77.1046H340V74.6928H335V77.1046ZM339.673 76.7778V75.0196H335.327V76.7778H339.673ZM330 77.1046H335V74.6928H330V77.1046ZM334.673 76.7778V75.0196H330.327V76.7778H334.673ZM325 77.1046H330V74.6928H325V77.1046ZM329.673 76.7778V75.0196H325.327V76.7778H329.673ZM310 77.1046H315V74.6928H310V77.1046ZM314.673 76.7778V75.0196H310.327V76.7778H314.673ZM305 77.1046H310V74.6928H305V77.1046ZM309.673 76.7778V75.0196H305.327V76.7778H309.673ZM300 77.1046H305V74.6928H300V77.1046ZM304.673 76.7778V75.0196H300.327V76.7778H304.673ZM295 77.1046H300V74.6928H295V77.1046ZM299.673 76.7778V75.0196H295.327V76.7778H299.673ZM290 77.1046H295V74.6928H290V77.1046ZM294.673 76.7778V75.0196H290.327V76.7778H294.673ZM275 77.1046H280V74.6928H275V77.1046ZM279.673 76.7778V75.0196H275.327V76.7778H279.673ZM270 77.1046H275V74.6928H270V77.1046ZM274.673 76.7778V75.0196H270.327V76.7778H274.673ZM265 77.1046H270V74.6928H265V77.1046ZM269.673 76.7778V75.0196H265.327V76.7778H269.673ZM250 77.1046H255V74.6928H250V77.1046ZM254.673 76.7778V75.0196H250.327V76.7778H254.673ZM245 77.1046H250V74.6928H245V77.1046ZM249.673 76.7778V75.0196H245.327V76.7778H249.673ZM240 77.1046H245V74.6928H240V77.1046ZM244.673 76.7778V75.0196H240.327V76.7778H244.673ZM230 77.1046H235V74.6928H230V77.1046ZM234.673 76.7778V75.0196H230.327V76.7778H234.673ZM225 77.1046H230V74.6928H225V77.1046ZM229.673 76.7778V75.0196H225.327V76.7778H229.673ZM205 77.1046H210V74.6928H205V77.1046ZM209.673 76.7778V75.0196H205.327V76.7778H209.673ZM200 77.1046H205V74.6928H200V77.1046ZM204.673 76.7778V75.0196H200.327V76.7778H204.673ZM175 77.1046H180V74.6928H175V77.1046ZM179.673 76.7778V75.0196H175.327V76.7778H179.673ZM170 77.1046H175V74.6928H170V77.1046ZM174.673 76.7778V75.0196H170.327V76.7778H174.673ZM165 77.1046H170V74.6928H165V77.1046ZM169.673 76.7778V75.0196H165.327V76.7778H169.673ZM145 77.1046H150V74.6928H145V77.1046ZM149.673 76.7778V75.0196H145.327V76.7778H149.673ZM140 77.1046H145V74.6928H140V77.1046ZM144.673 76.7778V75.0196H140.327V76.7778H144.673ZM120 77.1046H125V74.6928H120V77.1046ZM124.673 76.7778V75.0196H120.327V76.7778H124.673ZM115 77.1046H120V74.6928H115V77.1046ZM119.673 76.7778V75.0196H115.327V76.7778H119.673ZM95 77.1046H100V74.6928H95V77.1046ZM99.6732 76.7778V75.0196H95.3268V76.7778H99.6732ZM90 77.1046H95V74.6928H90V77.1046ZM94.6732 76.7778V75.0196H90.3268V76.7778H94.6732ZM75 77.1046H80V74.6928H75V77.1046ZM79.6732 76.7778V75.0196H75.3268V76.7778H79.6732ZM65 77.1046H70V74.6928H65V77.1046ZM69.6732 76.7778V75.0196H65.3268V76.7778H69.6732ZM60 77.1046H65V74.6928H60V77.1046ZM64.6732 76.7778V75.0196H60.3268V76.7778H64.6732ZM45 77.1046H50V74.6928H45V77.1046ZM49.6732 76.7778V75.0196H45.3268V76.7778H49.6732ZM335 74.6928H340V72.281H335V74.6928ZM339.673 74.366V72.6078H335.327V74.366H339.673ZM330 74.6928H335V72.281H330V74.6928ZM334.673 74.366V72.6078H330.327V74.366H334.673ZM310 74.6928H315V72.281H310V74.6928ZM314.673 74.366V72.6078H310.327V74.366H314.673ZM305 74.6928H310V72.281H305V74.6928ZM309.673 74.366V72.6078H305.327V74.366H309.673ZM295 74.6928H300V72.281H295V74.6928ZM299.673 74.366V72.6078H295.327V74.366H299.673ZM290 74.6928H295V72.281H290V74.6928ZM294.673 74.366V72.6078H290.327V74.366H294.673ZM275 74.6928H280V72.281H275V74.6928ZM279.673 74.366V72.6078H275.327V74.366H279.673ZM270 74.6928H275V72.281H270V74.6928ZM274.673 74.366V72.6078H270.327V74.366H274.673ZM265 74.6928H270V72.281H265V74.6928ZM269.673 74.366V72.6078H265.327V74.366H269.673ZM250 74.6928H255V72.281H250V74.6928ZM254.673 74.366V72.6078H250.327V74.366H254.673ZM245 74.6928H250V72.281H245V74.6928ZM249.673 74.366V72.6078H245.327V74.366H249.673ZM230 74.6928H235V72.281H230V74.6928ZM234.673 74.366V72.6078H230.327V74.366H234.673ZM225 74.6928H230V72.281H225V74.6928ZM229.673 74.366V72.6078H225.327V74.366H229.673ZM205 74.6928H210V72.281H205V74.6928ZM209.673 74.366V72.6078H205.327V74.366H209.673ZM200 74.6928H205V72.281H200V74.6928ZM204.673 74.366V72.6078H200.327V74.366H204.673ZM175 74.6928H180V72.281H175V74.6928ZM179.673 74.366V72.6078H175.327V74.366H179.673ZM170 74.6928H175V72.281H170V74.6928ZM174.673 74.366V72.6078H170.327V74.366H174.673ZM165 74.6928H170V72.281H165V74.6928ZM169.673 74.366V72.6078H165.327V74.366H169.673ZM145 74.6928H150V72.281H145V74.6928ZM149.673 74.366V72.6078H145.327V74.366H149.673ZM140 74.6928H145V72.281H140V74.6928ZM144.673 74.366V72.6078H140.327V74.366H144.673ZM120 74.6928H125V72.281H120V74.6928ZM124.673 74.366V72.6078H120.327V74.366H124.673ZM115 74.6928H120V72.281H115V74.6928ZM119.673 74.366V72.6078H115.327V74.366H119.673ZM95 74.6928H100V72.281H95V74.6928ZM99.6732 74.366V72.6078H95.3268V74.366H99.6732ZM90 74.6928H95V72.281H90V74.6928ZM94.6732 74.366V72.6078H90.3268V74.366H94.6732ZM75 74.6928H80V72.281H75V74.6928ZM79.6732 74.366V72.6078H75.3268V74.366H79.6732ZM65 74.6928H70V72.281H65V74.6928ZM69.6732 74.366V72.6078H65.3268V74.366H69.6732ZM60 74.6928H65V72.281H60V74.6928ZM64.6732 74.366V72.6078H60.3268V74.366H64.6732ZM45 74.6928H50V72.281H45V74.6928ZM49.6732 74.366V72.6078H45.3268V74.366H49.6732ZM355 72.281H360V69.8693H355V72.281ZM359.673 71.9608V70.2026H355.327V71.9608H359.673ZM335 72.281H340V69.8693H335V72.281ZM339.673 71.9608V70.2026H335.327V71.9608H339.673ZM330 72.281H335V69.8693H330V72.281ZM334.673 71.9608V70.2026H330.327V71.9608H334.673ZM310 72.281H315V69.8693H310V72.281ZM314.673 71.9608V70.2026H310.327V71.9608H314.673ZM305 72.281H310V69.8693H305V72.281ZM309.673 71.9608V70.2026H305.327V71.9608H309.673ZM295 72.281H300V69.8693H295V72.281ZM299.673 71.9608V70.2026H295.327V71.9608H299.673ZM290 72.281H295V69.8693H290V72.281ZM294.673 71.9608V70.2026H290.327V71.9608H294.673ZM275 72.281H280V69.8693H275V72.281ZM279.673 71.9608V70.2026H275.327V71.9608H279.673ZM270 72.281H275V69.8693H270V72.281ZM274.673 71.9608V70.2026H270.327V71.9608H274.673ZM265 72.281H270V69.8693H265V72.281ZM269.673 71.9608V70.2026H265.327V71.9608H269.673ZM250 72.281H255V69.8693H250V72.281ZM254.673 71.9608V70.2026H250.327V71.9608H254.673ZM245 72.281H250V69.8693H245V72.281ZM249.673 71.9608V70.2026H245.327V71.9608H249.673ZM230 72.281H235V69.8693H230V72.281ZM234.673 71.9608V70.2026H230.327V71.9608H234.673ZM225 72.281H230V69.8693H225V72.281ZM229.673 71.9608V70.2026H225.327V71.9608H229.673ZM205 72.281H210V69.8693H205V72.281ZM209.673 71.9608V70.2026H205.327V71.9608H209.673ZM200 72.281H205V69.8693H200V72.281ZM204.673 71.9608V70.2026H200.327V71.9608H204.673ZM185 72.281H190V69.8693H185V72.281ZM189.673 71.9608V70.2026H185.327V71.9608H189.673ZM180 72.281H185V69.8693H180V72.281ZM184.673 71.9608V70.2026H180.327V71.9608H184.673ZM175 72.281H180V69.8693H175V72.281ZM179.673 71.9608V70.2026H175.327V71.9608H179.673ZM170 72.281H175V69.8693H170V72.281ZM174.673 71.9608V70.2026H170.327V71.9608H174.673ZM165 72.281H170V69.8693H165V72.281ZM169.673 71.9608V70.2026H165.327V71.9608H169.673ZM145 72.281H150V69.8693H145V72.281ZM149.673 71.9608V70.2026H145.327V71.9608H149.673ZM140 72.281H145V69.8693H140V72.281ZM144.673 71.9608V70.2026H140.327V71.9608H144.673ZM120 72.281H125V69.8693H120V72.281ZM124.673 71.9608V70.2026H120.327V71.9608H124.673ZM115 72.281H120V69.8693H115V72.281ZM119.673 71.9608V70.2026H115.327V71.9608H119.673ZM100 72.281H105V69.8693H100V72.281ZM104.673 71.9608V70.2026H100.327V71.9608H104.673ZM95 72.281H100V69.8693H95V72.281ZM99.6732 71.9608V70.2026H95.3268V71.9608H99.6732ZM90 72.281H95V69.8693H90V72.281ZM94.6732 71.9608V70.2026H90.3268V71.9608H94.6732ZM75 72.281H80V69.8693H75V72.281ZM79.6732 71.9608V70.2026H75.3268V71.9608H79.6732ZM70 72.281H75V69.8693H70V72.281ZM74.6732 71.9608V70.2026H70.3268V71.9608H74.6732ZM65 72.281H70V69.8693H65V72.281ZM69.6732 71.9608V70.2026H65.3268V71.9608H69.6732ZM60 72.281H65V69.8693H60V72.281ZM64.6732 71.9608V70.2026H60.3268V71.9608H64.6732ZM45 72.281H50V69.8693H45V72.281ZM49.6732 71.9608V70.2026H45.3268V71.9608H49.6732ZM355 69.8758H360V67.464H355V69.8758ZM359.673 69.549V67.7908H355.327V69.549H359.673ZM335 69.8758H340V67.464H335V69.8758ZM339.673 69.549V67.7908H335.327V69.549H339.673ZM330 69.8758H335V67.464H330V69.8758ZM334.673 69.549V67.7908H330.327V69.549H334.673ZM315 69.8758H320V67.464H315V69.8758ZM319.673 69.549V67.7908H315.327V69.549H319.673ZM310 69.8758H315V67.464H310V69.8758ZM314.673 69.549V67.7908H310.327V69.549H314.673ZM305 69.8758H310V67.464H305V69.8758ZM309.673 69.549V67.7908H305.327V69.549H309.673ZM295 69.8758H300V67.464H295V69.8758ZM299.673 69.549V67.7908H295.327V69.549H299.673ZM290 69.8758H295V67.464H290V69.8758ZM294.673 69.549V67.7908H290.327V69.549H294.673ZM280 69.8758H285V67.464H280V69.8758ZM284.673 69.549V67.7908H280.327V69.549H284.673ZM275 69.8758H280V67.464H275V69.8758ZM279.673 69.549V67.7908H275.327V69.549H279.673ZM270 69.8758H275V67.464H270V69.8758ZM274.673 69.549V67.7908H270.327V69.549H274.673ZM255 69.8758H260V67.464H255V69.8758ZM259.673 69.549V67.7908H255.327V69.549H259.673ZM250 69.8758H255V67.464H250V69.8758ZM254.673 69.549V67.7908H250.327V69.549H254.673ZM235 69.8758H240V67.464H235V69.8758ZM239.673 69.549V67.7908H235.327V69.549H239.673ZM230 69.8758H235V67.464H230V69.8758ZM234.673 69.549V67.7908H230.327V69.549H234.673ZM210 69.8758H215V67.464H210V69.8758ZM214.673 69.549V67.7908H210.327V69.549H214.673ZM205 69.8758H210V67.464H205V69.8758ZM209.673 69.549V67.7908H205.327V69.549H209.673ZM200 69.8758H205V67.464H200V69.8758ZM204.673 69.549V67.7908H200.327V69.549H204.673ZM185 69.8758H190V67.464H185V69.8758ZM189.673 69.549V67.7908H185.327V69.549H189.673ZM170 69.8758H175V67.464H170V69.8758ZM174.673 69.549V67.7908H170.327V69.549H174.673ZM165 69.8758H170V67.464H165V69.8758ZM169.673 69.549V67.7908H165.327V69.549H169.673ZM145 69.8758H150V67.464H145V69.8758ZM149.673 69.549V67.7908H145.327V69.549H149.673ZM140 69.8758H145V67.464H140V69.8758ZM144.673 69.549V67.7908H140.327V69.549H144.673ZM125 69.8758H130V67.464H125V69.8758ZM129.673 69.549V67.7908H125.327V69.549H129.673ZM120 69.8758H125V67.464H120V69.8758ZM124.673 69.549V67.7908H120.327V69.549H124.673ZM115 69.8758H120V67.464H115V69.8758ZM119.673 69.549V67.7908H115.327V69.549H119.673ZM100 69.8758H105V67.464H100V69.8758ZM104.673 69.549V67.7908H100.327V69.549H104.673ZM95 69.8758H100V67.464H95V69.8758ZM99.6732 69.549V67.7908H95.3268V69.549H99.6732ZM70 69.8758H75V67.464H70V69.8758ZM74.6732 69.549V67.7908H70.3268V69.549H74.6732ZM65 69.8758H70V67.464H65V69.8758ZM69.6732 69.549V67.7908H65.3268V69.549H69.6732ZM50 69.8758H55V67.464H50V69.8758ZM54.6732 69.549V67.7908H50.3268V69.549H54.6732ZM355 67.464H360V65.0523H355V67.464ZM359.673 67.1373V65.3791H355.327V67.1373H359.673ZM335 67.464H340V65.0523H335V67.464ZM339.673 67.1373V65.3791H335.327V67.1373H339.673ZM330 67.464H335V65.0523H330V67.464ZM334.673 67.1373V65.3791H330.327V67.1373H334.673ZM315 67.464H320V65.0523H315V67.464ZM319.673 67.1373V65.3791H315.327V67.1373H319.673ZM310 67.464H315V65.0523H310V67.464ZM314.673 67.1373V65.3791H310.327V67.1373H314.673ZM305 67.464H310V65.0523H305V67.464ZM309.673 67.1373V65.3791H305.327V67.1373H309.673ZM295 67.464H300V65.0523H295V67.464ZM299.673 67.1373V65.3791H295.327V67.1373H299.673ZM290 67.464H295V65.0523H290V67.464ZM294.673 67.1373V65.3791H290.327V67.1373H294.673ZM280 67.464H285V65.0523H280V67.464ZM284.673 67.1373V65.3791H280.327V67.1373H284.673ZM275 67.464H280V65.0523H275V67.464ZM279.673 67.1373V65.3791H275.327V67.1373H279.673ZM270 67.464H275V65.0523H270V67.464ZM274.673 67.1373V65.3791H270.327V67.1373H274.673ZM255 67.464H260V65.0523H255V67.464ZM259.673 67.1373V65.3791H255.327V67.1373H259.673ZM250 67.464H255V65.0523H250V67.464ZM254.673 67.1373V65.3791H250.327V67.1373H254.673ZM235 67.464H240V65.0523H235V67.464ZM239.673 67.1373V65.3791H235.327V67.1373H239.673ZM230 67.464H235V65.0523H230V67.464ZM234.673 67.1373V65.3791H230.327V67.1373H234.673ZM210 67.464H215V65.0523H210V67.464ZM214.673 67.1373V65.3791H210.327V67.1373H214.673ZM205 67.464H210V65.0523H205V67.464ZM209.673 67.1373V65.3791H205.327V67.1373H209.673ZM185 67.464H190V65.0523H185V67.464ZM189.673 67.1373V65.3791H185.327V67.1373H189.673ZM170 67.464H175V65.0523H170V67.464ZM174.673 67.1373V65.3791H170.327V67.1373H174.673ZM165 67.464H170V65.0523H165V67.464ZM169.673 67.1373V65.3791H165.327V67.1373H169.673ZM150 67.464H155V65.0523H150V67.464ZM154.673 67.1373V65.3791H150.327V67.1373H154.673ZM145 67.464H150V65.0523H145V67.464ZM149.673 67.1373V65.3791H145.327V67.1373H149.673ZM140 67.464H145V65.0523H140V67.464ZM144.673 67.1373V65.3791H140.327V67.1373H144.673ZM125 67.464H130V65.0523H125V67.464ZM129.673 67.1373V65.3791H125.327V67.1373H129.673ZM120 67.464H125V65.0523H120V67.464ZM124.673 67.1373V65.3791H120.327V67.1373H124.673ZM100 67.464H105V65.0523H100V67.464ZM104.673 67.1373V65.3791H100.327V67.1373H104.673ZM95 67.464H100V65.0523H95V67.464ZM99.6732 67.1373V65.3791H95.3268V67.1373H99.6732ZM80 67.464H85V65.0523H80V67.464ZM84.6732 67.1373V65.3791H80.3268V67.1373H84.6732ZM70 67.464H75V65.0523H70V67.464ZM74.6732 67.1373V65.3791H70.3268V67.1373H74.6732ZM65 67.464H70V65.0523H65V67.464ZM69.6732 67.1373V65.3791H65.3268V67.1373H69.6732ZM50 67.464H55V65.0523H50V67.464ZM54.6732 67.1373V65.3791H50.3268V67.1373H54.6732ZM340 65.0588H345V62.6471H340V65.0588ZM344.673 64.732V62.9739H340.327V64.732H344.673ZM335 65.0588H340V62.6471H335V65.0588ZM339.673 64.732V62.9739H335.327V64.732H339.673ZM330 65.0588H335V62.6471H330V65.0588ZM334.673 64.732V62.9739H330.327V64.732H334.673ZM315 65.0588H320V62.6471H315V65.0588ZM319.673 64.732V62.9739H315.327V64.732H319.673ZM310 65.0588H315V62.6471H310V65.0588ZM314.673 64.732V62.9739H310.327V64.732H314.673ZM295 65.0588H300V62.6471H295V65.0588ZM299.673 64.732V62.9739H295.327V64.732H299.673ZM290 65.0588H295V62.6471H290V65.0588ZM294.673 64.732V62.9739H290.327V64.732H294.673ZM275 65.0588H280V62.6471H275V65.0588ZM279.673 64.732V62.9739H275.327V64.732H279.673ZM270 65.0588H275V62.6471H270V65.0588ZM274.673 64.732V62.9739H270.327V64.732H274.673ZM255 65.0588H260V62.6471H255V65.0588ZM259.673 64.732V62.9739H255.327V64.732H259.673ZM250 65.0588H255V62.6471H250V65.0588ZM254.673 64.732V62.9739H250.327V64.732H254.673ZM235 65.0588H240V62.6471H235V65.0588ZM239.673 64.732V62.9739H235.327V64.732H239.673ZM230 65.0588H235V62.6471H230V65.0588ZM234.673 64.732V62.9739H230.327V64.732H234.673ZM210 65.0588H215V62.6471H210V65.0588ZM214.673 64.732V62.9739H210.327V64.732H214.673ZM205 65.0588H210V62.6471H205V65.0588ZM209.673 64.732V62.9739H205.327V64.732H209.673ZM185 65.0588H190V62.6471H185V65.0588ZM189.673 64.732V62.9739H185.327V64.732H189.673ZM170 65.0588H175V62.6471H170V65.0588ZM174.673 64.732V62.9739H170.327V64.732H174.673ZM165 65.0588H170V62.6471H165V65.0588ZM169.673 64.732V62.9739H165.327V64.732H169.673ZM150 65.0588H155V62.6471H150V65.0588ZM154.673 64.732V62.9739H150.327V64.732H154.673ZM145 65.0588H150V62.6471H145V65.0588ZM149.673 64.732V62.9739H145.327V64.732H149.673ZM125 65.0588H130V62.6471H125V65.0588ZM129.673 64.732V62.9739H125.327V64.732H129.673ZM120 65.0588H125V62.6471H120V65.0588ZM124.673 64.732V62.9739H120.327V64.732H124.673ZM100 65.0588H105V62.6471H100V65.0588ZM104.673 64.732V62.9739H100.327V64.732H104.673ZM95 65.0588H100V62.6471H95V65.0588ZM99.6732 64.732V62.9739H95.3268V64.732H99.6732ZM80 65.0588H85V62.6471H80V65.0588ZM84.6732 64.732V62.9739H80.3268V64.732H84.6732ZM70 65.0588H75V62.6471H70V65.0588ZM74.6732 64.732V62.9739H70.3268V64.732H74.6732ZM65 65.0588H70V62.6471H65V65.0588ZM69.6732 64.732V62.9739H65.3268V64.732H69.6732ZM50 65.0588H55V62.6471H50V65.0588ZM54.6732 64.732V62.9739H50.3268V64.732H54.6732ZM340 62.6471H345V60.2353H340V62.6471ZM344.673 62.3203V60.5621H340.327V62.3203H344.673ZM335 62.6471H340V60.2353H335V62.6471ZM339.673 62.3203V60.5621H335.327V62.3203H339.673ZM315 62.6471H320V60.2353H315V62.6471ZM319.673 62.3203V60.5621H315.327V62.3203H319.673ZM310 62.6471H315V60.2353H310V62.6471ZM314.673 62.3203V60.5621H310.327V62.3203H314.673ZM295 62.6471H300V60.2353H295V62.6471ZM299.673 62.3203V60.5621H295.327V62.3203H299.673ZM290 62.6471H295V60.2353H290V62.6471ZM294.673 62.3203V60.5621H290.327V62.3203H294.673ZM285 62.6471H290V60.2353H285V62.6471ZM289.673 62.3203V60.5621H285.327V62.3203H289.673ZM280 62.6471H285V60.2353H280V62.6471ZM284.673 62.3203V60.5621H280.327V62.3203H284.673ZM275 62.6471H280V60.2353H275V62.6471ZM279.673 62.3203V60.5621H275.327V62.3203H279.673ZM270 62.6471H275V60.2353H270V62.6471ZM274.673 62.3203V60.5621H270.327V62.3203H274.673ZM255 62.6471H260V60.2353H255V62.6471ZM259.673 62.3203V60.5621H255.327V62.3203H259.673ZM250 62.6471H255V60.2353H250V62.6471ZM254.673 62.3203V60.5621H250.327V62.3203H254.673ZM235 62.6471H240V60.2353H235V62.6471ZM239.673 62.3203V60.5621H235.327V62.3203H239.673ZM230 62.6471H235V60.2353H230V62.6471ZM234.673 62.3203V60.5621H230.327V62.3203H234.673ZM210 62.6471H215V60.2353H210V62.6471ZM214.673 62.3203V60.5621H210.327V62.3203H214.673ZM205 62.6471H210V60.2353H205V62.6471ZM209.673 62.3203V60.5621H205.327V62.3203H209.673ZM185 62.6471H190V60.2353H185V62.6471ZM189.673 62.3203V60.5621H185.327V62.3203H189.673ZM170 62.6471H175V60.2353H170V62.6471ZM174.673 62.3203V60.5621H170.327V62.3203H174.673ZM165 62.6471H170V60.2353H165V62.6471ZM169.673 62.3203V60.5621H165.327V62.3203H169.673ZM150 62.6471H155V60.2353H150V62.6471ZM154.673 62.3203V60.5621H150.327V62.3203H154.673ZM145 62.6471H150V60.2353H145V62.6471ZM149.673 62.3203V60.5621H145.327V62.3203H149.673ZM125 62.6471H130V60.2353H125V62.6471ZM129.673 62.3203V60.5621H125.327V62.3203H129.673ZM120 62.6471H125V60.2353H120V62.6471ZM124.673 62.3203V60.5621H120.327V62.3203H124.673ZM100 62.6471H105V60.2353H100V62.6471ZM104.673 62.3203V60.5621H100.327V62.3203H104.673ZM95 62.6471H100V60.2353H95V62.6471ZM99.6732 62.3203V60.5621H95.3268V62.3203H99.6732ZM80 62.6471H85V60.2353H80V62.6471ZM84.6732 62.3203V60.5621H80.3268V62.3203H84.6732ZM70 62.6471H75V60.2353H70V62.6471ZM74.6732 62.3203V60.5621H70.3268V62.3203H74.6732ZM65 62.6471H70V60.2353H65V62.6471ZM69.6732 62.3203V60.5621H65.3268V62.3203H69.6732ZM50 62.6471H55V60.2353H50V62.6471ZM54.6732 62.3203V60.5621H50.3268V62.3203H54.6732ZM340 60.2353H345V57.8235H340V60.2353ZM344.673 59.9085V58.1503H340.327V59.9085H344.673ZM335 60.2353H340V57.8235H335V60.2353ZM339.673 59.9085V58.1503H335.327V59.9085H339.673ZM315 60.2353H320V57.8235H315V60.2353ZM319.673 59.9085V58.1503H315.327V59.9085H319.673ZM310 60.2353H315V57.8235H310V60.2353ZM314.673 59.9085V58.1503H310.327V59.9085H314.673ZM295 60.2353H300V57.8235H295V60.2353ZM299.673 59.9085V58.1503H295.327V59.9085H299.673ZM290 60.2353H295V57.8235H290V60.2353ZM294.673 59.9085V58.1503H290.327V59.9085H294.673ZM285 60.2353H290V57.8235H285V60.2353ZM289.673 59.9085V58.1503H285.327V59.9085H289.673ZM280 60.2353H285V57.8235H280V60.2353ZM284.673 59.9085V58.1503H280.327V59.9085H284.673ZM275 60.2353H280V57.8235H275V60.2353ZM279.673 59.9085V58.1503H275.327V59.9085H279.673ZM270 60.2353H275V57.8235H270V60.2353ZM274.673 59.9085V58.1503H270.327V59.9085H274.673ZM255 60.2353H260V57.8235H255V60.2353ZM259.673 59.9085V58.1503H255.327V59.9085H259.673ZM250 60.2353H255V57.8235H250V60.2353ZM254.673 59.9085V58.1503H250.327V59.9085H254.673ZM240 60.2353H245V57.8235H240V60.2353ZM244.673 59.9085V58.1503H240.327V59.9085H244.673ZM235 60.2353H240V57.8235H235V60.2353ZM239.673 59.9085V58.1503H235.327V59.9085H239.673ZM215 60.2353H220V57.8235H215V60.2353ZM219.673 59.9085V58.1503H215.327V59.9085H219.673ZM210 60.2353H215V57.8235H210V60.2353ZM214.673 59.9085V58.1503H210.327V59.9085H214.673ZM205 60.2353H210V57.8235H205V60.2353ZM209.673 59.9085V58.1503H205.327V59.9085H209.673ZM185 60.2353H190V57.8235H185V60.2353ZM189.673 59.9085V58.1503H185.327V59.9085H189.673ZM170 60.2353H175V57.8235H170V60.2353ZM174.673 59.9085V58.1503H170.327V59.9085H174.673ZM150 60.2353H155V57.8235H150V60.2353ZM154.673 59.9085V58.1503H150.327V59.9085H154.673ZM145 60.2353H150V57.8235H145V60.2353ZM149.673 59.9085V58.1503H145.327V59.9085H149.673ZM125 60.2353H130V57.8235H125V60.2353ZM129.673 59.9085V58.1503H125.327V59.9085H129.673ZM120 60.2353H125V57.8235H120V60.2353ZM124.673 59.9085V58.1503H120.327V59.9085H124.673ZM105 60.2353H110V57.8235H105V60.2353ZM109.673 59.9085V58.1503H105.327V59.9085H109.673ZM100 60.2353H105V57.8235H100V60.2353ZM104.673 59.9085V58.1503H100.327V59.9085H104.673ZM95 60.2353H100V57.8235H95V60.2353ZM99.6732 59.9085V58.1503H95.3268V59.9085H99.6732ZM70 60.2353H75V57.8235H70V60.2353ZM74.6732 59.9085V58.1503H70.3268V59.9085H74.6732ZM65 60.2353H70V57.8235H65V60.2353ZM69.6732 59.9085V58.1503H65.3268V59.9085H69.6732ZM55 60.2353H60V57.8235H55V60.2353ZM59.6732 59.9085V58.1503H55.3268V59.9085H59.6732ZM340 57.8301H345V55.4183H340V57.8301ZM344.673 57.5033V55.7451H340.327V57.5033H344.673ZM335 57.8301H340V55.4183H335V57.8301ZM339.673 57.5033V55.7451H335.327V57.5033H339.673ZM315 57.8301H320V55.4183H315V57.8301ZM319.673 57.5033V55.7451H315.327V57.5033H319.673ZM310 57.8301H315V55.4183H310V57.8301ZM314.673 57.5033V55.7451H310.327V57.5033H314.673ZM295 57.8301H300V55.4183H295V57.8301ZM299.673 57.5033V55.7451H295.327V57.5033H299.673ZM290 57.8301H295V55.4183H290V57.8301ZM294.673 57.5033V55.7451H290.327V57.5033H294.673ZM280 57.8301H285V55.4183H280V57.8301ZM284.673 57.5033V55.7451H280.327V57.5033H284.673ZM275 57.8301H280V55.4183H275V57.8301ZM279.673 57.5033V55.7451H275.327V57.5033H279.673ZM255 57.8301H260V55.4183H255V57.8301ZM259.673 57.5033V55.7451H255.327V57.5033H259.673ZM240 57.8301H245V55.4183H240V57.8301ZM244.673 57.5033V55.7451H240.327V57.5033H244.673ZM225 57.8301H230V55.4183H225V57.8301ZM229.673 57.5033V55.7451H225.327V57.5033H229.673ZM220 57.8301H225V55.4183H220V57.8301ZM224.673 57.5033V55.7451H220.327V57.5033H224.673ZM215 57.8301H220V55.4183H215V57.8301ZM219.673 57.5033V55.7451H215.327V57.5033H219.673ZM210 57.8301H215V55.4183H210V57.8301ZM214.673 57.5033V55.7451H210.327V57.5033H214.673ZM205 57.8301H210V55.4183H205V57.8301ZM209.673 57.5033V55.7451H205.327V57.5033H209.673ZM200 57.8301H205V55.4183H200V57.8301ZM204.673 57.5033V55.7451H200.327V57.5033H204.673ZM185 57.8301H190V55.4183H185V57.8301ZM189.673 57.5033V55.7451H185.327V57.5033H189.673ZM170 57.8301H175V55.4183H170V57.8301ZM174.673 57.5033V55.7451H170.327V57.5033H174.673ZM150 57.8301H155V55.4183H150V57.8301ZM154.673 57.5033V55.7451H150.327V57.5033H154.673ZM145 57.8301H150V55.4183H145V57.8301ZM149.673 57.5033V55.7451H145.327V57.5033H149.673ZM130 57.8301H135V55.4183H130V57.8301ZM134.673 57.5033V55.7451H130.327V57.5033H134.673ZM125 57.8301H130V55.4183H125V57.8301ZM129.673 57.5033V55.7451H125.327V57.5033H129.673ZM120 57.8301H125V55.4183H120V57.8301ZM124.673 57.5033V55.7451H120.327V57.5033H124.673ZM105 57.8301H110V55.4183H105V57.8301ZM109.673 57.5033V55.7451H105.327V57.5033H109.673ZM100 57.8301H105V55.4183H100V57.8301ZM104.673 57.5033V55.7451H100.327V57.5033H104.673ZM95 57.8301H100V55.4183H95V57.8301ZM99.6732 57.5033V55.7451H95.3268V57.5033H99.6732ZM85 57.8301H90V55.4183H85V57.8301ZM89.6732 57.5033V55.7451H85.3268V57.5033H89.6732ZM75 57.8301H80V55.4183H75V57.8301ZM79.6732 57.5033V55.7451H75.3268V57.5033H79.6732ZM70 57.8301H75V55.4183H70V57.8301ZM74.6732 57.5033V55.7451H70.3268V57.5033H74.6732ZM65 57.8301H70V55.4183H65V57.8301ZM69.6732 57.5033V55.7451H65.3268V57.5033H69.6732ZM55 57.8301H60V55.4183H55V57.8301ZM59.6732 57.5033V55.7451H55.3268V57.5033H59.6732ZM340 55.4183H345V53.0065H340V55.4183ZM344.673 55.0915V53.3333H340.327V55.0915H344.673ZM335 55.4183H340V53.0065H335V55.4183ZM339.673 55.0915V53.3333H335.327V55.0915H339.673ZM320 55.4183H325V53.0065H320V55.4183ZM324.673 55.0915V53.3333H320.327V55.0915H324.673ZM315 55.4183H320V53.0065H315V55.4183ZM319.673 55.0915V53.3333H315.327V55.0915H319.673ZM310 55.4183H315V53.0065H310V55.4183ZM314.673 55.0915V53.3333H310.327V55.0915H314.673ZM295 55.4183H300V53.0065H295V55.4183ZM299.673 55.0915V53.3333H295.327V55.0915H299.673ZM290 55.4183H295V53.0065H290V55.4183ZM294.673 55.0915V53.3333H290.327V55.0915H294.673ZM280 55.4183H285V53.0065H280V55.4183ZM284.673 55.0915V53.3333H280.327V55.0915H284.673ZM275 55.4183H280V53.0065H275V55.4183ZM279.673 55.0915V53.3333H275.327V55.0915H279.673ZM255 55.4183H260V53.0065H255V55.4183ZM259.673 55.0915V53.3333H255.327V55.0915H259.673ZM250 55.4183H255V53.0065H250V55.4183ZM254.673 55.0915V53.3333H250.327V55.0915H254.673ZM245 55.4183H250V53.0065H245V55.4183ZM249.673 55.0915V53.3333H245.327V55.0915H249.673ZM240 55.4183H245V53.0065H240V55.4183ZM244.673 55.0915V53.3333H240.327V55.0915H244.673ZM225 55.4183H230V53.0065H225V55.4183ZM229.673 55.0915V53.3333H225.327V55.0915H229.673ZM220 55.4183H225V53.0065H220V55.4183ZM224.673 55.0915V53.3333H220.327V55.0915H224.673ZM215 55.4183H220V53.0065H215V55.4183ZM219.673 55.0915V53.3333H215.327V55.0915H219.673ZM210 55.4183H215V53.0065H210V55.4183ZM214.673 55.0915V53.3333H210.327V55.0915H214.673ZM205 55.4183H210V53.0065H205V55.4183ZM209.673 55.0915V53.3333H205.327V55.0915H209.673ZM200 55.4183H205V53.0065H200V55.4183ZM204.673 55.0915V53.3333H200.327V55.0915H204.673ZM185 55.4183H190V53.0065H185V55.4183ZM189.673 55.0915V53.3333H185.327V55.0915H189.673ZM180 55.4183H185V53.0065H180V55.4183ZM184.673 55.0915V53.3333H180.327V55.0915H184.673ZM175 55.4183H180V53.0065H175V55.4183ZM179.673 55.0915V53.3333H175.327V55.0915H179.673ZM170 55.4183H175V53.0065H170V55.4183ZM174.673 55.0915V53.3333H170.327V55.0915H174.673ZM150 55.4183H155V53.0065H150V55.4183ZM154.673 55.0915V53.3333H150.327V55.0915H154.673ZM145 55.4183H150V53.0065H145V55.4183ZM149.673 55.0915V53.3333H145.327V55.0915H149.673ZM130 55.4183H135V53.0065H130V55.4183ZM134.673 55.0915V53.3333H130.327V55.0915H134.673ZM125 55.4183H130V53.0065H125V55.4183ZM129.673 55.0915V53.3333H125.327V55.0915H129.673ZM120 55.4183H125V53.0065H120V55.4183ZM124.673 55.0915V53.3333H120.327V55.0915H124.673ZM105 55.4183H110V53.0065H105V55.4183ZM109.673 55.0915V53.3333H105.327V55.0915H109.673ZM100 55.4183H105V53.0065H100V55.4183ZM104.673 55.0915V53.3333H100.327V55.0915H104.673ZM85 55.4183H90V53.0065H85V55.4183ZM89.6732 55.0915V53.3333H85.3268V55.0915H89.6732ZM75 55.4183H80V53.0065H75V55.4183ZM79.6732 55.0915V53.3333H75.3268V55.0915H79.6732ZM70 55.4183H75V53.0065H70V55.4183ZM74.6732 55.0915V53.3333H70.3268V55.0915H74.6732ZM65 55.4183H70V53.0065H65V55.4183ZM69.6732 55.0915V53.3333H65.3268V55.0915H69.6732ZM55 55.4183H60V53.0065H55V55.4183ZM59.6732 55.0915V53.3333H55.3268V55.0915H59.6732ZM300 53.0065H305V50.5948H300V53.0065ZM304.673 52.6797V50.9216H300.327V52.6797H304.673ZM295 53.0065H300V50.5948H295V53.0065ZM299.673 52.6797V50.9216H295.327V52.6797H299.673ZM250 53.0065H255V50.5948H250V53.0065ZM254.673 52.6797V50.9216H250.327V52.6797H254.673ZM245 53.0065H250V50.5948H245V53.0065ZM249.673 52.6797V50.9216H245.327V52.6797H249.673ZM215 53.0065H220V50.5948H215V53.0065ZM219.673 52.6797V50.9216H215.327V52.6797H219.673ZM210 53.0065H215V50.5948H210V53.0065ZM214.673 52.6797V50.9216H210.327V52.6797H214.673ZM180 53.0065H185V50.5948H180V53.0065ZM184.673 52.6797V50.9216H180.327V52.6797H184.673ZM175 53.0065H180V50.5948H175V53.0065ZM179.673 52.6797V50.9216H175.327V52.6797H179.673ZM105 53.0065H110V50.5948H105V53.0065ZM109.673 52.6797V50.9216H105.327V52.6797H109.673ZM100 53.0065H105V50.5948H100V53.0065ZM104.673 52.6797V50.9216H100.327V52.6797H104.673ZM85 53.0065H90V50.5948H85V53.0065ZM89.6732 52.6797V50.9216H85.3268V52.6797H89.6732ZM75 53.0065H80V50.5948H75V53.0065ZM79.6732 52.6797V50.9216H75.3268V52.6797H79.6732ZM70 53.0065H75V50.5948H70V53.0065ZM74.6732 52.6797V50.9216H70.3268V52.6797H74.6732ZM215 50.6013H220V48.1895H215V50.6013ZM219.673 50.2745V48.5163H215.327V50.2745H219.673ZM210 50.6013H215V48.1895H210V50.6013ZM214.673 50.2745V48.5163H210.327V50.2745H214.673ZM105 50.6013H110V48.1895H105V50.6013ZM109.673 50.2745V48.5163H105.327V50.2745H109.673ZM100 50.6013H105V48.1895H100V50.6013ZM104.673 50.2745V48.5163H100.327V50.2745H104.673ZM75 50.6013H80V48.1895H75V50.6013ZM79.6732 50.2745V48.5163H75.3268V50.2745H79.6732ZM70 50.6013H75V48.1895H70V50.6013ZM74.6732 50.2745V48.5163H70.3268V50.2745H74.6732ZM60 50.6013H65V48.1895H60V50.6013ZM64.6732 50.2745V48.5163H60.3268V50.2745H64.6732ZM215 48.1895H220V45.7778H215V48.1895ZM219.673 47.8627V46.1046H215.327V47.8627H219.673ZM210 48.1895H215V45.7778H210V48.1895ZM214.673 47.8627V46.1046H210.327V47.8627H214.673ZM105 48.1895H110V45.7778H105V48.1895ZM109.673 47.8627V46.1046H105.327V47.8627H109.673ZM100 48.1895H105V45.7778H100V48.1895ZM104.673 47.8627V46.1046H100.327V47.8627H104.673ZM90 48.1895H95V45.7778H90V48.1895ZM94.6732 47.8627V46.1046H90.3268V47.8627H94.6732ZM75 48.1895H80V45.7778H75V48.1895ZM79.6732 47.8627V46.1046H75.3268V47.8627H79.6732ZM70 48.1895H75V45.7778H70V48.1895ZM74.6732 47.8627V46.1046H70.3268V47.8627H74.6732ZM60 48.1895H65V45.7778H60V48.1895ZM64.6732 47.8627V46.1046H60.3268V47.8627H64.6732ZM220 45.7778H225V43.366H220V45.7778ZM224.673 45.451V43.6928H220.327V45.451H224.673ZM215 45.7778H220V43.366H215V45.7778ZM219.673 45.451V43.6928H215.327V45.451H219.673ZM210 45.7778H215V43.366H210V45.7778ZM214.673 45.451V43.6928H210.327V45.451H214.673ZM110 45.7778H115V43.366H110V45.7778ZM114.673 45.451V43.6928H110.327V45.451H114.673ZM105 45.7778H110V43.366H105V45.7778ZM109.673 45.451V43.6928H105.327V45.451H109.673ZM100 45.7778H105V43.366H100V45.7778ZM104.673 45.451V43.6928H100.327V45.451H104.673ZM90 45.7778H95V43.366H90V45.7778ZM94.6732 45.451V43.6928H90.3268V45.451H94.6732ZM75 45.7778H80V43.366H75V45.7778ZM79.6732 45.451V43.6928H75.3268V45.451H79.6732ZM70 45.7778H75V43.366H70V45.7778ZM74.6732 45.451V43.6928H70.3268V45.451H74.6732ZM60 45.7778H65V43.366H60V45.7778ZM64.6732 45.451V43.6928H60.3268V45.451H64.6732ZM220 43.3725H225V40.9608H220V43.3725ZM224.673 43.0457V41.2876H220.327V43.0457H224.673ZM215 43.3725H220V40.9608H215V43.3725ZM219.673 43.0457V41.2876H215.327V43.0457H219.673ZM110 43.3725H115V40.9608H110V43.3725ZM114.673 43.0457V41.2876H110.327V43.0457H114.673ZM105 43.3725H110V40.9608H105V43.3725ZM109.673 43.0457V41.2876H105.327V43.0457H109.673ZM100 43.3725H105V40.9608H100V43.3725ZM104.673 43.0457V41.2876H100.327V43.0457H104.673ZM90 43.3725H95V40.9608H90V43.3725ZM94.6732 43.0457V41.2876H90.3268V43.0457H94.6732ZM80 43.3725H85V40.9608H80V43.3725ZM84.6732 43.0457V41.2876H80.3268V43.0457H84.6732ZM75 43.3725H80V40.9608H75V43.3725ZM79.6732 43.0457V41.2876H75.3268V43.0457H79.6732ZM70 43.3725H75V40.9608H70V43.3725ZM74.6732 43.0457V41.2876H70.3268V43.0457H74.6732ZM220 40.9608H225V38.549H220V40.9608ZM224.673 40.634V38.8758H220.327V40.634H224.673ZM215 40.9608H220V38.549H215V40.9608ZM219.673 40.634V38.8758H215.327V40.634H219.673ZM110 40.9608H115V38.549H110V40.9608ZM114.673 40.634V38.8758H110.327V40.634H114.673ZM105 40.9608H110V38.549H105V40.9608ZM109.673 40.634V38.8758H105.327V40.634H109.673ZM80 40.9608H85V38.549H80V40.9608ZM84.6732 40.634V38.8758H80.3268V40.634H84.6732ZM75 40.9608H80V38.549H75V40.9608ZM79.6732 40.634V38.8758H75.3268V40.634H79.6732ZM70 40.9608H75V38.549H70V40.9608ZM74.6732 40.634V38.8758H70.3268V40.634H74.6732ZM65 40.9608H70V38.549H65V40.9608ZM69.6732 40.634V38.8758H65.3268V40.634H69.6732ZM220 38.549H225V36.1373H220V38.549ZM224.673 38.2222V36.4641H220.327V38.2222H224.673ZM215 38.549H220V36.1373H215V38.549ZM219.673 38.2222V36.4641H215.327V38.2222H219.673ZM110 38.549H115V36.1373H110V38.549ZM114.673 38.2222V36.4641H110.327V38.2222H114.673ZM105 38.549H110V36.1373H105V38.549ZM109.673 38.2222V36.4641H105.327V38.2222H109.673ZM95 38.549H100V36.1373H95V38.549ZM99.6732 38.2222V36.4641H95.3268V38.2222H99.6732ZM80 38.549H85V36.1373H80V38.549ZM84.6732 38.2222V36.4641H80.3268V38.2222H84.6732ZM75 38.549H80V36.1373H75V38.549ZM79.6732 38.2222V36.4641H75.3268V38.2222H79.6732ZM65 38.549H70V36.1373H65V38.549ZM69.6732 38.2222V36.4641H65.3268V38.2222H69.6732ZM220 36.1438H225V33.732H220V36.1438ZM224.673 35.817V34.0588H220.327V35.817H224.673ZM215 36.1438H220V33.732H215V36.1438ZM219.673 35.817V34.0588H215.327V35.817H219.673ZM110 36.1438H115V33.732H110V36.1438ZM114.673 35.817V34.0588H110.327V35.817H114.673ZM105 36.1438H110V33.732H105V36.1438ZM109.673 35.817V34.0588H105.327V35.817H109.673ZM95 36.1438H100V33.732H95V36.1438ZM99.6732 35.817V34.0588H95.3268V35.817H99.6732ZM80 36.1438H85V33.732H80V36.1438ZM84.6732 35.817V34.0588H80.3268V35.817H84.6732ZM75 36.1438H80V33.732H75V36.1438ZM79.6732 35.817V34.0588H75.3268V35.817H79.6732ZM65 36.1438H70V33.732H65V36.1438ZM69.6732 35.817V34.0588H65.3268V35.817H69.6732ZM110 33.732H115V31.3203H110V33.732ZM114.673 33.4052V31.6471H110.327V33.4052H114.673ZM105 33.732H110V31.3203H105V33.732ZM109.673 33.4052V31.6471H105.327V33.4052H109.673ZM95 33.732H100V31.3203H95V33.732ZM99.6732 33.4052V31.6471H95.3268V33.4052H99.6732ZM80 33.732H85V31.3203H80V33.732ZM84.6732 33.4052V31.6471H80.3268V33.4052H84.6732ZM75 33.732H80V31.3203H75V33.732ZM79.6732 33.4052V31.6471H75.3268V33.4052H79.6732ZM115 31.3203H120V28.9085H115V31.3203ZM119.673 30.9935V29.2353H115.327V30.9935H119.673ZM110 31.3203H115V28.9085H110V31.3203ZM114.673 30.9935V29.2353H110.327V30.9935H114.673ZM100 31.3203H105V28.9085H100V31.3203ZM104.673 30.9935V29.2353H100.327V30.9935H104.673ZM80 31.3203H85V28.9085H80V31.3203ZM84.6732 30.9935V29.2353H80.3268V30.9935H84.6732ZM70 31.3203H75V28.9085H70V31.3203ZM74.6732 30.9935V29.2353H70.3268V30.9935H74.6732ZM115 28.915H120V26.5033H115V28.915ZM119.673 28.5882V26.8301H115.327V28.5882H119.673ZM110 28.915H115V26.5033H110V28.915ZM114.673 28.5882V26.8301H110.327V28.5882H114.673ZM100 28.915H105V26.5033H100V28.915ZM104.673 28.5882V26.8301H100.327V28.5882H104.673ZM85 28.915H90V26.5033H85V28.915ZM89.6732 28.5882V26.8301H85.3268V28.5882H89.6732ZM80 28.915H85V26.5033H80V28.915ZM84.6732 28.5882V26.8301H80.3268V28.5882H84.6732ZM70 28.915H75V26.5033H70V28.915ZM74.6732 28.5882V26.8301H70.3268V28.5882H74.6732ZM115 26.5033H120V24.0915H115V26.5033ZM119.673 26.1765V24.4183H115.327V26.1765H119.673ZM110 26.5033H115V24.0915H110V26.5033ZM114.673 26.1765V24.4183H110.327V26.1765H114.673ZM100 26.5033H105V24.0915H100V26.5033ZM104.673 26.1765V24.4183H100.327V26.1765H104.673ZM85 26.5033H90V24.0915H85V26.5033ZM89.6732 26.1765V24.4183H85.3268V26.1765H89.6732ZM80 26.5033H85V24.0915H80V26.5033ZM84.6732 26.1765V24.4183H80.3268V26.1765H84.6732ZM115 24.0915H120V21.6797H115V24.0915ZM119.673 23.7647V22.0065H115.327V23.7647H119.673ZM105 24.0915H110V21.6797H105V24.0915ZM109.673 23.7647V22.0065H105.327V23.7647H109.673ZM85 24.0915H90V21.6797H85V24.0915ZM89.6732 23.7647V22.0065H85.3268V23.7647H89.6732ZM80 24.0915H85V21.6797H80V24.0915ZM84.6732 23.7647V22.0065H80.3268V23.7647H84.6732ZM75 24.0915H80V21.6797H75V24.0915ZM79.6732 23.7647V22.0065H75.3268V23.7647H79.6732ZM115 21.6863H120V19.2745H115V21.6863ZM119.673 21.3595V19.6013H115.327V21.3595H119.673ZM105 21.6863H110V19.2745H105V21.6863ZM109.673 21.3595V19.6013H105.327V21.3595H109.673ZM85 21.6863H90V19.2745H85V21.6863ZM89.6732 21.3595V19.6013H85.3268V21.3595H89.6732ZM75 21.6863H80V19.2745H75V21.6863ZM79.6732 21.3595V19.6013H75.3268V21.3595H79.6732ZM120 19.2745H125V16.8627H120V19.2745ZM124.673 18.9477V17.1895H120.327V18.9477H124.673ZM115 19.2745H120V16.8627H115V19.2745ZM119.673 18.9477V17.1895H115.327V18.9477H119.673ZM105 19.2745H110V16.8627H105V19.2745ZM109.673 18.9477V17.1895H105.327V18.9477H109.673ZM85 19.2745H90V16.8627H85V19.2745ZM89.6732 18.9477V17.1895H85.3268V18.9477H89.6732ZM80 19.2745H85V16.8627H80V19.2745ZM84.6732 18.9477V17.1895H80.3268V18.9477H84.6732ZM120 16.8693H125V14.4575H120V16.8693ZM124.673 16.5425V14.7843H120.327V16.5425H124.673ZM115 16.8693H120V14.4575H115V16.8693ZM119.673 16.5425V14.7843H115.327V16.5425H119.673ZM110 16.8693H115V14.4575H110V16.8693ZM114.673 16.5425V14.7843H110.327V16.5425H114.673ZM90 16.8693H95V14.4575H90V16.8693ZM94.6732 16.5425V14.7843H90.3268V16.5425H94.6732ZM85 16.8693H90V14.4575H85V16.8693ZM89.6732 16.5425V14.7843H85.3268V16.5425H89.6732ZM80 16.8693H85V14.4575H80V16.8693ZM84.6732 16.5425V14.7843H80.3268V16.5425H84.6732ZM120 14.4575H125V12.0458H120V14.4575ZM124.673 14.1307V12.3725H120.327V14.1307H124.673ZM90 14.4575H95V12.0458H90V14.4575ZM94.6732 14.1307V12.3725H90.3268V14.1307H94.6732ZM85 14.4575H90V12.0458H85V14.4575ZM89.6732 14.1307V12.3725H85.3268V14.1307H89.6732ZM120 12.0458H125V9.63399H120V12.0458ZM124.673 11.719V9.96078H120.327V11.719H124.673ZM115 12.0458H120V9.63399H115V12.0458ZM119.673 11.719V9.96078H115.327V11.719H119.673ZM90 12.0458H95V9.63399H90V12.0458ZM94.6732 11.719V9.96078H90.3268V11.719H94.6732ZM85 12.0458H90V9.63399H85V12.0458ZM89.6732 11.719V9.96078H85.3268V11.719H89.6732ZM125 9.64052H130V7.22876H125V9.64052ZM129.673 9.31373V7.55556H125.327V9.31373H129.673ZM115 9.64052H120V7.22876H115V9.64052ZM119.673 9.31373V7.55556H115.327V9.31373H119.673ZM95 9.64052H100V7.22876H95V9.64052ZM99.6732 9.31373V7.55556H95.3268V9.31373H99.6732ZM90 9.64052H95V7.22876H90V9.64052ZM94.6732 9.31373V7.55556H90.3268V9.31373H94.6732ZM140 7.22876H145V4.81699H140V7.22876ZM144.673 6.90196V5.14379H140.327V6.90196H144.673ZM135 7.22876H140V4.81699H135V7.22876ZM139.673 6.90196V5.14379H135.327V6.90196H139.673ZM130 7.22876H135V4.81699H130V7.22876ZM134.673 6.90196V5.14379H130.327V6.90196H134.673ZM125 7.22876H130V4.81699H125V7.22876ZM129.673 6.90196V5.14379H125.327V6.90196H129.673ZM120 7.22876H125V4.81699H120V7.22876ZM124.673 6.90196V5.14379H120.327V6.90196H124.673ZM95 7.22876H100V4.81699H95V7.22876ZM99.6732 6.90196V5.14379H95.3268V6.90196H99.6732ZM90 7.22876H95V4.81699H90V7.22876ZM94.6732 6.90196V5.14379H90.3268V6.90196H94.6732ZM140 4.81699H145V2.40523H140V4.81699ZM144.673 4.4902V2.73203H140.327V4.4902H144.673ZM135 4.81699H140V2.40523H135V4.81699ZM139.673 4.4902V2.73203H135.327V4.4902H139.673ZM130 4.81699H135V2.40523H130V4.81699ZM134.673 4.4902V2.73203H130.327V4.4902H134.673ZM125 4.81699H130V2.40523H125V4.81699ZM129.673 4.4902V2.73203H125.327V4.4902H129.673ZM100 4.81699H105V2.40523H100V4.81699ZM104.673 4.4902V2.73203H100.327V4.4902H104.673ZM95 4.81699H100V2.40523H95V4.81699ZM99.6732 4.4902V2.73203H95.3268V4.4902H99.6732ZM140 2.41176H145V0H140V2.41176ZM144.673 2.08497V0.326797H140.327V2.08497H144.673ZM135 2.41176H140V0H135V2.41176ZM139.673 2.08497V0.326797H135.327V2.08497H139.673ZM130 2.41176H135V0H130V2.41176ZM134.673 2.08497V0.326797H130.327V2.08497H134.673ZM100 2.41176H105V0H100V2.41176ZM104.673 2.08497V0.326797H100.327V2.08497H104.673Z" fill="var(--fill-0, #0000FF)"/>
</svg>
