<svg preserveAspectRatio="none" width="100%" height="100%" overflow="visible" style="display: block;" viewBox="0 0 1246 517.063" fill="none" xmlns="http://www.w3.org/2000/svg">
<path id="Vector" d="M986.417 508.715H1003.72V517.063H986.417V508.715ZM1002.59 515.909V509.824H987.548V515.909H1002.59ZM969.111 517.04H986.417V508.693H969.111V517.04ZM985.286 515.909V509.824H970.242V515.909H985.286ZM951.806 517.04H969.111V508.693H951.806V517.04ZM967.98 515.909V509.824H952.937V515.909H967.98ZM328.806 517.04H346.111V508.693H328.806V517.04ZM344.98 515.909V509.824H329.937V515.909H344.98ZM311.5 517.04H328.806V508.693H311.5V517.04ZM327.674 515.909V509.824H312.631V515.909H327.674ZM294.194 517.04H311.5V508.693H294.194V517.04ZM310.369 515.909V509.824H295.326V515.909H310.369ZM1021.03 508.715H1038.33V500.368H1021.03V508.715ZM1037.2 507.584V501.499H1022.16V507.584H1037.2ZM1003.72 508.715H1021.03V500.368H1003.72V508.715ZM1019.9 507.584V501.499H1004.85V507.584H1019.9ZM951.806 508.715H969.111V500.368H951.806V508.715ZM967.98 507.584V501.499H952.937V507.584H967.98ZM934.5 508.715H951.806V500.368H934.5V508.715ZM950.674 507.584V501.499H935.631V507.584H950.674ZM363.417 508.715H380.722V500.368H363.417V508.715ZM379.591 507.584V501.499H364.548V507.584H379.591ZM346.111 508.715H363.417V500.368H346.111V508.715ZM362.286 507.584V501.499H347.242V507.584H362.286ZM294.194 508.715H311.5V500.368H294.194V508.715ZM310.369 507.584V501.499H295.326V507.584H310.369ZM276.889 508.715H294.194V500.368H276.889V508.715ZM293.063 507.584V501.499H278.02V507.584H293.063ZM1021.03 500.368H1038.33V492.021H1021.03V500.368ZM1037.2 499.237V493.152H1022.16V499.237H1037.2ZM1003.72 500.368H1021.03V492.021H1003.72V500.368ZM1019.9 499.237V493.152H1004.85V499.237H1019.9ZM951.806 500.368H969.111V492.021H951.806V500.368ZM967.98 499.237V493.152H952.937V499.237H967.98ZM934.5 500.368H951.806V492.021H934.5V500.368ZM950.674 499.237V493.152H935.631V499.237H950.674ZM917.194 500.368H934.5V492.021H917.194V500.368ZM933.369 499.237V493.152H918.326V499.237H933.369ZM380.722 500.368H398.028V492.021H380.722V500.368ZM396.897 499.237V493.152H381.853V499.237H396.897ZM363.417 500.368H380.722V492.021H363.417V500.368ZM379.591 499.237V493.152H364.548V499.237H379.591ZM294.194 500.368H311.5V492.021H294.194V500.368ZM310.369 499.237V493.152H295.326V499.237H310.369ZM276.889 500.368H294.194V492.021H276.889V500.368ZM293.063 499.237V493.152H278.02V499.237H293.063ZM1038.33 492.021H1055.64V483.673H1038.33V492.021ZM1054.51 490.89V484.804H1039.46V490.89H1054.51ZM1021.03 492.021H1038.33V483.673H1021.03V492.021ZM1037.2 490.89V484.804H1022.16V490.89H1037.2ZM934.5 492.021H951.806V483.673H934.5V492.021ZM950.674 490.89V484.804H935.631V490.89H950.674ZM917.194 492.021H934.5V483.673H917.194V492.021ZM933.369 490.89V484.804H918.326V490.89H933.369ZM380.722 492.021H398.028V483.673H380.722V492.021ZM396.897 490.89V484.804H381.853V490.89H396.897ZM363.417 492.021H380.722V483.673H363.417V492.021ZM379.591 490.89V484.804H364.548V490.89H379.591ZM276.889 492.021H294.194V483.673H276.889V492.021ZM293.063 490.89V484.804H278.02V490.89H293.063ZM259.583 492.021H276.889V483.673H259.583V492.021ZM275.758 490.89V484.804H260.714V490.89H275.758ZM1038.33 483.696H1055.64V475.349H1038.33V483.696ZM1054.51 482.565V476.48H1039.46V482.565H1054.51ZM1021.03 483.696H1038.33V475.349H1021.03V483.696ZM1037.2 482.565V476.48H1022.16V482.565H1037.2ZM934.5 483.696H951.806V475.349H934.5V483.696ZM950.674 482.565V476.48H935.631V482.565H950.674ZM917.194 483.696H934.5V475.349H917.194V483.696ZM933.369 482.565V476.48H918.326V482.565H933.369ZM380.722 483.696H398.028V475.349H380.722V483.696ZM396.897 482.565V476.48H381.853V482.565H396.897ZM363.417 483.696H380.722V475.349H363.417V483.696ZM379.591 482.565V476.48H364.548V482.565H379.591ZM276.889 483.696H294.194V475.349H276.889V483.696ZM293.063 482.565V476.48H278.02V482.565H293.063ZM259.583 483.696H276.889V475.349H259.583V483.696ZM275.758 482.565V476.48H260.714V482.565H275.758ZM1055.64 475.349H1072.94V467.001H1055.64V475.349ZM1071.81 474.217V468.132H1056.77V474.217H1071.81ZM1038.33 475.349H1055.64V467.001H1038.33V475.349ZM1054.51 474.217V468.132H1039.46V474.217H1054.51ZM934.5 475.349H951.806V467.001H934.5V475.349ZM950.674 474.217V468.132H935.631V474.217H950.674ZM917.194 475.349H934.5V467.001H917.194V475.349ZM933.369 474.217V468.132H918.326V474.217H933.369ZM398.028 475.349H415.333V467.001H398.028V475.349ZM414.202 474.217V468.132H399.159V474.217H414.202ZM380.722 475.349H398.028V467.001H380.722V475.349ZM396.897 474.217V468.132H381.853V474.217H396.897ZM276.889 475.349H294.194V467.001H276.889V475.349ZM293.063 474.217V468.132H278.02V474.217H293.063ZM259.583 475.349H276.889V467.001H259.583V475.349ZM275.758 474.217V468.132H260.714V474.217H275.758ZM1055.64 467.001H1072.94V458.654H1055.64V467.001ZM1071.81 465.87V459.785H1056.77V465.87H1071.81ZM1038.33 467.001H1055.64V458.654H1038.33V467.001ZM1054.51 465.87V459.785H1039.46V465.87H1054.51ZM934.5 467.001H951.806V458.654H934.5V467.001ZM950.674 465.87V459.785H935.631V465.87H950.674ZM917.194 467.001H934.5V458.654H917.194V467.001ZM933.369 465.87V459.785H918.326V465.87H933.369ZM398.028 467.001H415.333V458.654H398.028V467.001ZM414.202 465.87V459.785H399.159V465.87H414.202ZM380.722 467.001H398.028V458.654H380.722V467.001ZM396.897 465.87V459.785H381.853V465.87H396.897ZM276.889 467.001H294.194V458.654H276.889V467.001ZM293.063 465.87V459.785H278.02V465.87H293.063ZM259.583 467.001H276.889V458.654H259.583V467.001ZM275.758 465.87V459.785H260.714V465.87H275.758ZM1072.94 458.676H1090.25V450.329H1072.94V458.676ZM1089.12 457.545V451.46H1074.08V457.545H1089.12ZM1055.64 458.676H1072.94V450.329H1055.64V458.676ZM1071.81 457.545V451.46H1056.77V457.545H1071.81ZM1038.33 458.676H1055.64V450.329H1038.33V458.676ZM1054.51 457.545V451.46H1039.46V457.545H1054.51ZM934.5 458.676H951.806V450.329H934.5V458.676ZM950.674 457.545V451.46H935.631V457.545H950.674ZM917.194 458.676H934.5V450.329H917.194V458.676ZM933.369 457.545V451.46H918.326V457.545H933.369ZM415.333 458.676H432.639V450.329H415.333V458.676ZM431.508 457.545V451.46H416.464V457.545H431.508ZM398.028 458.676H415.333V450.329H398.028V458.676ZM414.202 457.545V451.46H399.159V457.545H414.202ZM276.889 458.676H294.194V450.329H276.889V458.676ZM293.063 457.545V451.46H278.02V457.545H293.063ZM259.583 458.676H276.889V450.329H259.583V458.676ZM275.758 457.545V451.46H260.714V457.545H275.758ZM1072.94 450.329H1090.25V441.982H1072.94V450.329ZM1089.12 449.198V443.113H1074.08V449.198H1089.12ZM1055.64 450.329H1072.94V441.982H1055.64V450.329ZM1071.81 449.198V443.113H1056.77V449.198H1071.81ZM934.5 450.329H951.806V441.982H934.5V450.329ZM950.674 449.198V443.113H935.631V449.198H950.674ZM917.194 450.329H934.5V441.982H917.194V450.329ZM933.369 449.198V443.113H918.326V449.198H933.369ZM415.333 450.329H432.639V441.982H415.333V450.329ZM431.508 449.198V443.113H416.464V449.198H431.508ZM398.028 450.329H415.333V441.982H398.028V450.329ZM414.202 449.198V443.113H399.159V449.198H414.202ZM276.889 450.329H294.194V441.982H276.889V450.329ZM293.063 449.198V443.113H278.02V449.198H293.063ZM259.583 450.329H276.889V441.982H259.583V450.329ZM275.758 449.198V443.113H260.714V449.198H275.758ZM1072.94 441.982H1090.25V433.634H1072.94V441.982ZM1089.12 440.851V434.765H1074.08V440.851H1089.12ZM1055.64 441.982H1072.94V433.634H1055.64V441.982ZM1071.81 440.851V434.765H1056.77V440.851H1071.81ZM934.5 441.982H951.806V433.634H934.5V441.982ZM950.674 440.851V434.765H935.631V440.851H950.674ZM917.194 441.982H934.5V433.634H917.194V441.982ZM933.369 440.851V434.765H918.326V440.851H933.369ZM415.333 441.982H432.639V433.634H415.333V441.982ZM431.508 440.851V434.765H416.464V440.851H431.508ZM398.028 441.982H415.333V433.634H398.028V441.982ZM414.202 440.851V434.765H399.159V440.851H414.202ZM276.889 441.982H294.194V433.634H276.889V441.982ZM293.063 440.851V434.765H278.02V440.851H293.063ZM259.583 441.982H276.889V433.634H259.583V441.982ZM275.758 440.851V434.765H260.714V440.851H275.758ZM1090.25 433.657H1107.56V425.309H1090.25V433.657ZM1106.42 432.526V426.441H1091.38V432.526H1106.42ZM1072.94 433.657H1090.25V425.309H1072.94V433.657ZM1089.12 432.526V426.441H1074.08V432.526H1089.12ZM1055.64 433.657H1072.94V425.309H1055.64V433.657ZM1071.81 432.526V426.441H1056.77V432.526H1071.81ZM934.5 433.657H951.806V425.309H934.5V433.657ZM950.674 432.526V426.441H935.631V432.526H950.674ZM917.194 433.657H934.5V425.309H917.194V433.657ZM933.369 432.526V426.441H918.326V432.526H933.369ZM432.639 433.657H449.944V425.309H432.639V433.657ZM448.813 432.526V426.441H433.77V432.526H448.813ZM415.333 433.657H432.639V425.309H415.333V433.657ZM431.508 432.526V426.441H416.464V432.526H431.508ZM276.889 433.657H294.194V425.309H276.889V433.657ZM293.063 432.526V426.441H278.02V432.526H293.063ZM259.583 433.657H276.889V425.309H259.583V433.657ZM275.758 432.526V426.441H260.714V432.526H275.758ZM1090.25 425.309H1107.56V416.962H1090.25V425.309ZM1106.42 424.178V418.093H1091.38V424.178H1106.42ZM1072.94 425.309H1090.25V416.962H1072.94V425.309ZM1089.12 424.178V418.093H1074.08V424.178H1089.12ZM934.5 425.309H951.806V416.962H934.5V425.309ZM950.674 424.178V418.093H935.631V424.178H950.674ZM917.194 425.309H934.5V416.962H917.194V425.309ZM933.369 424.178V418.093H918.326V424.178H933.369ZM432.639 425.309H449.944V416.962H432.639V425.309ZM448.813 424.178V418.093H433.77V424.178H448.813ZM415.333 425.309H432.639V416.962H415.333V425.309ZM431.508 424.178V418.093H416.464V424.178H431.508ZM276.889 425.309H294.194V416.962H276.889V425.309ZM293.063 424.178V418.093H278.02V424.178H293.063ZM259.583 425.309H276.889V416.962H259.583V425.309ZM275.758 424.178V418.093H260.714V424.178H275.758ZM1090.25 416.962H1107.56V408.615H1090.25V416.962ZM1106.42 415.831V409.746H1091.38V415.831H1106.42ZM1072.94 416.962H1090.25V408.615H1072.94V416.962ZM1089.12 415.831V409.746H1074.08V415.831H1089.12ZM934.5 416.962H951.806V408.615H934.5V416.962ZM950.674 415.831V409.746H935.631V415.831H950.674ZM917.194 416.962H934.5V408.615H917.194V416.962ZM933.369 415.831V409.746H918.326V415.831H933.369ZM432.639 416.962H449.944V408.615H432.639V416.962ZM448.813 415.831V409.746H433.77V415.831H448.813ZM415.333 416.962H432.639V408.615H415.333V416.962ZM431.508 415.831V409.746H416.464V415.831H431.508ZM276.889 416.962H294.194V408.615H276.889V416.962ZM293.063 415.831V409.746H278.02V415.831H293.063ZM259.583 416.962H276.889V408.615H259.583V416.962ZM275.758 415.831V409.746H260.714V415.831H275.758ZM1090.25 408.637H1107.56V400.29H1090.25V408.637ZM1106.42 407.506V401.421H1091.38V407.506H1106.42ZM1072.94 408.637H1090.25V400.29H1072.94V408.637ZM1089.12 407.506V401.421H1074.08V407.506H1089.12ZM951.806 408.637H969.111V400.29H951.806V408.637ZM967.98 407.506V401.421H952.937V407.506H967.98ZM934.5 408.637H951.806V400.29H934.5V408.637ZM950.674 407.506V401.421H935.631V407.506H950.674ZM917.194 408.637H934.5V400.29H917.194V408.637ZM933.369 407.506V401.421H918.326V407.506H933.369ZM432.639 408.637H449.944V400.29H432.639V408.637ZM448.813 407.506V401.421H433.77V407.506H448.813ZM415.333 408.637H432.639V400.29H415.333V408.637ZM431.508 407.506V401.421H416.464V407.506H431.508ZM294.194 408.637H311.5V400.29H294.194V408.637ZM310.369 407.506V401.421H295.326V407.506H310.369ZM276.889 408.637H294.194V400.29H276.889V408.637ZM293.063 407.506V401.421H278.02V407.506H293.063ZM1107.56 400.29H1124.86V391.943H1107.56V400.29ZM1123.73 399.159V393.074H1108.69V399.159H1123.73ZM1090.25 400.29H1107.56V391.943H1090.25V400.29ZM1106.42 399.159V393.074H1091.38V399.159H1106.42ZM1072.94 400.29H1090.25V391.943H1072.94V400.29ZM1089.12 399.159V393.074H1074.08V399.159H1089.12ZM969.111 400.29H986.417V391.943H969.111V400.29ZM985.286 399.159V393.074H970.242V399.159H985.286ZM951.806 400.29H969.111V391.943H951.806V400.29ZM967.98 399.159V393.074H952.937V399.159H967.98ZM449.944 400.29H467.25V391.943H449.944V400.29ZM466.119 399.159V393.074H451.076V399.159H466.119ZM432.639 400.29H449.944V391.943H432.639V400.29ZM448.813 399.159V393.074H433.77V399.159H448.813ZM311.5 400.29H328.806V391.943H311.5V400.29ZM327.674 399.159V393.074H312.631V399.159H327.674ZM294.194 400.29H311.5V391.943H294.194V400.29ZM310.369 399.159V393.074H295.326V399.159H310.369ZM1107.56 391.965H1124.86V383.618H1107.56V391.965ZM1123.73 390.834V384.749H1108.69V390.834H1123.73ZM1090.25 391.965H1107.56V383.618H1090.25V391.965ZM1106.42 390.834V384.749H1091.38V390.834H1106.42ZM449.944 391.965H467.25V383.618H449.944V391.965ZM466.119 390.834V384.749H451.076V390.834H466.119ZM432.639 391.965H449.944V383.618H432.639V391.965ZM448.813 390.834V384.749H433.77V390.834H448.813ZM1107.56 383.618H1124.86V375.27H1107.56V383.618ZM1123.73 382.487V376.401H1108.69V382.487H1123.73ZM1090.25 383.618H1107.56V375.27H1090.25V383.618ZM1106.42 382.487V376.401H1091.38V382.487H1106.42ZM449.944 383.618H467.25V375.27H449.944V383.618ZM466.119 382.487V376.401H451.076V382.487H466.119ZM432.639 383.618H449.944V375.27H432.639V383.618ZM448.813 382.487V376.401H433.77V382.487H448.813ZM1124.86 375.27H1142.17V366.923H1124.86V375.27ZM1141.04 374.139V368.054H1125.99V374.139H1141.04ZM1107.56 375.27H1124.86V366.923H1107.56V375.27ZM1123.73 374.139V368.054H1108.69V374.139H1123.73ZM1090.25 375.27H1107.56V366.923H1090.25V375.27ZM1106.42 374.139V368.054H1091.38V374.139H1106.42ZM1038.33 375.27H1055.64V366.923H1038.33V375.27ZM1054.51 374.139V368.054H1039.46V374.139H1054.51ZM813.361 375.27H830.667V366.923H813.361V375.27ZM829.536 374.139V368.054H814.492V374.139H829.536ZM796.056 375.27H813.361V366.923H796.056V375.27ZM812.23 374.139V368.054H797.187V374.139H812.23ZM692.222 375.27H709.528V366.923H692.222V375.27ZM708.397 374.139V368.054H693.353V374.139H708.397ZM588.389 375.27H605.694V366.923H588.389V375.27ZM604.563 374.139V368.054H589.52V374.139H604.563ZM571.083 375.27H588.389V366.923H571.083V375.27ZM587.258 374.139V368.054H572.214V374.139H587.258ZM553.778 375.27H571.083V366.923H553.778V375.27ZM569.952 374.139V368.054H554.909V374.139H569.952ZM467.25 375.27H484.556V366.923H467.25V375.27ZM483.424 374.139V368.054H468.381V374.139H483.424ZM449.944 375.27H467.25V366.923H449.944V375.27ZM466.119 374.139V368.054H451.076V374.139H466.119ZM432.639 375.27H449.944V366.923H432.639V375.27ZM448.813 374.139V368.054H433.77V374.139H448.813ZM1142.17 366.946H1159.47V358.598H1142.17V366.946ZM1158.34 365.815V359.729H1143.3V365.815H1158.34ZM1124.86 366.946H1142.17V358.598H1124.86V366.946ZM1141.04 365.815V359.729H1125.99V365.815H1141.04ZM1107.56 366.946H1124.86V358.598H1107.56V366.946ZM1123.73 365.815V359.729H1108.69V365.815H1123.73ZM1090.25 366.946H1107.56V358.598H1090.25V366.946ZM1106.42 365.815V359.729H1091.38V365.815H1106.42ZM1055.64 366.946H1072.94V358.598H1055.64V366.946ZM1071.81 365.815V359.729H1056.77V365.815H1071.81ZM1038.33 366.946H1055.64V358.598H1038.33V366.946ZM1054.51 365.815V359.729H1039.46V365.815H1054.51ZM899.889 366.946H917.194V358.598H899.889V366.946ZM916.063 365.815V359.729H901.02V365.815H916.063ZM882.583 366.946H899.889V358.598H882.583V366.946ZM898.758 365.815V359.729H883.714V365.815H898.758ZM830.667 366.946H847.972V358.598H830.667V366.946ZM846.841 365.815V359.729H831.798V365.815H846.841ZM813.361 366.946H830.667V358.598H813.361V366.946ZM829.536 365.815V359.729H814.492V365.815H829.536ZM796.056 366.946H813.361V358.598H796.056V366.946ZM812.23 365.815V359.729H797.187V365.815H812.23ZM778.75 366.946H796.056V358.598H778.75V366.946ZM794.924 365.815V359.729H779.881V365.815H794.924ZM709.528 366.946H726.833V358.598H709.528V366.946ZM725.702 365.815V359.729H710.659V365.815H725.702ZM692.222 366.946H709.528V358.598H692.222V366.946ZM708.397 365.815V359.729H693.353V365.815H708.397ZM674.917 366.946H692.222V358.598H674.917V366.946ZM691.091 365.815V359.729H676.048V365.815H691.091ZM605.694 366.946H623V358.598H605.694V366.946ZM621.869 365.815V359.729H606.826V365.815H621.869ZM588.389 366.946H605.694V358.598H588.389V366.946ZM604.563 365.815V359.729H589.52V365.815H604.563ZM571.083 366.946H588.389V358.598H571.083V366.946ZM587.258 365.815V359.729H572.214V365.815H587.258ZM553.778 366.946H571.083V358.598H553.778V366.946ZM569.952 365.815V359.729H554.909V365.815H569.952ZM536.472 366.946H553.778V358.598H536.472V366.946ZM552.647 365.815V359.729H537.603V365.815H552.647ZM484.556 366.946H501.861V358.598H484.556V366.946ZM500.73 365.815V359.729H485.687V365.815H500.73ZM467.25 366.946H484.556V358.598H467.25V366.946ZM483.424 365.815V359.729H468.381V365.815H483.424ZM449.944 366.946H467.25V358.598H449.944V366.946ZM466.119 365.815V359.729H451.076V365.815H466.119ZM432.639 366.946H449.944V358.598H432.639V366.946ZM448.813 365.815V359.729H433.77V365.815H448.813ZM398.028 366.946H415.333V358.598H398.028V366.946ZM414.202 365.815V359.729H399.159V365.815H414.202ZM380.722 366.946H398.028V358.598H380.722V366.946ZM396.897 365.815V359.729H381.853V365.815H396.897ZM276.889 366.946H294.194V358.598H276.889V366.946ZM293.063 365.815V359.729H278.02V365.815H293.063ZM259.583 366.946H276.889V358.598H259.583V366.946ZM275.758 365.815V359.729H260.714V365.815H275.758ZM242.278 366.946H259.583V358.598H242.278V366.946ZM258.452 365.815V359.729H243.409V365.815H258.452ZM224.972 366.946H242.278V358.598H224.972V366.946ZM241.147 365.815V359.729H226.103V365.815H241.147ZM173.056 366.946H190.361V358.598H173.056V366.946ZM189.23 365.815V359.729H174.187V365.815H189.23ZM69.2222 366.946H86.5278V358.598H69.2222V366.946ZM85.3967 365.815V359.729H70.3533V365.815H85.3967ZM51.9167 366.946H69.2222V358.598H51.9167V366.946ZM68.0911 365.815V359.729H53.0477V365.815H68.0911ZM34.6111 366.946H51.9167V358.598H34.6111V366.946ZM50.7856 365.815V359.729H35.7422V365.815H50.7856ZM1142.17 358.598H1159.47V350.251H1142.17V358.598ZM1158.34 357.467V351.382H1143.3V357.467H1158.34ZM1124.86 358.598H1142.17V350.251H1124.86V358.598ZM1141.04 357.467V351.382H1125.99V357.467H1141.04ZM1107.56 358.598H1124.86V350.251H1107.56V358.598ZM1123.73 357.467V351.382H1108.69V357.467H1123.73ZM1090.25 358.598H1107.56V350.251H1090.25V358.598ZM1106.42 357.467V351.382H1091.38V357.467H1106.42ZM1072.94 358.598H1090.25V350.251H1072.94V358.598ZM1089.12 357.467V351.382H1074.08V357.467H1089.12ZM1055.64 358.598H1072.94V350.251H1055.64V358.598ZM1071.81 357.467V351.382H1056.77V357.467H1071.81ZM1038.33 358.598H1055.64V350.251H1038.33V358.598ZM1054.51 357.467V351.382H1039.46V357.467H1054.51ZM899.889 358.598H917.194V350.251H899.889V358.598ZM916.063 357.467V351.382H901.02V357.467H916.063ZM882.583 358.598H899.889V350.251H882.583V358.598ZM898.758 357.467V351.382H883.714V357.467H898.758ZM847.972 358.598H865.278V350.251H847.972V358.598ZM864.147 357.467V351.382H849.103V357.467H864.147ZM830.667 358.598H847.972V350.251H830.667V358.598ZM846.841 357.467V351.382H831.798V357.467H846.841ZM813.361 358.598H830.667V350.251H813.361V358.598ZM829.536 357.467V351.382H814.492V357.467H829.536ZM796.056 358.598H813.361V350.251H796.056V358.598ZM812.23 357.467V351.382H797.187V357.467H812.23ZM778.75 358.598H796.056V350.251H778.75V358.598ZM794.924 357.467V351.382H779.881V357.467H794.924ZM709.528 358.598H726.833V350.251H709.528V358.598ZM725.702 357.467V351.382H710.659V357.467H725.702ZM692.222 358.598H709.528V350.251H692.222V358.598ZM708.397 357.467V351.382H693.353V357.467H708.397ZM674.917 358.598H692.222V350.251H674.917V358.598ZM691.091 357.467V351.382H676.048V357.467H691.091ZM605.694 358.598H623V350.251H605.694V358.598ZM621.869 357.467V351.382H606.826V357.467H621.869ZM588.389 358.598H605.694V350.251H588.389V358.598ZM604.563 357.467V351.382H589.52V357.467H604.563ZM536.472 358.598H553.778V350.251H536.472V358.598ZM552.647 357.467V351.382H537.603V357.467H552.647ZM484.556 358.598H501.861V350.251H484.556V358.598ZM500.73 357.467V351.382H485.687V357.467H500.73ZM467.25 358.598H484.556V350.251H467.25V358.598ZM483.424 357.467V351.382H468.381V357.467H483.424ZM449.944 358.598H467.25V350.251H449.944V358.598ZM466.119 357.467V351.382H451.076V357.467H466.119ZM415.333 358.598H432.639V350.251H415.333V358.598ZM431.508 357.467V351.382H416.464V357.467H431.508ZM398.028 358.598H415.333V350.251H398.028V358.598ZM414.202 357.467V351.382H399.159V357.467H414.202ZM380.722 358.598H398.028V350.251H380.722V358.598ZM396.897 357.467V351.382H381.853V357.467H396.897ZM311.5 358.598H328.806V350.251H311.5V358.598ZM327.674 357.467V351.382H312.631V357.467H327.674ZM294.194 358.598H311.5V350.251H294.194V358.598ZM310.369 357.467V351.382H295.326V357.467H310.369ZM276.889 358.598H294.194V350.251H276.889V358.598ZM293.063 357.467V351.382H278.02V357.467H293.063ZM259.583 358.598H276.889V350.251H259.583V358.598ZM275.758 357.467V351.382H260.714V357.467H275.758ZM242.278 358.598H259.583V350.251H242.278V358.598ZM258.452 357.467V351.382H243.409V357.467H258.452ZM224.972 358.598H242.278V350.251H224.972V358.598ZM241.147 357.467V351.382H226.103V357.467H241.147ZM173.056 358.598H190.361V350.251H173.056V358.598ZM189.23 357.467V351.382H174.187V357.467H189.23ZM69.2222 358.598H86.5278V350.251H69.2222V358.598ZM85.3967 357.467V351.382H70.3533V357.467H85.3967ZM51.9167 358.598H69.2222V350.251H51.9167V358.598ZM68.0911 357.467V351.382H53.0477V357.467H68.0911ZM34.6111 358.598H51.9167V350.251H34.6111V358.598ZM50.7856 357.467V351.382H35.7422V357.467H50.7856ZM17.3056 358.598H34.6111V350.251H17.3056V358.598ZM33.48 357.467V351.382H18.4366V357.467H33.48ZM1142.17 350.251H1159.47V341.903H1142.17V350.251ZM1158.34 349.12V343.035H1143.3V349.12H1158.34ZM1124.86 350.251H1142.17V341.903H1124.86V350.251ZM1141.04 349.12V343.035H1125.99V349.12H1141.04ZM1107.56 350.251H1124.86V341.903H1107.56V350.251ZM1123.73 349.12V343.035H1108.69V349.12H1123.73ZM1072.94 350.251H1090.25V341.903H1072.94V350.251ZM1089.12 349.12V343.035H1074.08V349.12H1089.12ZM1055.64 350.251H1072.94V341.903H1055.64V350.251ZM1071.81 349.12V343.035H1056.77V349.12H1071.81ZM1038.33 350.251H1055.64V341.903H1038.33V350.251ZM1054.51 349.12V343.035H1039.46V349.12H1054.51ZM899.889 350.251H917.194V341.903H899.889V350.251ZM916.063 349.12V343.035H901.02V349.12H916.063ZM882.583 350.251H899.889V341.903H882.583V350.251ZM898.758 349.12V343.035H883.714V349.12H898.758ZM847.972 350.251H865.278V341.903H847.972V350.251ZM864.147 349.12V343.035H849.103V349.12H864.147ZM830.667 350.251H847.972V341.903H830.667V350.251ZM846.841 349.12V343.035H831.798V349.12H846.841ZM813.361 350.251H830.667V341.903H813.361V350.251ZM829.536 349.12V343.035H814.492V349.12H829.536ZM796.056 350.251H813.361V341.903H796.056V350.251ZM812.23 349.12V343.035H797.187V349.12H812.23ZM778.75 350.251H796.056V341.903H778.75V350.251ZM794.924 349.12V343.035H779.881V349.12H794.924ZM726.833 350.251H744.139V341.903H726.833V350.251ZM743.008 349.12V343.035H727.964V349.12H743.008ZM709.528 350.251H726.833V341.903H709.528V350.251ZM725.702 349.12V343.035H710.659V349.12H725.702ZM692.222 350.251H709.528V341.903H692.222V350.251ZM708.397 349.12V343.035H693.353V349.12H708.397ZM674.917 350.251H692.222V341.903H674.917V350.251ZM691.091 349.12V343.035H676.048V349.12H691.091ZM623 350.251H640.306V341.903H623V350.251ZM639.174 349.12V343.035H624.131V349.12H639.174ZM605.694 350.251H623V341.903H605.694V350.251ZM621.869 349.12V343.035H606.826V349.12H621.869ZM588.389 350.251H605.694V341.903H588.389V350.251ZM604.563 349.12V343.035H589.52V349.12H604.563ZM536.472 350.251H553.778V341.903H536.472V350.251ZM552.647 349.12V343.035H537.603V349.12H552.647ZM501.861 350.251H519.167V341.903H501.861V350.251ZM518.036 349.12V343.035H502.992V349.12H518.036ZM467.25 350.251H484.556V341.903H467.25V350.251ZM483.424 349.12V343.035H468.381V349.12H483.424ZM449.944 350.251H467.25V341.903H449.944V350.251ZM466.119 349.12V343.035H451.076V349.12H466.119ZM415.333 350.251H432.639V341.903H415.333V350.251ZM431.508 349.12V343.035H416.464V349.12H431.508ZM398.028 350.251H415.333V341.903H398.028V350.251ZM414.202 349.12V343.035H399.159V349.12H414.202ZM380.722 350.251H398.028V341.903H380.722V350.251ZM396.897 349.12V343.035H381.853V349.12H396.897ZM328.806 350.251H346.111V341.903H328.806V350.251ZM344.98 349.12V343.035H329.937V349.12H344.98ZM311.5 350.251H328.806V341.903H311.5V350.251ZM327.674 349.12V343.035H312.631V349.12H327.674ZM294.194 350.251H311.5V341.903H294.194V350.251ZM310.369 349.12V343.035H295.326V349.12H310.369ZM259.583 350.251H276.889V341.903H259.583V350.251ZM275.758 349.12V343.035H260.714V349.12H275.758ZM242.278 350.251H259.583V341.903H242.278V350.251ZM258.452 349.12V343.035H243.409V349.12H258.452ZM224.972 350.251H242.278V341.903H224.972V350.251ZM241.147 349.12V343.035H226.103V349.12H241.147ZM190.361 350.251H207.667V341.903H190.361V350.251ZM206.536 349.12V343.035H191.492V349.12H206.536ZM173.056 350.251H190.361V341.903H173.056V350.251ZM189.23 349.12V343.035H174.187V349.12H189.23ZM86.5278 350.251H103.833V341.903H86.5278V350.251ZM102.702 349.12V343.035H87.6589V349.12H102.702ZM69.2222 350.251H86.5278V341.903H69.2222V350.251ZM85.3967 349.12V343.035H70.3533V349.12H85.3967ZM17.3056 350.251H34.6111V341.903H17.3056V350.251ZM33.48 349.12V343.035H18.4366V349.12H33.48ZM1159.47 341.926H1176.78V333.579H1159.47V341.926ZM1175.65 340.795V334.71H1160.6V340.795H1175.65ZM1124.86 341.926H1142.17V333.579H1124.86V341.926ZM1141.04 340.795V334.71H1125.99V340.795H1141.04ZM1107.56 341.926H1124.86V333.579H1107.56V341.926ZM1123.73 340.795V334.71H1108.69V340.795H1123.73ZM1090.25 341.926H1107.56V333.579H1090.25V341.926ZM1106.42 340.795V334.71H1091.38V340.795H1106.42ZM1038.33 341.926H1055.64V333.579H1038.33V341.926ZM1054.51 340.795V334.71H1039.46V340.795H1054.51ZM1021.03 341.926H1038.33V333.579H1021.03V341.926ZM1037.2 340.795V334.71H1022.16V340.795H1037.2ZM917.194 341.926H934.5V333.579H917.194V341.926ZM933.369 340.795V334.71H918.326V340.795H933.369ZM899.889 341.926H917.194V333.579H899.889V341.926ZM916.063 340.795V334.71H901.02V340.795H916.063ZM882.583 341.926H899.889V333.579H882.583V341.926ZM898.758 340.795V334.71H883.714V340.795H898.758ZM865.278 341.926H882.583V333.579H865.278V341.926ZM881.452 340.795V334.71H866.409V340.795H881.452ZM796.056 341.926H813.361V333.579H796.056V341.926ZM812.23 340.795V334.71H797.187V340.795H812.23ZM778.75 341.926H796.056V333.579H778.75V341.926ZM794.924 340.795V334.71H779.881V340.795H794.924ZM726.833 341.926H744.139V333.579H726.833V341.926ZM743.008 340.795V334.71H727.964V340.795H743.008ZM692.222 341.926H709.528V333.579H692.222V341.926ZM708.397 340.795V334.71H693.353V340.795H708.397ZM674.917 341.926H692.222V333.579H674.917V341.926ZM691.091 340.795V334.71H676.048V340.795H691.091ZM657.611 341.926H674.917V333.579H657.611V341.926ZM673.786 340.795V334.71H658.742V340.795H673.786ZM640.306 341.926H657.611V333.579H640.306V341.926ZM656.48 340.795V334.71H641.437V340.795H656.48ZM605.694 341.926H623V333.579H605.694V341.926ZM621.869 340.795V334.71H606.826V340.795H621.869ZM588.389 341.926H605.694V333.579H588.389V341.926ZM604.563 340.795V334.71H589.52V340.795H604.563ZM536.472 341.926H553.778V333.579H536.472V341.926ZM552.647 340.795V334.71H537.603V340.795H552.647ZM501.861 341.926H519.167V333.579H501.861V341.926ZM518.036 340.795V334.71H502.992V340.795H518.036ZM467.25 341.926H484.556V333.579H467.25V341.926ZM483.424 340.795V334.71H468.381V340.795H483.424ZM449.944 341.926H467.25V333.579H449.944V341.926ZM466.119 340.795V334.71H451.076V340.795H466.119ZM432.639 341.926H449.944V333.579H432.639V341.926ZM448.813 340.795V334.71H433.77V340.795H448.813ZM380.722 341.926H398.028V333.579H380.722V341.926ZM396.897 340.795V334.71H381.853V340.795H396.897ZM346.111 341.926H363.417V333.579H346.111V341.926ZM362.286 340.795V334.71H347.242V340.795H362.286ZM276.889 341.926H294.194V333.579H276.889V341.926ZM293.063 340.795V334.71H278.02V340.795H293.063ZM190.361 341.926H207.667V333.579H190.361V341.926ZM206.536 340.795V334.71H191.492V340.795H206.536ZM103.833 341.926H121.139V333.579H103.833V341.926ZM120.008 340.795V334.71H104.964V340.795H120.008ZM17.3056 341.926H34.6111V333.579H17.3056V341.926ZM33.48 340.795V334.71H18.4366V340.795H33.48ZM0 341.926H17.3056V333.579H0V341.926ZM16.1745 340.795V334.71H1.13108V340.795H16.1745ZM1124.86 333.579H1142.17V325.231H1124.86V333.579ZM1141.04 332.448V326.362H1125.99V332.448H1141.04ZM1107.56 333.579H1124.86V325.231H1107.56V333.579ZM1123.73 332.448V326.362H1108.69V332.448H1123.73ZM1090.25 333.579H1107.56V325.231H1090.25V333.579ZM1106.42 332.448V326.362H1091.38V332.448H1106.42ZM1038.33 333.579H1055.64V325.231H1038.33V333.579ZM1054.51 332.448V326.362H1039.46V332.448H1054.51ZM1021.03 333.579H1038.33V325.231H1021.03V333.579ZM1037.2 332.448V326.362H1022.16V332.448H1037.2ZM917.194 333.579H934.5V325.231H917.194V333.579ZM933.369 332.448V326.362H918.326V332.448H933.369ZM899.889 333.579H917.194V325.231H899.889V333.579ZM916.063 332.448V326.362H901.02V332.448H916.063ZM882.583 333.579H899.889V325.231H882.583V333.579ZM898.758 332.448V326.362H883.714V332.448H898.758ZM865.278 333.579H882.583V325.231H865.278V333.579ZM881.452 332.448V326.362H866.409V332.448H881.452ZM796.056 333.579H813.361V325.231H796.056V333.579ZM812.23 332.448V326.362H797.187V332.448H812.23ZM778.75 333.579H796.056V325.231H778.75V333.579ZM794.924 332.448V326.362H779.881V332.448H794.924ZM744.139 333.579H761.444V325.231H744.139V333.579ZM760.313 332.448V326.362H745.27V332.448H760.313ZM692.222 333.579H709.528V325.231H692.222V333.579ZM708.397 332.448V326.362H693.353V332.448H708.397ZM674.917 333.579H692.222V325.231H674.917V333.579ZM691.091 332.448V326.362H676.048V332.448H691.091ZM657.611 333.579H674.917V325.231H657.611V333.579ZM673.786 332.448V326.362H658.742V332.448H673.786ZM640.306 333.579H657.611V325.231H640.306V333.579ZM656.48 332.448V326.362H641.437V332.448H656.48ZM605.694 333.579H623V325.231H605.694V333.579ZM621.869 332.448V326.362H606.826V332.448H621.869ZM536.472 333.579H553.778V325.231H536.472V333.579ZM552.647 332.448V326.362H537.603V332.448H552.647ZM519.167 333.579H536.472V325.231H519.167V333.579ZM535.341 332.448V326.362H520.298V332.448H535.341ZM467.25 333.579H484.556V325.231H467.25V333.579ZM483.424 332.448V326.362H468.381V332.448H483.424ZM449.944 333.579H467.25V325.231H449.944V333.579ZM466.119 332.448V326.362H451.076V332.448H466.119ZM432.639 333.579H449.944V325.231H432.639V333.579ZM448.813 332.448V326.362H433.77V332.448H448.813ZM398.028 333.579H415.333V325.231H398.028V333.579ZM414.202 332.448V326.362H399.159V332.448H414.202ZM380.722 333.579H398.028V325.231H380.722V333.579ZM396.897 332.448V326.362H381.853V332.448H396.897ZM346.111 333.579H363.417V325.231H346.111V333.579ZM362.286 332.448V326.362H347.242V332.448H362.286ZM294.194 333.579H311.5V325.231H294.194V333.579ZM310.369 332.448V326.362H295.326V332.448H310.369ZM276.889 333.579H294.194V325.231H276.889V333.579ZM293.063 332.448V326.362H278.02V332.448H293.063ZM207.667 333.579H224.972V325.231H207.667V333.579ZM223.841 332.448V326.362H208.798V332.448H223.841ZM190.361 333.579H207.667V325.231H190.361V333.579ZM206.536 332.448V326.362H191.492V332.448H206.536ZM103.833 333.579H121.139V325.231H103.833V333.579ZM120.008 332.448V326.362H104.964V332.448H120.008ZM17.3056 333.579H34.6111V325.231H17.3056V333.579ZM33.48 332.448V326.362H18.4366V332.448H33.48ZM0 333.579H17.3056V325.231H0V333.579ZM16.1745 332.448V326.362H1.13108V332.448H16.1745ZM1176.78 325.231H1194.08V316.884H1176.78V325.231ZM1192.95 324.1V318.015H1177.91V324.1H1192.95ZM1124.86 325.231H1142.17V316.884H1124.86V325.231ZM1141.04 324.1V318.015H1125.99V324.1H1141.04ZM1107.56 325.231H1124.86V316.884H1107.56V325.231ZM1123.73 324.1V318.015H1108.69V324.1H1123.73ZM1090.25 325.231H1107.56V316.884H1090.25V325.231ZM1106.42 324.1V318.015H1091.38V324.1H1106.42ZM1038.33 325.231H1055.64V316.884H1038.33V325.231ZM1054.51 324.1V318.015H1039.46V324.1H1054.51ZM1021.03 325.231H1038.33V316.884H1021.03V325.231ZM1037.2 324.1V318.015H1022.16V324.1H1037.2ZM917.194 325.231H934.5V316.884H917.194V325.231ZM933.369 324.1V318.015H918.326V324.1H933.369ZM899.889 325.231H917.194V316.884H899.889V325.231ZM916.063 324.1V318.015H901.02V324.1H916.063ZM882.583 325.231H899.889V316.884H882.583V325.231ZM898.758 324.1V318.015H883.714V324.1H898.758ZM796.056 325.231H813.361V316.884H796.056V325.231ZM812.23 324.1V318.015H797.187V324.1H812.23ZM778.75 325.231H796.056V316.884H778.75V325.231ZM794.924 324.1V318.015H779.881V324.1H794.924ZM744.139 325.231H761.444V316.884H744.139V325.231ZM760.313 324.1V318.015H745.27V324.1H760.313ZM692.222 325.231H709.528V316.884H692.222V325.231ZM708.397 324.1V318.015H693.353V324.1H708.397ZM674.917 325.231H692.222V316.884H674.917V325.231ZM691.091 324.1V318.015H676.048V324.1H691.091ZM657.611 325.231H674.917V316.884H657.611V325.231ZM673.786 324.1V318.015H658.742V324.1H673.786ZM640.306 325.231H657.611V316.884H640.306V325.231ZM656.48 324.1V318.015H641.437V324.1H656.48ZM605.694 325.231H623V316.884H605.694V325.231ZM621.869 324.1V318.015H606.826V324.1H621.869ZM536.472 325.231H553.778V316.884H536.472V325.231ZM552.647 324.1V318.015H537.603V324.1H552.647ZM519.167 325.231H536.472V316.884H519.167V325.231ZM535.341 324.1V318.015H520.298V324.1H535.341ZM484.556 325.231H501.861V316.884H484.556V325.231ZM500.73 324.1V318.015H485.687V324.1H500.73ZM467.25 325.231H484.556V316.884H467.25V325.231ZM483.424 324.1V318.015H468.381V324.1H483.424ZM449.944 325.231H467.25V316.884H449.944V325.231ZM466.119 324.1V318.015H451.076V324.1H466.119ZM432.639 325.231H449.944V316.884H432.639V325.231ZM448.813 324.1V318.015H433.77V324.1H448.813ZM398.028 325.231H415.333V316.884H398.028V325.231ZM414.202 324.1V318.015H399.159V324.1H414.202ZM380.722 325.231H398.028V316.884H380.722V325.231ZM396.897 324.1V318.015H381.853V324.1H396.897ZM363.417 325.231H380.722V316.884H363.417V325.231ZM379.591 324.1V318.015H364.548V324.1H379.591ZM294.194 325.231H311.5V316.884H294.194V325.231ZM310.369 324.1V318.015H295.326V324.1H310.369ZM276.889 325.231H294.194V316.884H276.889V325.231ZM293.063 324.1V318.015H278.02V324.1H293.063ZM207.667 325.231H224.972V316.884H207.667V325.231ZM223.841 324.1V318.015H208.798V324.1H223.841ZM190.361 325.231H207.667V316.884H190.361V325.231ZM206.536 324.1V318.015H191.492V324.1H206.536ZM103.833 325.231H121.139V316.884H103.833V325.231ZM120.008 324.1V318.015H104.964V324.1H120.008ZM17.3056 325.231H34.6111V316.884H17.3056V325.231ZM33.48 324.1V318.015H18.4366V324.1H33.48ZM0 325.231H17.3056V316.884H0V325.231ZM16.1745 324.1V318.015H1.13108V324.1H16.1745ZM1142.17 316.907H1159.47V308.559H1142.17V316.907ZM1158.34 315.775V309.69H1143.3V315.775H1158.34ZM1124.86 316.907H1142.17V308.559H1124.86V316.907ZM1141.04 315.775V309.69H1125.99V315.775H1141.04ZM1107.56 316.907H1124.86V308.559H1107.56V316.907ZM1123.73 315.775V309.69H1108.69V315.775H1123.73ZM1055.64 316.907H1072.94V308.559H1055.64V316.907ZM1071.81 315.775V309.69H1056.77V315.775H1071.81ZM1038.33 316.907H1055.64V308.559H1038.33V316.907ZM1054.51 315.775V309.69H1039.46V315.775H1054.51ZM917.194 316.907H934.5V308.559H917.194V316.907ZM933.369 315.775V309.69H918.326V315.775H933.369ZM899.889 316.907H917.194V308.559H899.889V316.907ZM916.063 315.775V309.69H901.02V315.775H916.063ZM882.583 316.907H899.889V308.559H882.583V316.907ZM898.758 315.775V309.69H883.714V315.775H898.758ZM796.056 316.907H813.361V308.559H796.056V316.907ZM812.23 315.775V309.69H797.187V315.775H812.23ZM778.75 316.907H796.056V308.559H778.75V316.907ZM794.924 315.775V309.69H779.881V315.775H794.924ZM761.444 316.907H778.75V308.559H761.444V316.907ZM777.619 315.775V309.69H762.576V315.775H777.619ZM692.222 316.907H709.528V308.559H692.222V316.907ZM708.397 315.775V309.69H693.353V315.775H708.397ZM674.917 316.907H692.222V308.559H674.917V316.907ZM691.091 315.775V309.69H676.048V315.775H691.091ZM657.611 316.907H674.917V308.559H657.611V316.907ZM673.786 315.775V309.69H658.742V315.775H673.786ZM623 316.907H640.306V308.559H623V316.907ZM639.174 315.775V309.69H624.131V315.775H639.174ZM605.694 316.907H623V308.559H605.694V316.907ZM621.869 315.775V309.69H606.826V315.775H621.869ZM553.778 316.907H571.083V308.559H553.778V316.907ZM569.952 315.775V309.69H554.909V315.775H569.952ZM536.472 316.907H553.778V308.559H536.472V316.907ZM552.647 315.775V309.69H537.603V315.775H552.647ZM519.167 316.907H536.472V308.559H519.167V316.907ZM535.341 315.775V309.69H520.298V315.775H535.341ZM484.556 316.907H501.861V308.559H484.556V316.907ZM500.73 315.775V309.69H485.687V315.775H500.73ZM467.25 316.907H484.556V308.559H467.25V316.907ZM483.424 315.775V309.69H468.381V315.775H483.424ZM449.944 316.907H467.25V308.559H449.944V316.907ZM466.119 315.775V309.69H451.076V315.775H466.119ZM398.028 316.907H415.333V308.559H398.028V316.907ZM414.202 315.775V309.69H399.159V315.775H414.202ZM380.722 316.907H398.028V308.559H380.722V316.907ZM396.897 315.775V309.69H381.853V315.775H396.897ZM363.417 316.907H380.722V308.559H363.417V316.907ZM379.591 315.775V309.69H364.548V315.775H379.591ZM311.5 316.907H328.806V308.559H311.5V316.907ZM327.674 315.775V309.69H312.631V315.775H327.674ZM294.194 316.907H311.5V308.559H294.194V316.907ZM310.369 315.775V309.69H295.326V315.775H310.369ZM224.972 316.907H242.278V308.559H224.972V316.907ZM241.147 315.775V309.69H226.103V315.775H241.147ZM207.667 316.907H224.972V308.559H207.667V316.907ZM223.841 315.775V309.69H208.798V315.775H223.841ZM190.361 316.907H207.667V308.559H190.361V316.907ZM206.536 315.775V309.69H191.492V315.775H206.536ZM121.139 316.907H138.444V308.559H121.139V316.907ZM137.313 315.775V309.69H122.27V315.775H137.313ZM17.3056 316.907H34.6111V308.559H17.3056V316.907ZM33.48 315.775V309.69H18.4366V315.775H33.48ZM0 316.907H17.3056V308.559H0V316.907ZM16.1745 315.775V309.69H1.13108V315.775H16.1745ZM1194.08 308.559H1211.39V300.212H1194.08V308.559ZM1210.26 307.428V301.343H1195.21V307.428H1210.26ZM1142.17 308.559H1159.47V300.212H1142.17V308.559ZM1158.34 307.428V301.343H1143.3V307.428H1158.34ZM1124.86 308.559H1142.17V300.212H1124.86V308.559ZM1141.04 307.428V301.343H1125.99V307.428H1141.04ZM1107.56 308.559H1124.86V300.212H1107.56V308.559ZM1123.73 307.428V301.343H1108.69V307.428H1123.73ZM1055.64 308.559H1072.94V300.212H1055.64V308.559ZM1071.81 307.428V301.343H1056.77V307.428H1071.81ZM1038.33 308.559H1055.64V300.212H1038.33V308.559ZM1054.51 307.428V301.343H1039.46V307.428H1054.51ZM917.194 308.559H934.5V300.212H917.194V308.559ZM933.369 307.428V301.343H918.326V307.428H933.369ZM899.889 308.559H917.194V300.212H899.889V308.559ZM916.063 307.428V301.343H901.02V307.428H916.063ZM796.056 308.559H813.361V300.212H796.056V308.559ZM812.23 307.428V301.343H797.187V307.428H812.23ZM778.75 308.559H796.056V300.212H778.75V308.559ZM794.924 307.428V301.343H779.881V307.428H794.924ZM761.444 308.559H778.75V300.212H761.444V308.559ZM777.619 307.428V301.343H762.576V307.428H777.619ZM692.222 308.559H709.528V300.212H692.222V308.559ZM708.397 307.428V301.343H693.353V307.428H708.397ZM674.917 308.559H692.222V300.212H674.917V308.559ZM691.091 307.428V301.343H676.048V307.428H691.091ZM657.611 308.559H674.917V300.212H657.611V308.559ZM673.786 307.428V301.343H658.742V307.428H673.786ZM623 308.559H640.306V300.212H623V308.559ZM639.174 307.428V301.343H624.131V307.428H639.174ZM605.694 308.559H623V300.212H605.694V308.559ZM621.869 307.428V301.343H606.826V307.428H621.869ZM553.778 308.559H571.083V300.212H553.778V308.559ZM569.952 307.428V301.343H554.909V307.428H569.952ZM536.472 308.559H553.778V300.212H536.472V308.559ZM552.647 307.428V301.343H537.603V307.428H552.647ZM519.167 308.559H536.472V300.212H519.167V308.559ZM535.341 307.428V301.343H520.298V307.428H535.341ZM484.556 308.559H501.861V300.212H484.556V308.559ZM500.73 307.428V301.343H485.687V307.428H500.73ZM467.25 308.559H484.556V300.212H467.25V308.559ZM483.424 307.428V301.343H468.381V307.428H483.424ZM449.944 308.559H467.25V300.212H449.944V308.559ZM466.119 307.428V301.343H451.076V307.428H466.119ZM398.028 308.559H415.333V300.212H398.028V308.559ZM414.202 307.428V301.343H399.159V307.428H414.202ZM380.722 308.559H398.028V300.212H380.722V308.559ZM396.897 307.428V301.343H381.853V307.428H396.897ZM311.5 308.559H328.806V300.212H311.5V308.559ZM327.674 307.428V301.343H312.631V307.428H327.674ZM294.194 308.559H311.5V300.212H294.194V308.559ZM310.369 307.428V301.343H295.326V307.428H310.369ZM224.972 308.559H242.278V300.212H224.972V308.559ZM241.147 307.428V301.343H226.103V307.428H241.147ZM207.667 308.559H224.972V300.212H207.667V308.559ZM223.841 307.428V301.343H208.798V307.428H223.841ZM190.361 308.559H207.667V300.212H190.361V308.559ZM206.536 307.428V301.343H191.492V307.428H206.536ZM121.139 308.559H138.444V300.212H121.139V308.559ZM137.313 307.428V301.343H122.27V307.428H137.313ZM17.3056 308.559H34.6111V300.212H17.3056V308.559ZM33.48 307.428V301.343H18.4366V307.428H33.48ZM0 308.559H17.3056V300.212H0V308.559ZM16.1745 307.428V301.343H1.13108V307.428H16.1745ZM1194.08 300.212H1211.39V291.864H1194.08V300.212ZM1210.26 299.081V292.996H1195.21V299.081H1210.26ZM1142.17 300.212H1159.47V291.864H1142.17V300.212ZM1158.34 299.081V292.996H1143.3V299.081H1158.34ZM1124.86 300.212H1142.17V291.864H1124.86V300.212ZM1141.04 299.081V292.996H1125.99V299.081H1141.04ZM1107.56 300.212H1124.86V291.864H1107.56V300.212ZM1123.73 299.081V292.996H1108.69V299.081H1123.73ZM1055.64 300.212H1072.94V291.864H1055.64V300.212ZM1071.81 299.081V292.996H1056.77V299.081H1071.81ZM1038.33 300.212H1055.64V291.864H1038.33V300.212ZM1054.51 299.081V292.996H1039.46V299.081H1054.51ZM934.5 300.212H951.806V291.864H934.5V300.212ZM950.674 299.081V292.996H935.631V299.081H950.674ZM917.194 300.212H934.5V291.864H917.194V300.212ZM933.369 299.081V292.996H918.326V299.081H933.369ZM899.889 300.212H917.194V291.864H899.889V300.212ZM916.063 299.081V292.996H901.02V299.081H916.063ZM796.056 300.212H813.361V291.864H796.056V300.212ZM812.23 299.081V292.996H797.187V299.081H812.23ZM778.75 300.212H796.056V291.864H778.75V300.212ZM794.924 299.081V292.996H779.881V299.081H794.924ZM761.444 300.212H778.75V291.864H761.444V300.212ZM777.619 299.081V292.996H762.576V299.081H777.619ZM692.222 300.212H709.528V291.864H692.222V300.212ZM708.397 299.081V292.996H693.353V299.081H708.397ZM674.917 300.212H692.222V291.864H674.917V300.212ZM691.091 299.081V292.996H676.048V299.081H691.091ZM623 300.212H640.306V291.864H623V300.212ZM639.174 299.081V292.996H624.131V299.081H639.174ZM605.694 300.212H623V291.864H605.694V300.212ZM621.869 299.081V292.996H606.826V299.081H621.869ZM588.389 300.212H605.694V291.864H588.389V300.212ZM604.563 299.081V292.996H589.52V299.081H604.563ZM553.778 300.212H571.083V291.864H553.778V300.212ZM569.952 299.081V292.996H554.909V299.081H569.952ZM536.472 300.212H553.778V291.864H536.472V300.212ZM552.647 299.081V292.996H537.603V299.081H552.647ZM484.556 300.212H501.861V291.864H484.556V300.212ZM500.73 299.081V292.996H485.687V299.081H500.73ZM467.25 300.212H484.556V291.864H467.25V300.212ZM483.424 299.081V292.996H468.381V299.081H483.424ZM449.944 300.212H467.25V291.864H449.944V300.212ZM466.119 299.081V292.996H451.076V299.081H466.119ZM398.028 300.212H415.333V291.864H398.028V300.212ZM414.202 299.081V292.996H399.159V299.081H414.202ZM380.722 300.212H398.028V291.864H380.722V300.212ZM396.897 299.081V292.996H381.853V299.081H396.897ZM311.5 300.212H328.806V291.864H311.5V300.212ZM327.674 299.081V292.996H312.631V299.081H327.674ZM294.194 300.212H311.5V291.864H294.194V300.212ZM310.369 299.081V292.996H295.326V299.081H310.369ZM224.972 300.212H242.278V291.864H224.972V300.212ZM241.147 299.081V292.996H226.103V299.081H241.147ZM207.667 300.212H224.972V291.864H207.667V300.212ZM223.841 299.081V292.996H208.798V299.081H223.841ZM190.361 300.212H207.667V291.864H190.361V300.212ZM206.536 299.081V292.996H191.492V299.081H206.536ZM17.3056 300.212H34.6111V291.864H17.3056V300.212ZM33.48 299.081V292.996H18.4366V299.081H33.48ZM0 300.212H17.3056V291.864H0V300.212ZM16.1745 299.081V292.996H1.13108V299.081H16.1745ZM1142.17 291.887H1159.47V283.54H1142.17V291.887ZM1158.34 290.756V284.671H1143.3V290.756H1158.34ZM1124.86 291.887H1142.17V283.54H1124.86V291.887ZM1141.04 290.756V284.671H1125.99V290.756H1141.04ZM1055.64 291.887H1072.94V283.54H1055.64V291.887ZM1071.81 290.756V284.671H1056.77V290.756H1071.81ZM1038.33 291.887H1055.64V283.54H1038.33V291.887ZM1054.51 290.756V284.671H1039.46V290.756H1054.51ZM934.5 291.887H951.806V283.54H934.5V291.887ZM950.674 290.756V284.671H935.631V290.756H950.674ZM917.194 291.887H934.5V283.54H917.194V291.887ZM933.369 290.756V284.671H918.326V290.756H933.369ZM796.056 291.887H813.361V283.54H796.056V291.887ZM812.23 290.756V284.671H797.187V290.756H812.23ZM778.75 291.887H796.056V283.54H778.75V291.887ZM794.924 290.756V284.671H779.881V290.756H794.924ZM709.528 291.887H726.833V283.54H709.528V291.887ZM725.702 290.756V284.671H710.659V290.756H725.702ZM692.222 291.887H709.528V283.54H692.222V291.887ZM708.397 290.756V284.671H693.353V290.756H708.397ZM674.917 291.887H692.222V283.54H674.917V291.887ZM691.091 290.756V284.671H676.048V290.756H691.091ZM605.694 291.887H623V283.54H605.694V291.887ZM621.869 290.756V284.671H606.826V290.756H621.869ZM588.389 291.887H605.694V283.54H588.389V291.887ZM604.563 290.756V284.671H589.52V290.756H604.563ZM553.778 291.887H571.083V283.54H553.778V291.887ZM569.952 290.756V284.671H554.909V290.756H569.952ZM536.472 291.887H553.778V283.54H536.472V291.887ZM552.647 290.756V284.671H537.603V290.756H552.647ZM484.556 291.887H501.861V283.54H484.556V291.887ZM500.73 290.756V284.671H485.687V290.756H500.73ZM467.25 291.887H484.556V283.54H467.25V291.887ZM483.424 290.756V284.671H468.381V290.756H483.424ZM398.028 291.887H415.333V283.54H398.028V291.887ZM414.202 290.756V284.671H399.159V290.756H414.202ZM380.722 291.887H398.028V283.54H380.722V291.887ZM396.897 290.756V284.671H381.853V290.756H396.897ZM328.806 291.887H346.111V283.54H328.806V291.887ZM344.98 290.756V284.671H329.937V290.756H344.98ZM311.5 291.887H328.806V283.54H311.5V291.887ZM327.674 290.756V284.671H312.631V290.756H327.674ZM242.278 291.887H259.583V283.54H242.278V291.887ZM258.452 290.756V284.671H243.409V290.756H258.452ZM224.972 291.887H242.278V283.54H224.972V291.887ZM241.147 290.756V284.671H226.103V290.756H241.147ZM207.667 291.887H224.972V283.54H207.667V291.887ZM223.841 290.756V284.671H208.798V290.756H223.841ZM138.444 291.887H155.75V283.54H138.444V291.887ZM154.619 290.756V284.671H139.576V290.756H154.619ZM17.3056 291.887H34.6111V283.54H17.3056V291.887ZM33.48 290.756V284.671H18.4366V290.756H33.48ZM0 291.887H17.3056V283.54H0V291.887ZM16.1745 290.756V284.671H1.13108V290.756H16.1745ZM1211.39 283.54H1228.69V275.192H1211.39V283.54ZM1227.56 282.409V276.323H1212.52V282.409H1227.56ZM1142.17 283.54H1159.47V275.192H1142.17V283.54ZM1158.34 282.409V276.323H1143.3V282.409H1158.34ZM1124.86 283.54H1142.17V275.192H1124.86V283.54ZM1141.04 282.409V276.323H1125.99V282.409H1141.04ZM1055.64 283.54H1072.94V275.192H1055.64V283.54ZM1071.81 282.409V276.323H1056.77V282.409H1071.81ZM1038.33 283.54H1055.64V275.192H1038.33V283.54ZM1054.51 282.409V276.323H1039.46V282.409H1054.51ZM934.5 283.54H951.806V275.192H934.5V283.54ZM950.674 282.409V276.323H935.631V282.409H950.674ZM917.194 283.54H934.5V275.192H917.194V283.54ZM933.369 282.409V276.323H918.326V282.409H933.369ZM813.361 283.54H830.667V275.192H813.361V283.54ZM829.536 282.409V276.323H814.492V282.409H829.536ZM796.056 283.54H813.361V275.192H796.056V283.54ZM812.23 282.409V276.323H797.187V282.409H812.23ZM778.75 283.54H796.056V275.192H778.75V283.54ZM794.924 282.409V276.323H779.881V282.409H794.924ZM709.528 283.54H726.833V275.192H709.528V283.54ZM725.702 282.409V276.323H710.659V282.409H725.702ZM692.222 283.54H709.528V275.192H692.222V283.54ZM708.397 282.409V276.323H693.353V282.409H708.397ZM674.917 283.54H692.222V275.192H674.917V283.54ZM691.091 282.409V276.323H676.048V282.409H691.091ZM605.694 283.54H623V275.192H605.694V283.54ZM621.869 282.409V276.323H606.826V282.409H621.869ZM588.389 283.54H605.694V275.192H588.389V283.54ZM604.563 282.409V276.323H589.52V282.409H604.563ZM553.778 283.54H571.083V275.192H553.778V283.54ZM569.952 282.409V276.323H554.909V282.409H569.952ZM536.472 283.54H553.778V275.192H536.472V283.54ZM552.647 282.409V276.323H537.603V282.409H552.647ZM484.556 283.54H501.861V275.192H484.556V283.54ZM500.73 282.409V276.323H485.687V282.409H500.73ZM467.25 283.54H484.556V275.192H467.25V283.54ZM483.424 282.409V276.323H468.381V282.409H483.424ZM415.333 283.54H432.639V275.192H415.333V283.54ZM431.508 282.409V276.323H416.464V282.409H431.508ZM398.028 283.54H415.333V275.192H398.028V283.54ZM414.202 282.409V276.323H399.159V282.409H414.202ZM380.722 283.54H398.028V275.192H380.722V283.54ZM396.897 282.409V276.323H381.853V282.409H396.897ZM328.806 283.54H346.111V275.192H328.806V283.54ZM344.98 282.409V276.323H329.937V282.409H344.98ZM311.5 283.54H328.806V275.192H311.5V283.54ZM327.674 282.409V276.323H312.631V282.409H327.674ZM242.278 283.54H259.583V275.192H242.278V283.54ZM258.452 282.409V276.323H243.409V282.409H258.452ZM224.972 283.54H242.278V275.192H224.972V283.54ZM241.147 282.409V276.323H226.103V282.409H241.147ZM207.667 283.54H224.972V275.192H207.667V283.54ZM223.841 282.409V276.323H208.798V282.409H223.841ZM138.444 283.54H155.75V275.192H138.444V283.54ZM154.619 282.409V276.323H139.576V282.409H154.619ZM17.3056 283.54H34.6111V275.192H17.3056V283.54ZM33.48 282.409V276.323H18.4366V282.409H33.48ZM0 283.54H17.3056V275.192H0V283.54ZM16.1745 282.409V276.323H1.13108V282.409H16.1745ZM1211.39 275.192H1228.69V266.845H1211.39V275.192ZM1227.56 274.061V267.976H1212.52V274.061H1227.56ZM1142.17 275.192H1159.47V266.845H1142.17V275.192ZM1158.34 274.061V267.976H1143.3V274.061H1158.34ZM1124.86 275.192H1142.17V266.845H1124.86V275.192ZM1141.04 274.061V267.976H1125.99V274.061H1141.04ZM1072.94 275.192H1090.25V266.845H1072.94V275.192ZM1089.12 274.061V267.976H1074.08V274.061H1089.12ZM1055.64 275.192H1072.94V266.845H1055.64V275.192ZM1071.81 274.061V267.976H1056.77V274.061H1071.81ZM1038.33 275.192H1055.64V266.845H1038.33V275.192ZM1054.51 274.061V267.976H1039.46V274.061H1054.51ZM1021.03 275.192H1038.33V266.845H1021.03V275.192ZM1037.2 274.061V267.976H1022.16V274.061H1037.2ZM934.5 275.192H951.806V266.845H934.5V275.192ZM950.674 274.061V267.976H935.631V274.061H950.674ZM917.194 275.192H934.5V266.845H917.194V275.192ZM933.369 274.061V267.976H918.326V274.061H933.369ZM830.667 275.192H847.972V266.845H830.667V275.192ZM846.841 274.061V267.976H831.798V274.061H846.841ZM813.361 275.192H830.667V266.845H813.361V275.192ZM829.536 274.061V267.976H814.492V274.061H829.536ZM796.056 275.192H813.361V266.845H796.056V275.192ZM812.23 274.061V267.976H797.187V274.061H812.23ZM778.75 275.192H796.056V266.845H778.75V275.192ZM794.924 274.061V267.976H779.881V274.061H794.924ZM709.528 275.192H726.833V266.845H709.528V275.192ZM725.702 274.061V267.976H710.659V274.061H725.702ZM692.222 275.192H709.528V266.845H692.222V275.192ZM708.397 274.061V267.976H693.353V274.061H708.397ZM674.917 275.192H692.222V266.845H674.917V275.192ZM691.091 274.061V267.976H676.048V274.061H691.091ZM605.694 275.192H623V266.845H605.694V275.192ZM621.869 274.061V267.976H606.826V274.061H621.869ZM588.389 275.192H605.694V266.845H588.389V275.192ZM604.563 274.061V267.976H589.52V274.061H604.563ZM553.778 275.192H571.083V266.845H553.778V275.192ZM569.952 274.061V267.976H554.909V274.061H569.952ZM536.472 275.192H553.778V266.845H536.472V275.192ZM552.647 274.061V267.976H537.603V274.061H552.647ZM501.861 275.192H519.167V266.845H501.861V275.192ZM518.036 274.061V267.976H502.992V274.061H518.036ZM484.556 275.192H501.861V266.845H484.556V275.192ZM500.73 274.061V267.976H485.687V274.061H500.73ZM467.25 275.192H484.556V266.845H467.25V275.192ZM483.424 274.061V267.976H468.381V274.061H483.424ZM415.333 275.192H432.639V266.845H415.333V275.192ZM431.508 274.061V267.976H416.464V274.061H431.508ZM398.028 275.192H415.333V266.845H398.028V275.192ZM414.202 274.061V267.976H399.159V274.061H414.202ZM380.722 275.192H398.028V266.845H380.722V275.192ZM396.897 274.061V267.976H381.853V274.061H396.897ZM328.806 275.192H346.111V266.845H328.806V275.192ZM344.98 274.061V267.976H329.937V274.061H344.98ZM311.5 275.192H328.806V266.845H311.5V275.192ZM327.674 274.061V267.976H312.631V274.061H327.674ZM242.278 275.192H259.583V266.845H242.278V275.192ZM258.452 274.061V267.976H243.409V274.061H258.452ZM224.972 275.192H242.278V266.845H224.972V275.192ZM241.147 274.061V267.976H226.103V274.061H241.147ZM207.667 275.192H224.972V266.845H207.667V275.192ZM223.841 274.061V267.976H208.798V274.061H223.841ZM17.3056 275.192H34.6111V266.845H17.3056V275.192ZM33.48 274.061V267.976H18.4366V274.061H33.48ZM1211.39 266.867H1228.69V258.52H1211.39V266.867ZM1227.56 265.736V259.651H1212.52V265.736H1227.56ZM1159.47 266.867H1176.78V258.52H1159.47V266.867ZM1175.65 265.736V259.651H1160.6V265.736H1175.65ZM1142.17 266.867H1159.47V258.52H1142.17V266.867ZM1158.34 265.736V259.651H1143.3V265.736H1158.34ZM1124.86 266.867H1142.17V258.52H1124.86V266.867ZM1141.04 265.736V259.651H1125.99V265.736H1141.04ZM1072.94 266.867H1090.25V258.52H1072.94V266.867ZM1089.12 265.736V259.651H1074.08V265.736H1089.12ZM1055.64 266.867H1072.94V258.52H1055.64V266.867ZM1071.81 265.736V259.651H1056.77V265.736H1071.81ZM1038.33 266.867H1055.64V258.52H1038.33V266.867ZM1054.51 265.736V259.651H1039.46V265.736H1054.51ZM1021.03 266.867H1038.33V258.52H1021.03V266.867ZM1037.2 265.736V259.651H1022.16V265.736H1037.2ZM1003.72 266.867H1021.03V258.52H1003.72V266.867ZM1019.9 265.736V259.651H1004.85V265.736H1019.9ZM951.806 266.867H969.111V258.52H951.806V266.867ZM967.98 265.736V259.651H952.937V265.736H967.98ZM934.5 266.867H951.806V258.52H934.5V266.867ZM950.674 265.736V259.651H935.631V265.736H950.674ZM917.194 266.867H934.5V258.52H917.194V266.867ZM933.369 265.736V259.651H918.326V265.736H933.369ZM865.278 266.867H882.583V258.52H865.278V266.867ZM881.452 265.736V259.651H866.409V265.736H881.452ZM847.972 266.867H865.278V258.52H847.972V266.867ZM864.147 265.736V259.651H849.103V265.736H864.147ZM830.667 266.867H847.972V258.52H830.667V266.867ZM846.841 265.736V259.651H831.798V265.736H846.841ZM796.056 266.867H813.361V258.52H796.056V266.867ZM812.23 265.736V259.651H797.187V265.736H812.23ZM778.75 266.867H796.056V258.52H778.75V266.867ZM794.924 265.736V259.651H779.881V265.736H794.924ZM709.528 266.867H726.833V258.52H709.528V266.867ZM725.702 265.736V259.651H710.659V265.736H725.702ZM692.222 266.867H709.528V258.52H692.222V266.867ZM708.397 265.736V259.651H693.353V265.736H708.397ZM605.694 266.867H623V258.52H605.694V266.867ZM621.869 265.736V259.651H606.826V265.736H621.869ZM588.389 266.867H605.694V258.52H588.389V266.867ZM604.563 265.736V259.651H589.52V265.736H604.563ZM571.083 266.867H588.389V258.52H571.083V266.867ZM587.258 265.736V259.651H572.214V265.736H587.258ZM501.861 266.867H519.167V258.52H501.861V266.867ZM518.036 265.736V259.651H502.992V265.736H518.036ZM484.556 266.867H501.861V258.52H484.556V266.867ZM500.73 265.736V259.651H485.687V265.736H500.73ZM415.333 266.867H432.639V258.52H415.333V266.867ZM431.508 265.736V259.651H416.464V265.736H431.508ZM398.028 266.867H415.333V258.52H398.028V266.867ZM414.202 265.736V259.651H399.159V265.736H414.202ZM328.806 266.867H346.111V258.52H328.806V266.867ZM344.98 265.736V259.651H329.937V265.736H344.98ZM311.5 266.867H328.806V258.52H311.5V266.867ZM327.674 265.736V259.651H312.631V265.736H327.674ZM259.583 266.867H276.889V258.52H259.583V266.867ZM275.758 265.736V259.651H260.714V265.736H275.758ZM224.972 266.867H242.278V258.52H224.972V266.867ZM241.147 265.736V259.651H226.103V265.736H241.147ZM207.667 266.867H224.972V258.52H207.667V266.867ZM223.841 265.736V259.651H208.798V265.736H223.841ZM155.75 266.867H173.056V258.52H155.75V266.867ZM171.924 265.736V259.651H156.881V265.736H171.924ZM1159.47 258.52H1176.78V250.173H1159.47V258.52ZM1175.65 257.389V251.304H1160.6V257.389H1175.65ZM1142.17 258.52H1159.47V250.173H1142.17V258.52ZM1158.34 257.389V251.304H1143.3V257.389H1158.34ZM1072.94 258.52H1090.25V250.173H1072.94V258.52ZM1089.12 257.389V251.304H1074.08V257.389H1089.12ZM1055.64 258.52H1072.94V250.173H1055.64V258.52ZM1071.81 257.389V251.304H1056.77V257.389H1071.81ZM1021.03 258.52H1038.33V250.173H1021.03V258.52ZM1037.2 257.389V251.304H1022.16V257.389H1037.2ZM1003.72 258.52H1021.03V250.173H1003.72V258.52ZM1019.9 257.389V251.304H1004.85V257.389H1019.9ZM951.806 258.52H969.111V250.173H951.806V258.52ZM967.98 257.389V251.304H952.937V257.389H967.98ZM934.5 258.52H951.806V250.173H934.5V258.52ZM950.674 257.389V251.304H935.631V257.389H950.674ZM917.194 258.52H934.5V250.173H917.194V258.52ZM933.369 257.389V251.304H918.326V257.389H933.369ZM865.278 258.52H882.583V250.173H865.278V258.52ZM881.452 257.389V251.304H866.409V257.389H881.452ZM847.972 258.52H865.278V250.173H847.972V258.52ZM864.147 257.389V251.304H849.103V257.389H864.147ZM796.056 258.52H813.361V250.173H796.056V258.52ZM812.23 257.389V251.304H797.187V257.389H812.23ZM778.75 258.52H796.056V250.173H778.75V258.52ZM794.924 257.389V251.304H779.881V257.389H794.924ZM709.528 258.52H726.833V250.173H709.528V258.52ZM725.702 257.389V251.304H710.659V257.389H725.702ZM692.222 258.52H709.528V250.173H692.222V258.52ZM708.397 257.389V251.304H693.353V257.389H708.397ZM605.694 258.52H623V250.173H605.694V258.52ZM621.869 257.389V251.304H606.826V257.389H621.869ZM588.389 258.52H605.694V250.173H588.389V258.52ZM604.563 257.389V251.304H589.52V257.389H604.563ZM571.083 258.52H588.389V250.173H571.083V258.52ZM587.258 257.389V251.304H572.214V257.389H587.258ZM501.861 258.52H519.167V250.173H501.861V258.52ZM518.036 257.389V251.304H502.992V257.389H518.036ZM484.556 258.52H501.861V250.173H484.556V258.52ZM500.73 257.389V251.304H485.687V257.389H500.73ZM415.333 258.52H432.639V250.173H415.333V258.52ZM431.508 257.389V251.304H416.464V257.389H431.508ZM398.028 258.52H415.333V250.173H398.028V258.52ZM414.202 257.389V251.304H399.159V257.389H414.202ZM328.806 258.52H346.111V250.173H328.806V258.52ZM344.98 257.389V251.304H329.937V257.389H344.98ZM311.5 258.52H328.806V250.173H311.5V258.52ZM327.674 257.389V251.304H312.631V257.389H327.674ZM259.583 258.52H276.889V250.173H259.583V258.52ZM275.758 257.389V251.304H260.714V257.389H275.758ZM224.972 258.52H242.278V250.173H224.972V258.52ZM241.147 257.389V251.304H226.103V257.389H241.147ZM207.667 258.52H224.972V250.173H207.667V258.52ZM223.841 257.389V251.304H208.798V257.389H223.841ZM155.75 258.52H173.056V250.173H155.75V258.52ZM171.924 257.389V251.304H156.881V257.389H171.924ZM1228.69 250.173H1246V241.825H1228.69V250.173ZM1244.87 249.064V242.979H1229.83V249.064H1244.87ZM1159.47 250.173H1176.78V241.825H1159.47V250.173ZM1175.65 249.064V242.979H1160.6V249.064H1175.65ZM1142.17 250.173H1159.47V241.825H1142.17V250.173ZM1158.34 249.064V242.979H1143.3V249.064H1158.34ZM1072.94 250.173H1090.25V241.825H1072.94V250.173ZM1089.12 249.064V242.979H1074.08V249.064H1089.12ZM1055.64 250.173H1072.94V241.825H1055.64V250.173ZM1071.81 249.064V242.979H1056.77V249.064H1071.81ZM1021.03 250.173H1038.33V241.825H1021.03V250.173ZM1037.2 249.064V242.979H1022.16V249.064H1037.2ZM1003.72 250.173H1021.03V241.825H1003.72V250.173ZM1019.9 249.064V242.979H1004.85V249.064H1019.9ZM951.806 250.173H969.111V241.825H951.806V250.173ZM967.98 249.064V242.979H952.937V249.064H967.98ZM934.5 250.173H951.806V241.825H934.5V250.173ZM950.674 249.064V242.979H935.631V249.064H950.674ZM917.194 250.173H934.5V241.825H917.194V250.173ZM933.369 249.064V242.979H918.326V249.064H933.369ZM865.278 250.173H882.583V241.825H865.278V250.173ZM881.452 249.064V242.979H866.409V249.064H881.452ZM847.972 250.173H865.278V241.825H847.972V250.173ZM864.147 249.064V242.979H849.103V249.064H864.147ZM796.056 250.173H813.361V241.825H796.056V250.173ZM812.23 249.064V242.979H797.187V249.064H812.23ZM778.75 250.173H796.056V241.825H778.75V250.173ZM794.924 249.064V242.979H779.881V249.064H794.924ZM709.528 250.173H726.833V241.825H709.528V250.173ZM725.702 249.064V242.979H710.659V249.064H725.702ZM692.222 250.173H709.528V241.825H692.222V250.173ZM708.397 249.064V242.979H693.353V249.064H708.397ZM640.306 250.173H657.611V241.825H640.306V250.173ZM656.48 249.064V242.979H641.437V249.064H656.48ZM623 250.173H640.306V241.825H623V250.173ZM639.174 249.064V242.979H624.131V249.064H639.174ZM605.694 250.173H623V241.825H605.694V250.173ZM621.869 249.064V242.979H606.826V249.064H621.869ZM588.389 250.173H605.694V241.825H588.389V250.173ZM604.563 249.064V242.979H589.52V249.064H604.563ZM571.083 250.173H588.389V241.825H571.083V250.173ZM587.258 249.064V242.979H572.214V249.064H587.258ZM501.861 250.173H519.167V241.825H501.861V250.173ZM518.036 249.064V242.979H502.992V249.064H518.036ZM484.556 250.173H501.861V241.825H484.556V250.173ZM500.73 249.064V242.979H485.687V249.064H500.73ZM415.333 250.173H432.639V241.825H415.333V250.173ZM431.508 249.064V242.979H416.464V249.064H431.508ZM398.028 250.173H415.333V241.825H398.028V250.173ZM414.202 249.064V242.979H399.159V249.064H414.202ZM346.111 250.173H363.417V241.825H346.111V250.173ZM362.286 249.064V242.979H347.242V249.064H362.286ZM328.806 250.173H346.111V241.825H328.806V250.173ZM344.98 249.064V242.979H329.937V249.064H344.98ZM311.5 250.173H328.806V241.825H311.5V250.173ZM327.674 249.064V242.979H312.631V249.064H327.674ZM259.583 250.173H276.889V241.825H259.583V250.173ZM275.758 249.064V242.979H260.714V249.064H275.758ZM242.278 250.173H259.583V241.825H242.278V250.173ZM258.452 249.064V242.979H243.409V249.064H258.452ZM224.972 250.173H242.278V241.825H224.972V250.173ZM241.147 249.064V242.979H226.103V249.064H241.147ZM207.667 250.173H224.972V241.825H207.667V250.173ZM223.841 249.064V242.979H208.798V249.064H223.841ZM155.75 250.173H173.056V241.825H155.75V250.173ZM171.924 249.064V242.979H156.881V249.064H171.924ZM1228.69 241.848H1246V233.501H1228.69V241.848ZM1244.87 240.717V234.632H1229.83V240.717H1244.87ZM1159.47 241.848H1176.78V233.501H1159.47V241.848ZM1175.65 240.717V234.632H1160.6V240.717H1175.65ZM1142.17 241.848H1159.47V233.501H1142.17V241.848ZM1158.34 240.717V234.632H1143.3V240.717H1158.34ZM1090.25 241.848H1107.56V233.501H1090.25V241.848ZM1106.42 240.717V234.632H1091.38V240.717H1106.42ZM1072.94 241.848H1090.25V233.501H1072.94V241.848ZM1089.12 240.717V234.632H1074.08V240.717H1089.12ZM1055.64 241.848H1072.94V233.501H1055.64V241.848ZM1071.81 240.717V234.632H1056.77V240.717H1071.81ZM1021.03 241.848H1038.33V233.501H1021.03V241.848ZM1037.2 240.717V234.632H1022.16V240.717H1037.2ZM1003.72 241.848H1021.03V233.501H1003.72V241.848ZM1019.9 240.717V234.632H1004.85V240.717H1019.9ZM969.111 241.848H986.417V233.501H969.111V241.848ZM985.286 240.717V234.632H970.242V240.717H985.286ZM951.806 241.848H969.111V233.501H951.806V241.848ZM967.98 240.717V234.632H952.937V240.717H967.98ZM934.5 241.848H951.806V233.501H934.5V241.848ZM950.674 240.717V234.632H935.631V240.717H950.674ZM882.583 241.848H899.889V233.501H882.583V241.848ZM898.758 240.717V234.632H883.714V240.717H898.758ZM865.278 241.848H882.583V233.501H865.278V241.848ZM881.452 240.717V234.632H866.409V240.717H881.452ZM813.361 241.848H830.667V233.501H813.361V241.848ZM829.536 240.717V234.632H814.492V240.717H829.536ZM796.056 241.848H813.361V233.501H796.056V241.848ZM812.23 240.717V234.632H797.187V240.717H812.23ZM726.833 241.848H744.139V233.501H726.833V241.848ZM743.008 240.717V234.632H727.964V240.717H743.008ZM709.528 241.848H726.833V233.501H709.528V241.848ZM725.702 240.717V234.632H710.659V240.717H725.702ZM692.222 241.848H709.528V233.501H692.222V241.848ZM708.397 240.717V234.632H693.353V240.717H708.397ZM640.306 241.848H657.611V233.501H640.306V241.848ZM656.48 240.717V234.632H641.437V240.717H656.48ZM588.389 241.848H605.694V233.501H588.389V241.848ZM604.563 240.717V234.632H589.52V240.717H604.563ZM571.083 241.848H588.389V233.501H571.083V241.848ZM587.258 240.717V234.632H572.214V240.717H587.258ZM501.861 241.848H519.167V233.501H501.861V241.848ZM518.036 240.717V234.632H502.992V240.717H518.036ZM484.556 241.848H501.861V233.501H484.556V241.848ZM500.73 240.717V234.632H485.687V240.717H500.73ZM432.639 241.848H449.944V233.501H432.639V241.848ZM448.813 240.717V234.632H433.77V240.717H448.813ZM415.333 241.848H432.639V233.501H415.333V241.848ZM431.508 240.717V234.632H416.464V240.717H431.508ZM398.028 241.848H415.333V233.501H398.028V241.848ZM414.202 240.717V234.632H399.159V240.717H414.202ZM346.111 241.848H363.417V233.501H346.111V241.848ZM362.286 240.717V234.632H347.242V240.717H362.286ZM328.806 241.848H346.111V233.501H328.806V241.848ZM344.98 240.717V234.632H329.937V240.717H344.98ZM242.278 241.848H259.583V233.501H242.278V241.848ZM258.452 240.717V234.632H243.409V240.717H258.452ZM224.972 241.848H242.278V233.501H224.972V241.848ZM241.147 240.717V234.632H226.103V240.717H241.147ZM173.056 241.848H190.361V233.501H173.056V241.848ZM189.23 240.717V234.632H174.187V240.717H189.23ZM1228.69 233.501H1246V225.153H1228.69V233.501ZM1244.87 232.37V226.284H1229.83V232.37H1244.87ZM1159.47 233.501H1176.78V225.153H1159.47V233.501ZM1175.65 232.37V226.284H1160.6V232.37H1175.65ZM1142.17 233.501H1159.47V225.153H1142.17V233.501ZM1158.34 232.37V226.284H1143.3V232.37H1158.34ZM1090.25 233.501H1107.56V225.153H1090.25V233.501ZM1106.42 232.37V226.284H1091.38V232.37H1106.42ZM1072.94 233.501H1090.25V225.153H1072.94V233.501ZM1089.12 232.37V226.284H1074.08V232.37H1089.12ZM1055.64 233.501H1072.94V225.153H1055.64V233.501ZM1071.81 232.37V226.284H1056.77V232.37H1071.81ZM1021.03 233.501H1038.33V225.153H1021.03V233.501ZM1037.2 232.37V226.284H1022.16V232.37H1037.2ZM1003.72 233.501H1021.03V225.153H1003.72V233.501ZM1019.9 232.37V226.284H1004.85V232.37H1019.9ZM969.111 233.501H986.417V225.153H969.111V233.501ZM985.286 232.37V226.284H970.242V232.37H985.286ZM951.806 233.501H969.111V225.153H951.806V233.501ZM967.98 232.37V226.284H952.937V232.37H967.98ZM934.5 233.501H951.806V225.153H934.5V233.501ZM950.674 232.37V226.284H935.631V232.37H950.674ZM882.583 233.501H899.889V225.153H882.583V233.501ZM898.758 232.37V226.284H883.714V232.37H898.758ZM865.278 233.501H882.583V225.153H865.278V233.501ZM881.452 232.37V226.284H866.409V232.37H881.452ZM813.361 233.501H830.667V225.153H813.361V233.501ZM829.536 232.37V226.284H814.492V232.37H829.536ZM796.056 233.501H813.361V225.153H796.056V233.501ZM812.23 232.37V226.284H797.187V232.37H812.23ZM726.833 233.501H744.139V225.153H726.833V233.501ZM743.008 232.37V226.284H727.964V232.37H743.008ZM709.528 233.501H726.833V225.153H709.528V233.501ZM725.702 232.37V226.284H710.659V232.37H725.702ZM640.306 233.501H657.611V225.153H640.306V233.501ZM656.48 232.37V226.284H641.437V232.37H656.48ZM588.389 233.501H605.694V225.153H588.389V233.501ZM604.563 232.37V226.284H589.52V232.37H604.563ZM571.083 233.501H588.389V225.153H571.083V233.501ZM587.258 232.37V226.284H572.214V232.37H587.258ZM519.167 233.501H536.472V225.153H519.167V233.501ZM535.341 232.37V226.284H520.298V232.37H535.341ZM501.861 233.501H519.167V225.153H501.861V233.501ZM518.036 232.37V226.284H502.992V232.37H518.036ZM484.556 233.501H501.861V225.153H484.556V233.501ZM500.73 232.37V226.284H485.687V232.37H500.73ZM432.639 233.501H449.944V225.153H432.639V233.501ZM448.813 232.37V226.284H433.77V232.37H448.813ZM415.333 233.501H432.639V225.153H415.333V233.501ZM431.508 232.37V226.284H416.464V232.37H431.508ZM346.111 233.501H363.417V225.153H346.111V233.501ZM362.286 232.37V226.284H347.242V232.37H362.286ZM328.806 233.501H346.111V225.153H328.806V233.501ZM344.98 232.37V226.284H329.937V232.37H344.98ZM276.889 233.501H294.194V225.153H276.889V233.501ZM293.063 232.37V226.284H278.02V232.37H293.063ZM242.278 233.501H259.583V225.153H242.278V233.501ZM258.452 232.37V226.284H243.409V232.37H258.452ZM224.972 233.501H242.278V225.153H224.972V233.501ZM241.147 232.37V226.284H226.103V232.37H241.147ZM173.056 233.501H190.361V225.153H173.056V233.501ZM189.23 232.37V226.284H174.187V232.37H189.23ZM1176.78 225.176H1194.08V216.828H1176.78V225.176ZM1192.95 224.045V217.96H1177.91V224.045H1192.95ZM1159.47 225.176H1176.78V216.828H1159.47V225.176ZM1175.65 224.045V217.96H1160.6V224.045H1175.65ZM1142.17 225.176H1159.47V216.828H1142.17V225.176ZM1158.34 224.045V217.96H1143.3V224.045H1158.34ZM1090.25 225.176H1107.56V216.828H1090.25V225.176ZM1106.42 224.045V217.96H1091.38V224.045H1106.42ZM1072.94 225.176H1090.25V216.828H1072.94V225.176ZM1089.12 224.045V217.96H1074.08V224.045H1089.12ZM1021.03 225.176H1038.33V216.828H1021.03V225.176ZM1037.2 224.045V217.96H1022.16V224.045H1037.2ZM1003.72 225.176H1021.03V216.828H1003.72V225.176ZM1019.9 224.045V217.96H1004.85V224.045H1019.9ZM951.806 225.176H969.111V216.828H951.806V225.176ZM967.98 224.045V217.96H952.937V224.045H967.98ZM934.5 225.176H951.806V216.828H934.5V225.176ZM950.674 224.045V217.96H935.631V224.045H950.674ZM882.583 225.176H899.889V216.828H882.583V225.176ZM898.758 224.045V217.96H883.714V224.045H898.758ZM865.278 225.176H882.583V216.828H865.278V225.176ZM881.452 224.045V217.96H866.409V224.045H881.452ZM813.361 225.176H830.667V216.828H813.361V225.176ZM829.536 224.045V217.96H814.492V224.045H829.536ZM796.056 225.176H813.361V216.828H796.056V225.176ZM812.23 224.045V217.96H797.187V224.045H812.23ZM726.833 225.176H744.139V216.828H726.833V225.176ZM743.008 224.045V217.96H727.964V224.045H743.008ZM709.528 225.176H726.833V216.828H709.528V225.176ZM725.702 224.045V217.96H710.659V224.045H725.702ZM640.306 225.176H657.611V216.828H640.306V225.176ZM656.48 224.045V217.96H641.437V224.045H656.48ZM588.389 225.176H605.694V216.828H588.389V225.176ZM604.563 224.045V217.96H589.52V224.045H604.563ZM571.083 225.176H588.389V216.828H571.083V225.176ZM587.258 224.045V217.96H572.214V224.045H587.258ZM519.167 225.176H536.472V216.828H519.167V225.176ZM535.341 224.045V217.96H520.298V224.045H535.341ZM501.861 225.176H519.167V216.828H501.861V225.176ZM518.036 224.045V217.96H502.992V224.045H518.036ZM432.639 225.176H449.944V216.828H432.639V225.176ZM448.813 224.045V217.96H433.77V224.045H448.813ZM415.333 225.176H432.639V216.828H415.333V225.176ZM431.508 224.045V217.96H416.464V224.045H431.508ZM346.111 225.176H363.417V216.828H346.111V225.176ZM362.286 224.045V217.96H347.242V224.045H362.286ZM328.806 225.176H346.111V216.828H328.806V225.176ZM344.98 224.045V217.96H329.937V224.045H344.98ZM276.889 225.176H294.194V216.828H276.889V225.176ZM293.063 224.045V217.96H278.02V224.045H293.063ZM242.278 225.176H259.583V216.828H242.278V225.176ZM258.452 224.045V217.96H243.409V224.045H258.452ZM224.972 225.176H242.278V216.828H224.972V225.176ZM241.147 224.045V217.96H226.103V224.045H241.147ZM173.056 225.176H190.361V216.828H173.056V225.176ZM189.23 224.045V217.96H174.187V224.045H189.23ZM1176.78 216.828H1194.08V208.481H1176.78V216.828ZM1192.95 215.697V209.612H1177.91V215.697H1192.95ZM1159.47 216.828H1176.78V208.481H1159.47V216.828ZM1175.65 215.697V209.612H1160.6V215.697H1175.65ZM1090.25 216.828H1107.56V208.481H1090.25V216.828ZM1106.42 215.697V209.612H1091.38V215.697H1106.42ZM1072.94 216.828H1090.25V208.481H1072.94V216.828ZM1089.12 215.697V209.612H1074.08V215.697H1089.12ZM1021.03 216.828H1038.33V208.481H1021.03V216.828ZM1037.2 215.697V209.612H1022.16V215.697H1037.2ZM1003.72 216.828H1021.03V208.481H1003.72V216.828ZM1019.9 215.697V209.612H1004.85V215.697H1019.9ZM986.417 216.828H1003.72V208.481H986.417V216.828ZM1002.59 215.697V209.612H987.548V215.697H1002.59ZM969.111 216.828H986.417V208.481H969.111V216.828ZM985.286 215.697V209.612H970.242V215.697H985.286ZM951.806 216.828H969.111V208.481H951.806V216.828ZM967.98 215.697V209.612H952.937V215.697H967.98ZM934.5 216.828H951.806V208.481H934.5V216.828ZM950.674 215.697V209.612H935.631V215.697H950.674ZM882.583 216.828H899.889V208.481H882.583V216.828ZM898.758 215.697V209.612H883.714V215.697H898.758ZM865.278 216.828H882.583V208.481H865.278V216.828ZM881.452 215.697V209.612H866.409V215.697H881.452ZM813.361 216.828H830.667V208.481H813.361V216.828ZM829.536 215.697V209.612H814.492V215.697H829.536ZM796.056 216.828H813.361V208.481H796.056V216.828ZM812.23 215.697V209.612H797.187V215.697H812.23ZM726.833 216.828H744.139V208.481H726.833V216.828ZM743.008 215.697V209.612H727.964V215.697H743.008ZM709.528 216.828H726.833V208.481H709.528V216.828ZM725.702 215.697V209.612H710.659V215.697H725.702ZM640.306 216.828H657.611V208.481H640.306V216.828ZM656.48 215.697V209.612H641.437V215.697H656.48ZM588.389 216.828H605.694V208.481H588.389V216.828ZM604.563 215.697V209.612H589.52V215.697H604.563ZM571.083 216.828H588.389V208.481H571.083V216.828ZM587.258 215.697V209.612H572.214V215.697H587.258ZM519.167 216.828H536.472V208.481H519.167V216.828ZM535.341 215.697V209.612H520.298V215.697H535.341ZM501.861 216.828H519.167V208.481H501.861V216.828ZM518.036 215.697V209.612H502.992V215.697H518.036ZM432.639 216.828H449.944V208.481H432.639V216.828ZM448.813 215.697V209.612H433.77V215.697H448.813ZM415.333 216.828H432.639V208.481H415.333V216.828ZM431.508 215.697V209.612H416.464V215.697H431.508ZM346.111 216.828H363.417V208.481H346.111V216.828ZM362.286 215.697V209.612H347.242V215.697H362.286ZM328.806 216.828H346.111V208.481H328.806V216.828ZM344.98 215.697V209.612H329.937V215.697H344.98ZM276.889 216.828H294.194V208.481H276.889V216.828ZM293.063 215.697V209.612H278.02V215.697H293.063ZM242.278 216.828H259.583V208.481H242.278V216.828ZM258.452 215.697V209.612H243.409V215.697H258.452ZM224.972 216.828H242.278V208.481H224.972V216.828ZM241.147 215.697V209.612H226.103V215.697H241.147ZM173.056 216.828H190.361V208.481H173.056V216.828ZM189.23 215.697V209.612H174.187V215.697H189.23ZM1176.78 208.481H1194.08V200.134H1176.78V208.481ZM1192.95 207.35V201.265H1177.91V207.35H1192.95ZM1159.47 208.481H1176.78V200.134H1159.47V208.481ZM1175.65 207.35V201.265H1160.6V207.35H1175.65ZM1090.25 208.481H1107.56V200.134H1090.25V208.481ZM1106.42 207.35V201.265H1091.38V207.35H1106.42ZM1072.94 208.481H1090.25V200.134H1072.94V208.481ZM1089.12 207.35V201.265H1074.08V207.35H1089.12ZM1021.03 208.481H1038.33V200.134H1021.03V208.481ZM1037.2 207.35V201.265H1022.16V207.35H1037.2ZM1003.72 208.481H1021.03V200.134H1003.72V208.481ZM1019.9 207.35V201.265H1004.85V207.35H1019.9ZM986.417 208.481H1003.72V200.134H986.417V208.481ZM1002.59 207.35V201.265H987.548V207.35H1002.59ZM969.111 208.481H986.417V200.134H969.111V208.481ZM985.286 207.35V201.265H970.242V207.35H985.286ZM951.806 208.481H969.111V200.134H951.806V208.481ZM967.98 207.35V201.265H952.937V207.35H967.98ZM934.5 208.481H951.806V200.134H934.5V208.481ZM950.674 207.35V201.265H935.631V207.35H950.674ZM882.583 208.481H899.889V200.134H882.583V208.481ZM898.758 207.35V201.265H883.714V207.35H898.758ZM865.278 208.481H882.583V200.134H865.278V208.481ZM881.452 207.35V201.265H866.409V207.35H881.452ZM830.667 208.481H847.972V200.134H830.667V208.481ZM846.841 207.35V201.265H831.798V207.35H846.841ZM813.361 208.481H830.667V200.134H813.361V208.481ZM829.536 207.35V201.265H814.492V207.35H829.536ZM744.139 208.481H761.444V200.134H744.139V208.481ZM760.313 207.35V201.265H745.27V207.35H760.313ZM726.833 208.481H744.139V200.134H726.833V208.481ZM743.008 207.35V201.265H727.964V207.35H743.008ZM709.528 208.481H726.833V200.134H709.528V208.481ZM725.702 207.35V201.265H710.659V207.35H725.702ZM640.306 208.481H657.611V200.134H640.306V208.481ZM656.48 207.35V201.265H641.437V207.35H656.48ZM588.389 208.481H605.694V200.134H588.389V208.481ZM604.563 207.35V201.265H589.52V207.35H604.563ZM519.167 208.481H536.472V200.134H519.167V208.481ZM535.341 207.35V201.265H520.298V207.35H535.341ZM501.861 208.481H519.167V200.134H501.861V208.481ZM518.036 207.35V201.265H502.992V207.35H518.036ZM432.639 208.481H449.944V200.134H432.639V208.481ZM448.813 207.35V201.265H433.77V207.35H448.813ZM415.333 208.481H432.639V200.134H415.333V208.481ZM431.508 207.35V201.265H416.464V207.35H431.508ZM363.417 208.481H380.722V200.134H363.417V208.481ZM379.591 207.35V201.265H364.548V207.35H379.591ZM346.111 208.481H363.417V200.134H346.111V208.481ZM362.286 207.35V201.265H347.242V207.35H362.286ZM328.806 208.481H346.111V200.134H328.806V208.481ZM344.98 207.35V201.265H329.937V207.35H344.98ZM242.278 208.481H259.583V200.134H242.278V208.481ZM258.452 207.35V201.265H243.409V207.35H258.452ZM224.972 208.481H242.278V200.134H224.972V208.481ZM241.147 207.35V201.265H226.103V207.35H241.147ZM190.361 208.481H207.667V200.134H190.361V208.481ZM206.536 207.35V201.265H191.492V207.35H206.536ZM1176.78 200.156H1194.08V191.809H1176.78V200.156ZM1192.95 199.025V192.94H1177.91V199.025H1192.95ZM1159.47 200.156H1176.78V191.809H1159.47V200.156ZM1175.65 199.025V192.94H1160.6V199.025H1175.65ZM1090.25 200.156H1107.56V191.809H1090.25V200.156ZM1106.42 199.025V192.94H1091.38V199.025H1106.42ZM1072.94 200.156H1090.25V191.809H1072.94V200.156ZM1089.12 199.025V192.94H1074.08V199.025H1089.12ZM1021.03 200.156H1038.33V191.809H1021.03V200.156ZM1037.2 199.025V192.94H1022.16V199.025H1037.2ZM1003.72 200.156H1021.03V191.809H1003.72V200.156ZM1019.9 199.025V192.94H1004.85V199.025H1019.9ZM969.111 200.156H986.417V191.809H969.111V200.156ZM985.286 199.025V192.94H970.242V199.025H985.286ZM951.806 200.156H969.111V191.809H951.806V200.156ZM967.98 199.025V192.94H952.937V199.025H967.98ZM882.583 200.156H899.889V191.809H882.583V200.156ZM898.758 199.025V192.94H883.714V199.025H898.758ZM830.667 200.156H847.972V191.809H830.667V200.156ZM846.841 199.025V192.94H831.798V199.025H846.841ZM778.75 200.156H796.056V191.809H778.75V200.156ZM794.924 199.025V192.94H779.881V199.025H794.924ZM761.444 200.156H778.75V191.809H761.444V200.156ZM777.619 199.025V192.94H762.576V199.025H777.619ZM744.139 200.156H761.444V191.809H744.139V200.156ZM760.313 199.025V192.94H745.27V199.025H760.313ZM726.833 200.156H744.139V191.809H726.833V200.156ZM743.008 199.025V192.94H727.964V199.025H743.008ZM709.528 200.156H726.833V191.809H709.528V200.156ZM725.702 199.025V192.94H710.659V199.025H725.702ZM692.222 200.156H709.528V191.809H692.222V200.156ZM708.397 199.025V192.94H693.353V199.025H708.397ZM640.306 200.156H657.611V191.809H640.306V200.156ZM656.48 199.025V192.94H641.437V199.025H656.48ZM588.389 200.156H605.694V191.809H588.389V200.156ZM604.563 199.025V192.94H589.52V199.025H604.563ZM519.167 200.156H536.472V191.809H519.167V200.156ZM535.341 199.025V192.94H520.298V199.025H535.341ZM501.861 200.156H519.167V191.809H501.861V200.156ZM518.036 199.025V192.94H502.992V199.025H518.036ZM449.944 200.156H467.25V191.809H449.944V200.156ZM466.119 199.025V192.94H451.076V199.025H466.119ZM432.639 200.156H449.944V191.809H432.639V200.156ZM448.813 199.025V192.94H433.77V199.025H448.813ZM415.333 200.156H432.639V191.809H415.333V200.156ZM431.508 199.025V192.94H416.464V199.025H431.508ZM363.417 200.156H380.722V191.809H363.417V200.156ZM379.591 199.025V192.94H364.548V199.025H379.591ZM346.111 200.156H363.417V191.809H346.111V200.156ZM362.286 199.025V192.94H347.242V199.025H362.286ZM328.806 200.156H346.111V191.809H328.806V200.156ZM344.98 199.025V192.94H329.937V199.025H344.98ZM294.194 200.156H311.5V191.809H294.194V200.156ZM310.369 199.025V192.94H295.326V199.025H310.369ZM259.583 200.156H276.889V191.809H259.583V200.156ZM275.758 199.025V192.94H260.714V199.025H275.758ZM242.278 200.156H259.583V191.809H242.278V200.156ZM258.452 199.025V192.94H243.409V199.025H258.452ZM224.972 200.156H242.278V191.809H224.972V200.156ZM241.147 199.025V192.94H226.103V199.025H241.147ZM190.361 200.156H207.667V191.809H190.361V200.156ZM206.536 199.025V192.94H191.492V199.025H206.536ZM1176.78 191.809H1194.08V183.462H1176.78V191.809ZM1192.95 190.678V184.593H1177.91V190.678H1192.95ZM1159.47 191.809H1176.78V183.462H1159.47V191.809ZM1175.65 190.678V184.593H1160.6V190.678H1175.65ZM1107.56 191.809H1124.86V183.462H1107.56V191.809ZM1123.73 190.678V184.593H1108.69V190.678H1123.73ZM1090.25 191.809H1107.56V183.462H1090.25V191.809ZM1106.42 190.678V184.593H1091.38V190.678H1106.42ZM1072.94 191.809H1090.25V183.462H1072.94V191.809ZM1089.12 190.678V184.593H1074.08V190.678H1089.12ZM1021.03 191.809H1038.33V183.462H1021.03V191.809ZM1037.2 190.678V184.593H1022.16V190.678H1037.2ZM1003.72 191.809H1021.03V183.462H1003.72V191.809ZM1019.9 190.678V184.593H1004.85V190.678H1019.9ZM969.111 191.809H986.417V183.462H969.111V191.809ZM985.286 190.678V184.593H970.242V190.678H985.286ZM951.806 191.809H969.111V183.462H951.806V191.809ZM967.98 190.678V184.593H952.937V190.678H967.98ZM882.583 191.809H899.889V183.462H882.583V191.809ZM898.758 190.678V184.593H883.714V190.678H898.758ZM865.278 191.809H882.583V183.462H865.278V191.809ZM881.452 190.678V184.593H866.409V190.678H881.452ZM847.972 191.809H865.278V183.462H847.972V191.809ZM864.147 190.678V184.593H849.103V190.678H864.147ZM830.667 191.809H847.972V183.462H830.667V191.809ZM846.841 190.678V184.593H831.798V190.678H846.841ZM778.75 191.809H796.056V183.462H778.75V191.809ZM794.924 190.678V184.593H779.881V190.678H794.924ZM761.444 191.809H778.75V183.462H761.444V191.809ZM777.619 190.678V184.593H762.576V190.678H777.619ZM744.139 191.809H761.444V183.462H744.139V191.809ZM760.313 190.678V184.593H745.27V190.678H760.313ZM726.833 191.809H744.139V183.462H726.833V191.809ZM743.008 190.678V184.593H727.964V190.678H743.008ZM709.528 191.809H726.833V183.462H709.528V191.809ZM725.702 190.678V184.593H710.659V190.678H725.702ZM692.222 191.809H709.528V183.462H692.222V191.809ZM708.397 190.678V184.593H693.353V190.678H708.397ZM640.306 191.809H657.611V183.462H640.306V191.809ZM656.48 190.678V184.593H641.437V190.678H656.48ZM623 191.809H640.306V183.462H623V191.809ZM639.174 190.678V184.593H624.131V190.678H639.174ZM605.694 191.809H623V183.462H605.694V191.809ZM621.869 190.678V184.593H606.826V190.678H621.869ZM588.389 191.809H605.694V183.462H588.389V191.809ZM604.563 190.678V184.593H589.52V190.678H604.563ZM519.167 191.809H536.472V183.462H519.167V191.809ZM535.341 190.678V184.593H520.298V190.678H535.341ZM501.861 191.809H519.167V183.462H501.861V191.809ZM518.036 190.678V184.593H502.992V190.678H518.036ZM449.944 191.809H467.25V183.462H449.944V191.809ZM466.119 190.678V184.593H451.076V190.678H466.119ZM432.639 191.809H449.944V183.462H432.639V191.809ZM448.813 190.678V184.593H433.77V190.678H448.813ZM415.333 191.809H432.639V183.462H415.333V191.809ZM431.508 190.678V184.593H416.464V190.678H431.508ZM363.417 191.809H380.722V183.462H363.417V191.809ZM379.591 190.678V184.593H364.548V190.678H379.591ZM346.111 191.809H363.417V183.462H346.111V191.809ZM362.286 190.678V184.593H347.242V190.678H362.286ZM294.194 191.809H311.5V183.462H294.194V191.809ZM310.369 190.678V184.593H295.326V190.678H310.369ZM259.583 191.809H276.889V183.462H259.583V191.809ZM275.758 190.678V184.593H260.714V190.678H275.758ZM242.278 191.809H259.583V183.462H242.278V191.809ZM258.452 190.678V184.593H243.409V190.678H258.452ZM224.972 191.809H242.278V183.462H224.972V191.809ZM241.147 190.678V184.593H226.103V190.678H241.147ZM190.361 191.809H207.667V183.462H190.361V191.809ZM206.536 190.678V184.593H191.492V190.678H206.536ZM1038.33 183.462H1055.64V175.114H1038.33V183.462ZM1054.51 182.33V176.245H1039.46V182.33H1054.51ZM1021.03 183.462H1038.33V175.114H1021.03V183.462ZM1037.2 182.33V176.245H1022.16V182.33H1037.2ZM865.278 183.462H882.583V175.114H865.278V183.462ZM881.452 182.33V176.245H866.409V182.33H881.452ZM847.972 183.462H865.278V175.114H847.972V183.462ZM864.147 182.33V176.245H849.103V182.33H864.147ZM744.139 183.462H761.444V175.114H744.139V183.462ZM760.313 182.33V176.245H745.27V182.33H760.313ZM726.833 183.462H744.139V175.114H726.833V183.462ZM743.008 182.33V176.245H727.964V182.33H743.008ZM623 183.462H640.306V175.114H623V183.462ZM639.174 182.33V176.245H624.131V182.33H639.174ZM605.694 183.462H623V175.114H605.694V183.462ZM621.869 182.33V176.245H606.826V182.33H621.869ZM363.417 183.462H380.722V175.114H363.417V183.462ZM379.591 182.33V176.245H364.548V182.33H379.591ZM346.111 183.462H363.417V175.114H346.111V183.462ZM362.286 182.33V176.245H347.242V182.33H362.286ZM294.194 183.462H311.5V175.114H294.194V183.462ZM310.369 182.33V176.245H295.326V182.33H310.369ZM259.583 183.462H276.889V175.114H259.583V183.462ZM275.758 182.33V176.245H260.714V182.33H275.758ZM242.278 183.462H259.583V175.114H242.278V183.462ZM258.452 182.33V176.245H243.409V182.33H258.452ZM744.139 175.137H761.444V166.789H744.139V175.137ZM760.313 174.006V167.92H745.27V174.006H760.313ZM726.833 175.137H744.139V166.789H726.833V175.137ZM743.008 174.006V167.92H727.964V174.006H743.008ZM363.417 175.137H380.722V166.789H363.417V175.137ZM379.591 174.006V167.92H364.548V174.006H379.591ZM346.111 175.137H363.417V166.789H346.111V175.137ZM362.286 174.006V167.92H347.242V174.006H362.286ZM259.583 175.137H276.889V166.789H259.583V175.137ZM275.758 174.006V167.92H260.714V174.006H275.758ZM242.278 175.137H259.583V166.789H242.278V175.137ZM258.452 174.006V167.92H243.409V174.006H258.452ZM207.667 175.137H224.972V166.789H207.667V175.137ZM223.841 174.006V167.92H208.798V174.006H223.841ZM744.139 166.789H761.444V158.442H744.139V166.789ZM760.313 165.658V159.573H745.27V165.658H760.313ZM726.833 166.789H744.139V158.442H726.833V166.789ZM743.008 165.658V159.573H727.964V165.658H743.008ZM363.417 166.789H380.722V158.442H363.417V166.789ZM379.591 165.658V159.573H364.548V165.658H379.591ZM346.111 166.789H363.417V158.442H346.111V166.789ZM362.286 165.658V159.573H347.242V165.658H362.286ZM311.5 166.789H328.806V158.442H311.5V166.789ZM327.674 165.658V159.573H312.631V165.658H327.674ZM259.583 166.789H276.889V158.442H259.583V166.789ZM275.758 165.658V159.573H260.714V165.658H275.758ZM242.278 166.789H259.583V158.442H242.278V166.789ZM258.452 165.658V159.573H243.409V165.658H258.452ZM207.667 166.789H224.972V158.442H207.667V166.789ZM223.841 165.658V159.573H208.798V165.658H223.841ZM761.444 158.442H778.75V150.095H761.444V158.442ZM777.619 157.311V151.226H762.576V157.311H777.619ZM744.139 158.442H761.444V150.095H744.139V158.442ZM760.313 157.311V151.226H745.27V157.311H760.313ZM726.833 158.442H744.139V150.095H726.833V158.442ZM743.008 157.311V151.226H727.964V157.311H743.008ZM380.722 158.442H398.028V150.095H380.722V158.442ZM396.897 157.311V151.226H381.853V157.311H396.897ZM363.417 158.442H380.722V150.095H363.417V158.442ZM379.591 157.311V151.226H364.548V157.311H379.591ZM346.111 158.442H363.417V150.095H346.111V158.442ZM362.286 157.311V151.226H347.242V157.311H362.286ZM311.5 158.442H328.806V150.095H311.5V158.442ZM327.674 157.311V151.226H312.631V157.311H327.674ZM259.583 158.442H276.889V150.095H259.583V158.442ZM275.758 157.311V151.226H260.714V157.311H275.758ZM242.278 158.442H259.583V150.095H242.278V158.442ZM258.452 157.311V151.226H243.409V157.311H258.452ZM207.667 158.442H224.972V150.095H207.667V158.442ZM223.841 157.311V151.226H208.798V157.311H223.841ZM761.444 150.117H778.75V141.77H761.444V150.117ZM777.619 148.986V142.901H762.576V148.986H777.619ZM744.139 150.117H761.444V141.77H744.139V150.117ZM760.313 148.986V142.901H745.27V148.986H760.313ZM380.722 150.117H398.028V141.77H380.722V150.117ZM396.897 148.986V142.901H381.853V148.986H396.897ZM363.417 150.117H380.722V141.77H363.417V150.117ZM379.591 148.986V142.901H364.548V148.986H379.591ZM346.111 150.117H363.417V141.77H346.111V150.117ZM362.286 148.986V142.901H347.242V148.986H362.286ZM311.5 150.117H328.806V141.77H311.5V150.117ZM327.674 148.986V142.901H312.631V148.986H327.674ZM276.889 150.117H294.194V141.77H276.889V150.117ZM293.063 148.986V142.901H278.02V148.986H293.063ZM259.583 150.117H276.889V141.77H259.583V150.117ZM275.758 148.986V142.901H260.714V148.986H275.758ZM242.278 150.117H259.583V141.77H242.278V150.117ZM258.452 148.986V142.901H243.409V148.986H258.452ZM761.444 141.77H778.75V133.422H761.444V141.77ZM777.619 140.639V134.554H762.576V140.639H777.619ZM744.139 141.77H761.444V133.422H744.139V141.77ZM760.313 140.639V134.554H745.27V140.639H760.313ZM380.722 141.77H398.028V133.422H380.722V141.77ZM396.897 140.639V134.554H381.853V140.639H396.897ZM363.417 141.77H380.722V133.422H363.417V141.77ZM379.591 140.639V134.554H364.548V140.639H379.591ZM276.889 141.77H294.194V133.422H276.889V141.77ZM293.063 140.639V134.554H278.02V140.639H293.063ZM259.583 141.77H276.889V133.422H259.583V141.77ZM275.758 140.639V134.554H260.714V140.639H275.758ZM242.278 141.77H259.583V133.422H242.278V141.77ZM258.452 140.639V134.554H243.409V140.639H258.452ZM224.972 141.77H242.278V133.422H224.972V141.77ZM241.147 140.639V134.554H226.103V140.639H241.147ZM761.444 133.422H778.75V125.075H761.444V133.422ZM777.619 132.291V126.206H762.576V132.291H777.619ZM744.139 133.422H761.444V125.075H744.139V133.422ZM760.313 132.291V126.206H745.27V132.291H760.313ZM380.722 133.422H398.028V125.075H380.722V133.422ZM396.897 132.291V126.206H381.853V132.291H396.897ZM363.417 133.422H380.722V125.075H363.417V133.422ZM379.591 132.291V126.206H364.548V132.291H379.591ZM328.806 133.422H346.111V125.075H328.806V133.422ZM344.98 132.291V126.206H329.937V132.291H344.98ZM276.889 133.422H294.194V125.075H276.889V133.422ZM293.063 132.291V126.206H278.02V132.291H293.063ZM259.583 133.422H276.889V125.075H259.583V133.422ZM275.758 132.291V126.206H260.714V132.291H275.758ZM224.972 133.422H242.278V125.075H224.972V133.422ZM241.147 132.291V126.206H226.103V132.291H241.147ZM761.444 125.098H778.75V116.75H761.444V125.098ZM777.619 123.967V117.881H762.576V123.967H777.619ZM744.139 125.098H761.444V116.75H744.139V125.098ZM760.313 123.967V117.881H745.27V123.967H760.313ZM380.722 125.098H398.028V116.75H380.722V125.098ZM396.897 123.967V117.881H381.853V123.967H396.897ZM363.417 125.098H380.722V116.75H363.417V125.098ZM379.591 123.967V117.881H364.548V123.967H379.591ZM328.806 125.098H346.111V116.75H328.806V125.098ZM344.98 123.967V117.881H329.937V123.967H344.98ZM276.889 125.098H294.194V116.75H276.889V125.098ZM293.063 123.967V117.881H278.02V123.967H293.063ZM259.583 125.098H276.889V116.75H259.583V125.098ZM275.758 123.967V117.881H260.714V123.967H275.758ZM224.972 125.098H242.278V116.75H224.972V125.098ZM241.147 123.967V117.881H226.103V123.967H241.147ZM380.722 116.75H398.028V108.403H380.722V116.75ZM396.897 115.619V109.534H381.853V115.619H396.897ZM363.417 116.75H380.722V108.403H363.417V116.75ZM379.591 115.619V109.534H364.548V115.619H379.591ZM328.806 116.75H346.111V108.403H328.806V116.75ZM344.98 115.619V109.534H329.937V115.619H344.98ZM276.889 116.75H294.194V108.403H276.889V116.75ZM293.063 115.619V109.534H278.02V115.619H293.063ZM259.583 116.75H276.889V108.403H259.583V116.75ZM275.758 115.619V109.534H260.714V115.619H275.758ZM398.028 108.403H415.333V100.056H398.028V108.403ZM414.202 107.272V101.187H399.159V107.272H414.202ZM380.722 108.403H398.028V100.056H380.722V108.403ZM396.897 107.272V101.187H381.853V107.272H396.897ZM346.111 108.403H363.417V100.056H346.111V108.403ZM362.286 107.272V101.187H347.242V107.272H362.286ZM276.889 108.403H294.194V100.056H276.889V108.403ZM293.063 107.272V101.187H278.02V107.272H293.063ZM242.278 108.403H259.583V100.056H242.278V108.403ZM258.452 107.272V101.187H243.409V107.272H258.452ZM398.028 100.078H415.333V91.7308H398.028V100.078ZM414.202 98.9471V92.8618H399.159V98.9471H414.202ZM380.722 100.078H398.028V91.7308H380.722V100.078ZM396.897 98.9471V92.8618H381.853V98.9471H396.897ZM346.111 100.078H363.417V91.7308H346.111V100.078ZM362.286 98.9471V92.8618H347.242V98.9471H362.286ZM294.194 100.078H311.5V91.7308H294.194V100.078ZM310.369 98.9471V92.8618H295.326V98.9471H310.369ZM276.889 100.078H294.194V91.7308H276.889V100.078ZM293.063 98.9471V92.8618H278.02V98.9471H293.063ZM242.278 100.078H259.583V91.7308H242.278V100.078ZM258.452 98.9471V92.8618H243.409V98.9471H258.452ZM398.028 91.7308H415.333V83.3834H398.028V91.7308ZM414.202 90.5997V84.5145H399.159V90.5997H414.202ZM380.722 91.7308H398.028V83.3834H380.722V91.7308ZM396.897 90.5997V84.5145H381.853V90.5997H396.897ZM346.111 91.7308H363.417V83.3834H346.111V91.7308ZM362.286 90.5997V84.5145H347.242V90.5997H362.286ZM294.194 91.7308H311.5V83.3834H294.194V91.7308ZM310.369 90.5997V84.5145H295.326V90.5997H310.369ZM276.889 91.7308H294.194V83.3834H276.889V91.7308ZM293.063 90.5997V84.5145H278.02V90.5997H293.063ZM398.028 83.3834H415.333V75.036H398.028V83.3834ZM414.202 82.2523V76.1671H399.159V82.2523H414.202ZM363.417 83.3834H380.722V75.036H363.417V83.3834ZM379.591 82.2523V76.1671H364.548V82.2523H379.591ZM294.194 83.3834H311.5V75.036H294.194V83.3834ZM310.369 82.2523V76.1671H295.326V82.2523H310.369ZM276.889 83.3834H294.194V75.036H276.889V83.3834ZM293.063 82.2523V76.1671H278.02V82.2523H293.063ZM259.583 83.3834H276.889V75.036H259.583V83.3834ZM275.758 82.2523V76.1671H260.714V82.2523H275.758ZM398.028 75.0586H415.333V66.7112H398.028V75.0586ZM414.202 73.9275V67.8423H399.159V73.9275H414.202ZM363.417 75.0586H380.722V66.7112H363.417V75.0586ZM379.591 73.9275V67.8423H364.548V73.9275H379.591ZM294.194 75.0586H311.5V66.7112H294.194V75.0586ZM310.369 73.9275V67.8423H295.326V73.9275H310.369ZM259.583 75.0586H276.889V66.7112H259.583V75.0586ZM275.758 73.9275V67.8423H260.714V73.9275H275.758ZM415.333 66.7112H432.639V58.3638H415.333V66.7112ZM431.508 65.5801V59.4949H416.464V65.5801H431.508ZM398.028 66.7112H415.333V58.3638H398.028V66.7112ZM414.202 65.5801V59.4949H399.159V65.5801H414.202ZM363.417 66.7112H380.722V58.3638H363.417V66.7112ZM379.591 65.5801V59.4949H364.548V65.5801H379.591ZM294.194 66.7112H311.5V58.3638H294.194V66.7112ZM310.369 65.5801V59.4949H295.326V65.5801H310.369ZM276.889 66.7112H294.194V58.3638H276.889V66.7112ZM293.063 65.5801V59.4949H278.02V65.5801H293.063ZM415.333 58.3865H432.639V50.0391H415.333V58.3865ZM431.508 57.2554V51.1702H416.464V57.2554H431.508ZM398.028 58.3865H415.333V50.0391H398.028V58.3865ZM414.202 57.2554V51.1702H399.159V57.2554H414.202ZM380.722 58.3865H398.028V50.0391H380.722V58.3865ZM396.897 57.2554V51.1702H381.853V57.2554H396.897ZM311.5 58.3865H328.806V50.0391H311.5V58.3865ZM327.674 57.2554V51.1702H312.631V57.2554H327.674ZM294.194 58.3865H311.5V50.0391H294.194V58.3865ZM310.369 57.2554V51.1702H295.326V57.2554H310.369ZM276.889 58.3865H294.194V50.0391H276.889V58.3865ZM293.063 57.2554V51.1702H278.02V57.2554H293.063ZM415.333 50.0391H432.639V41.6917H415.333V50.0391ZM431.508 48.908V42.8228H416.464V48.908H431.508ZM311.5 50.0391H328.806V41.6917H311.5V50.0391ZM327.674 48.908V42.8228H312.631V48.908H327.674ZM294.194 50.0391H311.5V41.6917H294.194V50.0391ZM310.369 48.908V42.8228H295.326V48.908H310.369ZM415.333 41.6917H432.639V33.3443H415.333V41.6917ZM431.508 40.5606V34.4754H416.464V40.5606H431.508ZM398.028 41.6917H415.333V33.3443H398.028V41.6917ZM414.202 40.5606V34.4754H399.159V40.5606H414.202ZM311.5 41.6917H328.806V33.3443H311.5V41.6917ZM327.674 40.5606V34.4754H312.631V40.5606H327.674ZM294.194 41.6917H311.5V33.3443H294.194V41.6917ZM310.369 40.5606V34.4754H295.326V40.5606H310.369ZM432.639 33.3669H449.944V25.0195H432.639V33.3669ZM448.813 32.2358V26.1506H433.77V32.2358H448.813ZM398.028 33.3669H415.333V25.0195H398.028V33.3669ZM414.202 32.2358V26.1506H399.159V32.2358H414.202ZM328.806 33.3669H346.111V25.0195H328.806V33.3669ZM344.98 32.2358V26.1506H329.937V32.2358H344.98ZM311.5 33.3669H328.806V25.0195H311.5V33.3669ZM327.674 32.2358V26.1506H312.631V32.2358H327.674ZM484.556 25.0195H501.861V16.6721H484.556V25.0195ZM500.73 23.8885V17.8032H485.687V23.8885H500.73ZM467.25 25.0195H484.556V16.6721H467.25V25.0195ZM483.424 23.8885V17.8032H468.381V23.8885H483.424ZM449.944 25.0195H467.25V16.6721H449.944V25.0195ZM466.119 23.8885V17.8032H451.076V23.8885H466.119ZM432.639 25.0195H449.944V16.6721H432.639V25.0195ZM448.813 23.8885V17.8032H433.77V23.8885H448.813ZM415.333 25.0195H432.639V16.6721H415.333V25.0195ZM431.508 23.8885V17.8032H416.464V23.8885H431.508ZM328.806 25.0195H346.111V16.6721H328.806V25.0195ZM344.98 23.8885V17.8032H329.937V23.8885H344.98ZM311.5 25.0195H328.806V16.6721H311.5V25.0195ZM327.674 23.8885V17.8032H312.631V23.8885H327.674ZM484.556 16.6721H501.861V8.32476H484.556V16.6721ZM500.73 15.5411V9.45585H485.687V15.5411H500.73ZM467.25 16.6721H484.556V8.32476H467.25V16.6721ZM483.424 15.5411V9.45585H468.381V15.5411H483.424ZM449.944 16.6721H467.25V8.32476H449.944V16.6721ZM466.119 15.5411V9.45585H451.076V15.5411H466.119ZM432.639 16.6721H449.944V8.32476H432.639V16.6721ZM448.813 15.5411V9.45585H433.77V15.5411H448.813ZM346.111 16.6721H363.417V8.32476H346.111V16.6721ZM362.286 15.5411V9.45585H347.242V15.5411H362.286ZM328.806 16.6721H346.111V8.32476H328.806V16.6721ZM344.98 15.5411V9.45585H329.937V15.5411H344.98ZM484.556 8.34739H501.861V0H484.556V8.34739ZM500.73 7.2163V1.13108H485.687V7.2163H500.73ZM467.25 8.34739H484.556V0H467.25V8.34739ZM483.424 7.2163V1.13108H468.381V7.2163H483.424ZM449.944 8.34739H467.25V0H449.944V8.34739ZM466.119 7.2163V1.13108H451.076V7.2163H466.119ZM346.111 8.34739H363.417V0H346.111V8.34739ZM362.286 7.2163V1.13108H347.242V7.2163H362.286Z" fill="var(--fill-0, #0000FF)"/>
</svg>
