<svg preserveAspectRatio="none" width="100%" height="100%" overflow="visible" style="display: block;" viewBox="0 0 1256.3 360.6" fill="none" xmlns="http://www.w3.org/2000/svg">
<path id="Vector" d="M596.731 354.954H612.44V360.6H596.731V354.954ZM581.044 360.6H596.753V354.954H581.044V360.6ZM565.334 360.6H581.044V354.954H565.334V360.6ZM549.625 360.6H565.334V354.954H549.625V360.6ZM612.44 354.954H628.149V349.331H612.44V354.954ZM596.731 354.954H612.44V349.331H596.731V354.954ZM581.044 354.954H596.753V349.331H581.044V354.954ZM565.334 354.954H581.044V349.331H565.334V354.954ZM549.625 354.954H565.334V349.331H549.625V354.954ZM533.916 354.954H549.625V349.331H533.916V354.954ZM628.149 349.331H643.858V343.686H628.149V349.331ZM612.44 349.331H628.149V343.686H612.44V349.331ZM549.625 349.331H565.334V343.686H549.625V349.331ZM533.916 349.331H549.625V343.686H533.916V349.331ZM643.858 343.686H659.568V338.062H643.858V343.686ZM628.149 343.686H643.858V338.062H628.149V343.686ZM612.44 343.686H628.149V338.062H612.44V343.686ZM533.916 343.686H549.625V338.062H533.916V343.686ZM518.229 343.686H533.938V338.062H518.229V343.686ZM643.858 338.062H659.568V332.417H643.858V338.062ZM628.149 338.062H643.858V332.417H628.149V338.062ZM533.916 338.062H549.625V332.417H533.916V338.062ZM518.229 338.062H533.938V332.417H518.229V338.062ZM659.545 332.417H675.255V326.794H659.545V332.417ZM643.858 332.417H659.568V326.794H643.858V332.417ZM628.149 332.417H643.858V326.794H628.149V332.417ZM533.916 332.417H549.625V326.794H533.916V332.417ZM518.229 332.417H533.938V326.794H518.229V332.417ZM659.545 326.794H675.255V321.148H659.545V326.794ZM643.858 326.794H659.568V321.148H643.858V326.794ZM533.916 326.794H549.625V321.148H533.916V326.794ZM518.229 326.794H533.938V321.148H518.229V326.794ZM675.255 321.148H690.964V315.503H675.255V321.148ZM659.545 321.148H675.255V315.503H659.545V321.148ZM643.858 321.148H659.568V315.503H643.858V321.148ZM533.916 321.148H549.625V315.503H533.916V321.148ZM518.229 321.148H533.938V315.503H518.229V321.148ZM675.255 315.525H690.964V309.902H675.255V315.525ZM659.545 315.525H675.255V309.902H659.545V315.525ZM533.916 315.525H549.625V309.902H533.916V315.525ZM518.229 315.525H533.938V309.902H518.229V315.525ZM690.964 309.879H706.673V304.234H690.964V309.879ZM675.255 309.879H690.964V304.234H675.255V309.879ZM659.545 309.879H675.255V304.234H659.545V309.879ZM533.916 309.879H549.625V304.234H533.916V309.879ZM518.229 309.879H533.938V304.234H518.229V309.879ZM690.964 304.256H706.673V298.633H690.964V304.256ZM675.255 304.256H690.964V298.633H675.255V304.256ZM659.545 304.256H675.255V298.633H659.545V304.256ZM533.916 304.256H549.625V298.633H533.916V304.256ZM518.229 304.256H533.938V298.633H518.229V304.256ZM690.964 298.611H706.673V292.965H690.964V298.611ZM675.255 298.611H690.964V292.965H675.255V298.611ZM659.545 298.611H675.255V292.965H659.545V298.611ZM533.916 298.611H549.625V292.965H533.916V298.611ZM518.229 298.611H533.938V292.965H518.229V298.611ZM690.964 292.987H706.673V287.342H690.964V292.987ZM675.255 292.987H690.964V287.342H675.255V292.987ZM533.916 292.987H549.625V287.342H533.916V292.987ZM518.229 292.987H533.938V287.342H518.229V292.987ZM690.964 287.342H706.673V281.719H690.964V287.342ZM675.255 287.342H690.964V281.719H675.255V287.342ZM549.625 287.342H565.334V281.719H549.625V287.342ZM533.916 287.342H549.625V281.719H533.916V287.342ZM706.673 281.719H722.383V276.073H706.673V281.719ZM690.964 281.719H706.673V276.073H690.964V281.719ZM675.255 281.719H690.964V276.073H675.255V281.719ZM565.334 281.719H581.044V276.073H565.334V281.719ZM549.625 281.719H565.334V276.073H549.625V281.719ZM533.916 281.719H549.625V276.073H533.916V281.719ZM706.673 276.073H722.383V270.45H706.673V276.073ZM690.964 276.073H706.673V270.45H690.964V276.073ZM675.255 276.073H690.964V270.45H675.255V276.073ZM565.334 276.073H581.044V270.45H565.334V276.073ZM549.625 276.073H565.334V270.45H549.625V276.073ZM706.673 270.45H722.383V264.804H706.673V270.45ZM690.964 270.45H706.673V264.804H690.964V270.45ZM722.36 264.804H738.07V259.159H722.36V264.804ZM706.673 264.804H722.383V259.159H706.673V264.804ZM690.964 264.804H706.673V259.159H690.964V264.804ZM1146.38 259.181H1162.09V253.558H1146.38V259.181ZM942.224 259.181H957.933V253.558H942.224V259.181ZM926.514 259.181H942.224V253.558H926.514V259.181ZM910.805 259.181H926.514V253.558H910.805V259.181ZM816.594 259.181H832.303V253.558H816.594V259.181ZM738.07 259.181H753.779V253.558H738.07V259.181ZM722.36 259.181H738.07V253.558H722.36V259.181ZM706.673 259.181H722.383V253.558H706.673V259.181ZM690.964 259.181H706.673V253.558H690.964V259.181ZM549.625 259.181H565.334V253.558H549.625V259.181ZM471.101 259.181H486.81V253.558H471.101V259.181ZM376.889 259.181H392.599V253.558H376.889V259.181ZM361.18 259.181H376.889V253.558H361.18V259.181ZM345.471 259.181H361.18V253.558H345.471V259.181ZM251.26 259.181H266.969V253.558H251.26V259.181ZM235.55 259.181H251.26V253.558H235.55V259.181ZM47.1056 259.181H62.8149V253.558H47.1056V259.181ZM1162.06 253.536H1177.77V247.89H1162.06V253.536ZM1146.38 253.536H1162.09V247.89H1146.38V253.536ZM1130.67 253.536H1146.38V247.89H1130.67V253.536ZM1052.14 253.536H1067.85V247.89H1052.14V253.536ZM1036.43 253.536H1052.14V247.89H1036.43V253.536ZM1020.75 253.536H1036.46V247.89H1020.75V253.536ZM957.933 253.536H973.642V247.89H957.933V253.536ZM942.224 253.536H957.933V247.89H942.224V253.536ZM910.805 253.536H926.514V247.89H910.805V253.536ZM895.118 253.536H910.827V247.89H895.118V253.536ZM832.303 253.536H848.012V247.89H832.303V253.536ZM816.594 253.536H832.303V247.89H816.594V253.536ZM800.885 253.536H816.594V247.89H800.885V253.536ZM753.779 253.536H769.488V247.89H753.779V253.536ZM722.36 253.536H738.07V247.89H722.36V253.536ZM706.673 253.536H722.383V247.89H706.673V253.536ZM675.255 253.536H690.964V247.89H675.255V253.536ZM659.545 253.536H675.255V247.89H659.545V253.536ZM643.858 253.536H659.568V247.89H643.858V253.536ZM581.044 253.536H596.753V247.89H581.044V253.536ZM565.334 253.536H581.044V247.89H565.334V253.536ZM549.625 253.536H565.334V247.89H549.625V253.536ZM533.916 253.536H549.625V247.89H533.916V253.536ZM486.81 253.536H502.519V247.89H486.81V253.536ZM471.101 253.536H486.81V247.89H471.101V253.536ZM455.414 253.536H471.123V247.89H455.414V253.536ZM392.599 253.536H408.308V247.89H392.599V253.536ZM376.889 253.536H392.599V247.89H376.889V253.536ZM361.18 253.536H376.889V247.89H361.18V253.536ZM345.471 253.536H361.18V247.89H345.471V253.536ZM329.784 253.536H345.493V247.89H329.784V253.536ZM266.969 253.536H282.678V247.89H266.969V253.536ZM235.55 253.536H251.26V247.89H235.55V253.536ZM219.841 253.536H235.55V247.89H219.841V253.536ZM94.2335 253.536H109.943V247.89H94.2335V253.536ZM78.5242 253.536H94.2335V247.89H78.5242V253.536ZM62.8149 253.536H78.5242V247.89H62.8149V253.536ZM31.4186 253.536H47.1279V247.89H31.4186V253.536ZM15.7093 253.536H31.4186V247.89H15.7093V253.536ZM1162.06 247.912H1177.77V242.289H1162.06V247.912ZM1146.38 247.912H1162.09V242.289H1146.38V247.912ZM1130.67 247.912H1146.38V242.289H1130.67V247.912ZM1052.14 247.912H1067.85V242.289H1052.14V247.912ZM1036.43 247.912H1052.14V242.289H1036.43V247.912ZM1020.75 247.912H1036.46V242.289H1020.75V247.912ZM973.62 247.912H989.329V242.289H973.62V247.912ZM957.933 247.912H973.642V242.289H957.933V247.912ZM910.805 247.912H926.514V242.289H910.805V247.912ZM895.118 247.912H910.827V242.289H895.118V247.912ZM847.99 247.912H863.699V242.289H847.99V247.912ZM816.594 247.912H832.303V242.289H816.594V247.912ZM800.885 247.912H816.594V242.289H800.885V247.912ZM753.779 247.912H769.488V242.289H753.779V247.912ZM722.36 247.912H738.07V242.289H722.36V247.912ZM706.673 247.912H722.383V242.289H706.673V247.912ZM690.964 247.912H706.673V242.289H690.964V247.912ZM675.255 247.912H690.964V242.289H675.255V247.912ZM659.545 247.912H675.255V242.289H659.545V247.912ZM643.858 247.912H659.568V242.289H643.858V247.912ZM628.149 247.912H643.858V242.289H628.149V247.912ZM581.044 247.912H596.753V242.289H581.044V247.912ZM549.625 247.912H565.334V242.289H549.625V247.912ZM533.916 247.912H549.625V242.289H533.916V247.912ZM486.81 247.912H502.519V242.289H486.81V247.912ZM471.101 247.912H486.81V242.289H471.101V247.912ZM455.414 247.912H471.123V242.289H455.414V247.912ZM408.286 247.912H423.995V242.289H408.286V247.912ZM392.599 247.912H408.308V242.289H392.599V247.912ZM376.889 247.912H392.599V242.289H376.889V247.912ZM361.18 247.912H376.889V242.289H361.18V247.912ZM345.471 247.912H361.18V242.289H345.471V247.912ZM329.784 247.912H345.493V242.289H329.784V247.912ZM282.656 247.912H298.365V242.289H282.656V247.912ZM266.969 247.912H282.678V242.289H266.969V247.912ZM235.55 247.912H251.26V242.289H235.55V247.912ZM219.841 247.912H235.55V242.289H219.841V247.912ZM109.921 247.912H125.63V242.289H109.921V247.912ZM94.2335 247.912H109.943V242.289H94.2335V247.912ZM78.5242 247.912H94.2335V242.289H78.5242V247.912ZM15.7093 247.912H31.4186V242.289H15.7093V247.912ZM1177.77 242.267H1193.48V236.621H1177.77V242.267ZM1130.67 242.267H1146.38V236.621H1130.67V242.267ZM1052.14 242.267H1067.85V236.621H1052.14V242.267ZM1036.43 242.267H1052.14V236.621H1036.43V242.267ZM973.62 242.267H989.329V236.621H973.62V242.267ZM957.933 242.267H973.642V236.621H957.933V242.267ZM910.805 242.267H926.514V236.621H910.805V242.267ZM895.118 242.267H910.827V236.621H895.118V242.267ZM847.99 242.267H863.699V236.621H847.99V242.267ZM816.594 242.267H832.303V236.621H816.594V242.267ZM800.885 242.267H816.594V236.621H800.885V242.267ZM753.779 242.267H769.488V236.621H753.779V242.267ZM722.36 242.267H738.07V236.621H722.36V242.267ZM706.673 242.267H722.383V236.621H706.673V242.267ZM690.964 242.267H706.673V236.621H690.964V242.267ZM659.545 242.267H675.255V236.621H659.545V242.267ZM643.858 242.267H659.568V236.621H643.858V242.267ZM628.149 242.267H643.858V236.621H628.149V242.267ZM596.731 242.267H612.44V236.621H596.731V242.267ZM581.044 242.267H596.753V236.621H581.044V242.267ZM549.625 242.267H565.334V236.621H549.625V242.267ZM533.916 242.267H549.625V236.621H533.916V242.267ZM502.519 242.267H518.229V236.621H502.519V242.267ZM471.101 242.267H486.81V236.621H471.101V242.267ZM455.414 242.267H471.123V236.621H455.414V242.267ZM408.286 242.267H423.995V236.621H408.286V242.267ZM345.471 242.267H361.18V236.621H345.471V242.267ZM329.784 242.267H345.493V236.621H329.784V242.267ZM282.656 242.267H298.365V236.621H282.656V242.267ZM235.55 242.267H251.26V236.621H235.55V242.267ZM219.841 242.267H235.55V236.621H219.841V242.267ZM109.921 242.267H125.63V236.621H109.921V242.267ZM94.2335 242.267H109.943V236.621H94.2335V242.267ZM15.7093 242.267H31.4186V236.621H15.7093V242.267ZM1177.77 236.644H1193.48V230.998H1177.77V236.644ZM1130.67 236.644H1146.38V230.998H1130.67V236.644ZM1052.14 236.644H1067.85V230.998H1052.14V236.644ZM1036.43 236.644H1052.14V230.998H1036.43V236.644ZM989.329 236.644H1005.04V230.998H989.329V236.644ZM973.62 236.644H989.329V230.998H973.62V236.644ZM957.933 236.644H973.642V230.998H957.933V236.644ZM910.805 236.644H926.514V230.998H910.805V236.644ZM895.118 236.644H910.827V230.998H895.118V236.644ZM847.99 236.644H863.699V230.998H847.99V236.644ZM816.594 236.644H832.303V230.998H816.594V236.644ZM800.885 236.644H816.594V230.998H800.885V236.644ZM769.488 236.644H785.198V230.998H769.488V236.644ZM722.36 236.644H738.07V230.998H722.36V236.644ZM706.673 236.644H722.383V230.998H706.673V236.644ZM690.964 236.644H706.673V230.998H690.964V236.644ZM659.545 236.644H675.255V230.998H659.545V236.644ZM643.858 236.644H659.568V230.998H643.858V236.644ZM628.149 236.644H643.858V230.998H628.149V236.644ZM596.731 236.644H612.44V230.998H596.731V236.644ZM549.625 236.644H565.334V230.998H549.625V236.644ZM533.916 236.644H549.625V230.998H533.916V236.644ZM502.519 236.644H518.229V230.998H502.519V236.644ZM471.101 236.644H486.81V230.998H471.101V236.644ZM455.414 236.644H471.123V230.998H455.414V236.644ZM423.995 236.644H439.704V230.998H423.995V236.644ZM408.286 236.644H423.995V230.998H408.286V236.644ZM345.471 236.644H361.18V230.998H345.471V236.644ZM329.784 236.644H345.493V230.998H329.784V236.644ZM314.075 236.644H329.784V230.998H314.075V236.644ZM282.656 236.644H298.365V230.998H282.656V236.644ZM235.55 236.644H251.26V230.998H235.55V236.644ZM219.841 236.644H235.55V230.998H219.841V236.644ZM109.921 236.644H125.63V230.998H109.921V236.644ZM94.2335 236.644H109.943V230.998H94.2335V236.644ZM15.7093 236.644H31.4186V230.998H15.7093V236.644ZM0 236.644H15.7093V230.998H0V236.644ZM1193.48 230.998H1209.19V225.375H1193.48V230.998ZM1146.38 230.998H1162.09V225.375H1146.38V230.998ZM1130.67 230.998H1146.38V225.375H1130.67V230.998ZM1067.85 230.998H1083.56V225.375H1067.85V230.998ZM1052.14 230.998H1067.85V225.375H1052.14V230.998ZM1036.43 230.998H1052.14V225.375H1036.43V230.998ZM989.329 230.998H1005.04V225.375H989.329V230.998ZM973.62 230.998H989.329V225.375H973.62V230.998ZM910.805 230.998H926.514V225.375H910.805V230.998ZM895.118 230.998H910.827V225.375H895.118V230.998ZM863.699 230.998H879.409V225.375H863.699V230.998ZM816.594 230.998H832.303V225.375H816.594V230.998ZM800.885 230.998H816.594V225.375H800.885V230.998ZM785.175 230.998H800.885V225.375H785.175V230.998ZM738.07 230.998H753.779V225.375H738.07V230.998ZM722.36 230.998H738.07V225.375H722.36V230.998ZM706.673 230.998H722.383V225.375H706.673V230.998ZM643.858 230.998H659.568V225.375H643.858V230.998ZM628.149 230.998H643.858V225.375H628.149V230.998ZM549.625 230.998H565.334V225.375H549.625V230.998ZM533.916 230.998H549.625V225.375H533.916V230.998ZM518.229 230.998H533.938V225.375H518.229V230.998ZM471.101 230.998H486.81V225.375H471.101V230.998ZM455.414 230.998H471.123V225.375H455.414V230.998ZM423.995 230.998H439.704V225.375H423.995V230.998ZM345.471 230.998H361.18V225.375H345.471V230.998ZM329.784 230.998H345.493V225.375H329.784V230.998ZM314.075 230.998H329.784V225.375H314.075V230.998ZM298.365 230.998H314.075V225.375H298.365V230.998ZM235.55 230.998H251.26V225.375H235.55V230.998ZM219.841 230.998H235.55V225.375H219.841V230.998ZM125.63 230.998H141.339V225.375H125.63V230.998ZM109.921 230.998H125.63V225.375H109.921V230.998ZM15.7093 230.998H31.4186V225.375H15.7093V230.998ZM0 230.998H15.7093V225.375H0V230.998ZM1193.48 225.375H1209.19V219.729H1193.48V225.375ZM1146.38 225.375H1162.09V219.729H1146.38V225.375ZM1130.67 225.375H1146.38V219.729H1130.67V225.375ZM1067.85 225.375H1083.56V219.729H1067.85V225.375ZM1052.14 225.375H1067.85V219.729H1052.14V225.375ZM1036.43 225.375H1052.14V219.729H1036.43V225.375ZM989.329 225.375H1005.04V219.729H989.329V225.375ZM973.62 225.375H989.329V219.729H973.62V225.375ZM910.805 225.375H926.514V219.729H910.805V225.375ZM895.118 225.375H910.827V219.729H895.118V225.375ZM863.699 225.375H879.409V219.729H863.699V225.375ZM816.594 225.375H832.303V219.729H816.594V225.375ZM800.885 225.375H816.594V219.729H800.885V225.375ZM785.175 225.375H800.885V219.729H785.175V225.375ZM738.07 225.375H753.779V219.729H738.07V225.375ZM722.36 225.375H738.07V219.729H722.36V225.375ZM706.673 225.375H722.383V219.729H706.673V225.375ZM643.858 225.375H659.568V219.729H643.858V225.375ZM628.149 225.375H643.858V219.729H628.149V225.375ZM612.44 225.375H628.149V219.729H612.44V225.375ZM565.334 225.375H581.044V219.729H565.334V225.375ZM549.625 225.375H565.334V219.729H549.625V225.375ZM533.916 225.375H549.625V219.729H533.916V225.375ZM518.229 225.375H533.938V219.729H518.229V225.375ZM471.101 225.375H486.81V219.729H471.101V225.375ZM455.414 225.375H471.123V219.729H455.414V225.375ZM439.704 225.375H455.414V219.729H439.704V225.375ZM345.471 225.375H361.18V219.729H345.471V225.375ZM329.784 225.375H345.493V219.729H329.784V225.375ZM314.075 225.375H329.784V219.729H314.075V225.375ZM298.365 225.375H314.075V219.729H298.365V225.375ZM235.55 225.375H251.26V219.729H235.55V225.375ZM219.841 225.375H235.55V219.729H219.841V225.375ZM141.339 225.375H157.048V219.729H141.339V225.375ZM125.63 225.375H141.339V219.729H125.63V225.375ZM109.921 225.375H125.63V219.729H109.921V225.375ZM15.7093 225.375H31.4186V219.729H15.7093V225.375ZM0 225.375H15.7093V219.729H0V225.375ZM1193.48 219.729H1209.19V214.106H1193.48V219.729ZM1146.38 219.729H1162.09V214.106H1146.38V219.729ZM1130.67 219.729H1146.38V214.106H1130.67V219.729ZM1067.85 219.729H1083.56V214.106H1067.85V219.729ZM1052.14 219.729H1067.85V214.106H1052.14V219.729ZM1036.43 219.729H1052.14V214.106H1036.43V219.729ZM1005.04 219.729H1020.75V214.106H1005.04V219.729ZM989.329 219.729H1005.04V214.106H989.329V219.729ZM973.62 219.729H989.329V214.106H973.62V219.729ZM910.805 219.729H926.514V214.106H910.805V219.729ZM895.118 219.729H910.827V214.106H895.118V219.729ZM879.409 219.729H895.118V214.106H879.409V219.729ZM816.594 219.729H832.303V214.106H816.594V219.729ZM800.885 219.729H816.594V214.106H800.885V219.729ZM785.175 219.729H800.885V214.106H785.175V219.729ZM738.07 219.729H753.779V214.106H738.07V219.729ZM722.36 219.729H738.07V214.106H722.36V219.729ZM706.673 219.729H722.383V214.106H706.673V219.729ZM643.858 219.729H659.568V214.106H643.858V219.729ZM628.149 219.729H643.858V214.106H628.149V219.729ZM612.44 219.729H628.149V214.106H612.44V219.729ZM565.334 219.729H581.044V214.106H565.334V219.729ZM549.625 219.729H565.334V214.106H549.625V219.729ZM533.916 219.729H549.625V214.106H533.916V219.729ZM471.101 219.729H486.81V214.106H471.101V219.729ZM455.414 219.729H471.123V214.106H455.414V219.729ZM439.704 219.729H455.414V214.106H439.704V219.729ZM345.471 219.729H361.18V214.106H345.471V219.729ZM329.784 219.729H345.493V214.106H329.784V219.729ZM314.075 219.729H329.784V214.106H314.075V219.729ZM251.26 219.729H266.969V214.106H251.26V219.729ZM235.55 219.729H251.26V214.106H235.55V219.729ZM219.841 219.729H235.55V214.106H219.841V219.729ZM141.339 219.729H157.048V214.106H141.339V219.729ZM125.63 219.729H141.339V214.106H125.63V219.729ZM15.7093 219.729H31.4186V214.106H15.7093V219.729ZM0 219.729H15.7093V214.106H0V219.729ZM1209.19 214.106H1224.9V208.461H1209.19V214.106ZM1162.06 214.106H1177.77V208.461H1162.06V214.106ZM1146.38 214.106H1162.09V208.461H1146.38V214.106ZM1130.67 214.106H1146.38V208.461H1130.67V214.106ZM1067.85 214.106H1083.56V208.461H1067.85V214.106ZM1052.14 214.106H1067.85V208.461H1052.14V214.106ZM1005.04 214.106H1020.75V208.461H1005.04V214.106ZM989.329 214.106H1005.04V208.461H989.329V214.106ZM910.805 214.106H926.514V208.461H910.805V214.106ZM895.118 214.106H910.827V208.461H895.118V214.106ZM879.409 214.106H895.118V208.461H879.409V214.106ZM832.303 214.106H848.012V208.461H832.303V214.106ZM816.594 214.106H832.303V208.461H816.594V214.106ZM800.885 214.106H816.594V208.461H800.885V214.106ZM738.07 214.106H753.779V208.461H738.07V214.106ZM722.36 214.106H738.07V208.461H722.36V214.106ZM659.545 214.106H675.255V208.461H659.545V214.106ZM643.858 214.106H659.568V208.461H643.858V214.106ZM628.149 214.106H643.858V208.461H628.149V214.106ZM565.334 214.106H581.044V208.461H565.334V214.106ZM549.625 214.106H565.334V208.461H549.625V214.106ZM533.916 214.106H549.625V208.461H533.916V214.106ZM471.101 214.106H486.81V208.461H471.101V214.106ZM455.414 214.106H471.123V208.461H455.414V214.106ZM439.704 214.106H455.414V208.461H439.704V214.106ZM345.471 214.106H361.18V208.461H345.471V214.106ZM329.784 214.106H345.493V208.461H329.784V214.106ZM314.075 214.106H329.784V208.461H314.075V214.106ZM251.26 214.106H266.969V208.461H251.26V214.106ZM235.55 214.106H251.26V208.461H235.55V214.106ZM219.841 214.106H235.55V208.461H219.841V214.106ZM141.339 214.106H157.048V208.461H141.339V214.106ZM125.63 214.106H141.339V208.461H125.63V214.106ZM15.7093 214.106H31.4186V208.461H15.7093V214.106ZM0 214.106H15.7093V208.461H0V214.106ZM1209.19 208.461H1224.9V202.815H1209.19V208.461ZM1162.06 208.461H1177.77V202.815H1162.06V208.461ZM1146.38 208.461H1162.09V202.815H1146.38V208.461ZM1130.67 208.461H1146.38V202.815H1130.67V208.461ZM1083.56 208.461H1099.27V202.815H1083.56V208.461ZM1067.85 208.461H1083.56V202.815H1067.85V208.461ZM1052.14 208.461H1067.85V202.815H1052.14V208.461ZM1005.04 208.461H1020.75V202.815H1005.04V208.461ZM989.329 208.461H1005.04V202.815H989.329V208.461ZM910.805 208.461H926.514V202.815H910.805V208.461ZM895.118 208.461H910.827V202.815H895.118V208.461ZM832.303 208.461H848.012V202.815H832.303V208.461ZM816.594 208.461H832.303V202.815H816.594V208.461ZM800.885 208.461H816.594V202.815H800.885V208.461ZM738.07 208.461H753.779V202.815H738.07V208.461ZM722.36 208.461H738.07V202.815H722.36V208.461ZM659.545 208.461H675.255V202.815H659.545V208.461ZM643.858 208.461H659.568V202.815H643.858V208.461ZM628.149 208.461H643.858V202.815H628.149V208.461ZM565.334 208.461H581.044V202.815H565.334V208.461ZM549.625 208.461H565.334V202.815H549.625V208.461ZM533.916 208.461H549.625V202.815H533.916V208.461ZM486.81 208.461H502.519V202.815H486.81V208.461ZM471.101 208.461H486.81V202.815H471.101V208.461ZM455.414 208.461H471.123V202.815H455.414V208.461ZM345.471 208.461H361.18V202.815H345.471V208.461ZM329.784 208.461H345.493V202.815H329.784V208.461ZM314.075 208.461H329.784V202.815H314.075V208.461ZM251.26 208.461H266.969V202.815H251.26V208.461ZM235.55 208.461H251.26V202.815H235.55V208.461ZM219.841 208.461H235.55V202.815H219.841V208.461ZM157.048 208.461H172.758V202.815H157.048V208.461ZM141.339 208.461H157.048V202.815H141.339V208.461ZM125.63 208.461H141.339V202.815H125.63V208.461ZM15.7093 208.461H31.4186V202.815H15.7093V208.461ZM0 208.461H15.7093V202.815H0V208.461ZM1209.19 202.837H1224.9V197.214H1209.19V202.837ZM1162.06 202.837H1177.77V197.214H1162.06V202.837ZM1146.38 202.837H1162.09V197.214H1146.38V202.837ZM1130.67 202.837H1146.38V197.214H1130.67V202.837ZM1083.56 202.837H1099.27V197.214H1083.56V202.837ZM1067.85 202.837H1083.56V197.214H1067.85V202.837ZM1052.14 202.837H1067.85V197.214H1052.14V202.837ZM1005.04 202.837H1020.75V197.214H1005.04V202.837ZM989.329 202.837H1005.04V197.214H989.329V202.837ZM910.805 202.837H926.514V197.214H910.805V202.837ZM895.118 202.837H910.827V197.214H895.118V202.837ZM832.303 202.837H848.012V197.214H832.303V202.837ZM816.594 202.837H832.303V197.214H816.594V202.837ZM800.885 202.837H816.594V197.214H800.885V202.837ZM753.779 202.837H769.488V197.214H753.779V202.837ZM738.07 202.837H753.779V197.214H738.07V202.837ZM722.36 202.837H738.07V197.214H722.36V202.837ZM659.545 202.837H675.255V197.214H659.545V202.837ZM643.858 202.837H659.568V197.214H643.858V202.837ZM628.149 202.837H643.858V197.214H628.149V202.837ZM565.334 202.837H581.044V197.214H565.334V202.837ZM549.625 202.837H565.334V197.214H549.625V202.837ZM486.81 202.837H502.519V197.214H486.81V202.837ZM471.101 202.837H486.81V197.214H471.101V202.837ZM455.414 202.837H471.123V197.214H455.414V202.837ZM345.471 202.837H361.18V197.214H345.471V202.837ZM329.784 202.837H345.493V197.214H329.784V202.837ZM314.075 202.837H329.784V197.214H314.075V202.837ZM251.26 202.837H266.969V197.214H251.26V202.837ZM235.55 202.837H251.26V197.214H235.55V202.837ZM219.841 202.837H235.55V197.214H219.841V202.837ZM157.048 202.837H172.758V197.214H157.048V202.837ZM141.339 202.837H157.048V197.214H141.339V202.837ZM125.63 202.837H141.339V197.214H125.63V202.837ZM15.7093 202.837H31.4186V197.214H15.7093V202.837ZM0 202.837H15.7093V197.214H0V202.837ZM1224.88 197.214H1240.59V191.569H1224.88V197.214ZM1162.06 197.214H1177.77V191.569H1162.06V197.214ZM1146.38 197.214H1162.09V191.569H1146.38V197.214ZM1083.56 197.214H1099.27V191.569H1083.56V197.214ZM1067.85 197.214H1083.56V191.569H1067.85V197.214ZM1052.14 197.214H1067.85V191.569H1052.14V197.214ZM1020.75 197.214H1036.46V191.569H1020.75V197.214ZM1005.04 197.214H1020.75V191.569H1005.04V197.214ZM989.329 197.214H1005.04V191.569H989.329V197.214ZM926.514 197.214H942.224V191.569H926.514V197.214ZM910.805 197.214H926.514V191.569H910.805V197.214ZM895.118 197.214H910.827V191.569H895.118V197.214ZM832.303 197.214H848.012V191.569H832.303V197.214ZM816.594 197.214H832.303V191.569H816.594V197.214ZM753.779 197.214H769.488V191.569H753.779V197.214ZM738.07 197.214H753.779V191.569H738.07V197.214ZM722.36 197.214H738.07V191.569H722.36V197.214ZM659.545 197.214H675.255V191.569H659.545V197.214ZM643.858 197.214H659.568V191.569H643.858V197.214ZM628.149 197.214H643.858V191.569H628.149V197.214ZM581.044 197.214H596.753V191.569H581.044V197.214ZM565.334 197.214H581.044V191.569H565.334V197.214ZM549.625 197.214H565.334V191.569H549.625V197.214ZM486.81 197.214H502.519V191.569H486.81V197.214ZM471.101 197.214H486.81V191.569H471.101V197.214ZM455.414 197.214H471.123V191.569H455.414V197.214ZM376.889 197.214H392.599V191.569H376.889V197.214ZM361.18 197.214H376.889V191.569H361.18V197.214ZM345.471 197.214H361.18V191.569H345.471V197.214ZM329.784 197.214H345.493V191.569H329.784V197.214ZM314.075 197.214H329.784V191.569H314.075V197.214ZM251.26 197.214H266.969V191.569H251.26V197.214ZM235.55 197.214H251.26V191.569H235.55V197.214ZM157.048 197.214H172.758V191.569H157.048V197.214ZM141.339 197.214H157.048V191.569H141.339V197.214ZM15.7093 197.214H31.4186V191.569H15.7093V197.214ZM0 197.214H15.7093V191.569H0V197.214ZM1224.88 191.569H1240.59V185.946H1224.88V191.569ZM1162.06 191.569H1177.77V185.946H1162.06V191.569ZM1146.38 191.569H1162.09V185.946H1146.38V191.569ZM1083.56 191.569H1099.27V185.946H1083.56V191.569ZM1067.85 191.569H1083.56V185.946H1067.85V191.569ZM1052.14 191.569H1067.85V185.946H1052.14V191.569ZM1020.75 191.569H1036.46V185.946H1020.75V191.569ZM1005.04 191.569H1020.75V185.946H1005.04V191.569ZM989.329 191.569H1005.04V185.946H989.329V191.569ZM926.514 191.569H942.224V185.946H926.514V191.569ZM910.805 191.569H926.514V185.946H910.805V191.569ZM895.118 191.569H910.827V185.946H895.118V191.569ZM832.303 191.569H848.012V185.946H832.303V191.569ZM816.594 191.569H832.303V185.946H816.594V191.569ZM753.779 191.569H769.488V185.946H753.779V191.569ZM738.07 191.569H753.779V185.946H738.07V191.569ZM659.545 191.569H675.255V185.946H659.545V191.569ZM643.858 191.569H659.568V185.946H643.858V191.569ZM581.044 191.569H596.753V185.946H581.044V191.569ZM565.334 191.569H581.044V185.946H565.334V191.569ZM549.625 191.569H565.334V185.946H549.625V191.569ZM486.81 191.569H502.519V185.946H486.81V191.569ZM471.101 191.569H486.81V185.946H471.101V191.569ZM392.599 191.569H408.308V185.946H392.599V191.569ZM376.889 191.569H392.599V185.946H376.889V191.569ZM345.471 191.569H361.18V185.946H345.471V191.569ZM329.784 191.569H345.493V185.946H329.784V191.569ZM251.26 191.569H266.969V185.946H251.26V191.569ZM235.55 191.569H251.26V185.946H235.55V191.569ZM157.048 191.569H172.758V185.946H157.048V191.569ZM141.339 191.569H157.048V185.946H141.339V191.569ZM15.7093 191.569H31.4186V185.946H15.7093V191.569ZM1224.88 185.923H1240.59V180.3H1224.88V185.923ZM1177.77 185.923H1193.48V180.3H1177.77V185.923ZM1162.06 185.923H1177.77V180.3H1162.06V185.923ZM1146.38 185.923H1162.09V180.3H1146.38V185.923ZM1083.56 185.923H1099.27V180.3H1083.56V185.923ZM1067.85 185.923H1083.56V180.3H1067.85V185.923ZM1052.14 185.923H1067.85V180.3H1052.14V185.923ZM1036.43 185.923H1052.14V180.3H1036.43V185.923ZM1020.75 185.923H1036.46V180.3H1020.75V185.923ZM1005.04 185.923H1020.75V180.3H1005.04V185.923ZM989.329 185.923H1005.04V180.3H989.329V185.923ZM926.514 185.923H942.224V180.3H926.514V185.923ZM910.805 185.923H926.514V180.3H910.805V185.923ZM895.118 185.923H910.827V180.3H895.118V185.923ZM847.99 185.923H863.699V180.3H847.99V185.923ZM832.303 185.923H848.012V180.3H832.303V185.923ZM816.594 185.923H832.303V180.3H816.594V185.923ZM753.779 185.923H769.488V180.3H753.779V185.923ZM738.07 185.923H753.779V180.3H738.07V185.923ZM659.545 185.923H675.255V180.3H659.545V185.923ZM643.858 185.923H659.568V180.3H643.858V185.923ZM581.044 185.923H596.753V180.3H581.044V185.923ZM565.334 185.923H581.044V180.3H565.334V185.923ZM549.625 185.923H565.334V180.3H549.625V185.923ZM486.81 185.923H502.519V180.3H486.81V185.923ZM471.101 185.923H486.81V180.3H471.101V185.923ZM408.286 185.923H423.995V180.3H408.286V185.923ZM392.599 185.923H408.308V180.3H392.599V185.923ZM345.471 185.923H361.18V180.3H345.471V185.923ZM329.784 185.923H345.493V180.3H329.784V185.923ZM251.26 185.923H266.969V180.3H251.26V185.923ZM235.55 185.923H251.26V180.3H235.55V185.923ZM172.735 185.923H188.445V180.3H172.735V185.923ZM157.048 185.923H172.758V180.3H157.048V185.923ZM141.339 185.923H157.048V180.3H141.339V185.923ZM1177.77 180.3H1193.48V174.654H1177.77V180.3ZM1162.06 180.3H1177.77V174.654H1162.06V180.3ZM1146.38 180.3H1162.09V174.654H1146.38V180.3ZM1099.25 180.3H1114.96V174.654H1099.25V180.3ZM1083.56 180.3H1099.27V174.654H1083.56V180.3ZM1067.85 180.3H1083.56V174.654H1067.85V180.3ZM1036.43 180.3H1052.14V174.654H1036.43V180.3ZM1020.75 180.3H1036.46V174.654H1020.75V180.3ZM1005.04 180.3H1020.75V174.654H1005.04V180.3ZM989.329 180.3H1005.04V174.654H989.329V180.3ZM926.514 180.3H942.224V174.654H926.514V180.3ZM910.805 180.3H926.514V174.654H910.805V180.3ZM895.118 180.3H910.827V174.654H895.118V180.3ZM847.99 180.3H863.699V174.654H847.99V180.3ZM832.303 180.3H848.012V174.654H832.303V180.3ZM816.594 180.3H832.303V174.654H816.594V180.3ZM753.779 180.3H769.488V174.654H753.779V180.3ZM738.07 180.3H753.779V174.654H738.07V180.3ZM659.545 180.3H675.255V174.654H659.545V180.3ZM643.858 180.3H659.568V174.654H643.858V180.3ZM581.044 180.3H596.753V174.654H581.044V180.3ZM565.334 180.3H581.044V174.654H565.334V180.3ZM486.81 180.3H502.519V174.654H486.81V180.3ZM471.101 180.3H486.81V174.654H471.101V180.3ZM423.995 180.3H439.704V174.654H423.995V180.3ZM408.286 180.3H423.995V174.654H408.286V180.3ZM392.599 180.3H408.308V174.654H392.599V180.3ZM345.471 180.3H361.18V174.654H345.471V180.3ZM329.784 180.3H345.493V174.654H329.784V180.3ZM251.26 180.3H266.969V174.654H251.26V180.3ZM235.55 180.3H251.26V174.654H235.55V180.3ZM172.735 180.3H188.445V174.654H172.735V180.3ZM157.048 180.3H172.758V174.654H157.048V180.3ZM141.339 180.3H157.048V174.654H141.339V180.3ZM1240.59 174.654H1256.3V169.031H1240.59V174.654ZM1177.77 174.654H1193.48V169.031H1177.77V174.654ZM1162.06 174.654H1177.77V169.031H1162.06V174.654ZM1146.38 174.654H1162.09V169.031H1146.38V174.654ZM1099.25 174.654H1114.96V169.031H1099.25V174.654ZM1083.56 174.654H1099.27V169.031H1083.56V174.654ZM1067.85 174.654H1083.56V169.031H1067.85V174.654ZM1020.75 174.654H1036.46V169.031H1020.75V174.654ZM1005.04 174.654H1020.75V169.031H1005.04V174.654ZM926.514 174.654H942.224V169.031H926.514V174.654ZM910.805 174.654H926.514V169.031H910.805V174.654ZM847.99 174.654H863.699V169.031H847.99V174.654ZM832.303 174.654H848.012V169.031H832.303V174.654ZM769.488 174.654H785.198V169.031H769.488V174.654ZM753.779 174.654H769.488V169.031H753.779V174.654ZM738.07 174.654H753.779V169.031H738.07V174.654ZM675.255 174.654H690.964V169.031H675.255V174.654ZM659.545 174.654H675.255V169.031H659.545V174.654ZM643.858 174.654H659.568V169.031H643.858V174.654ZM596.731 174.654H612.44V169.031H596.731V174.654ZM581.044 174.654H596.753V169.031H581.044V174.654ZM565.334 174.654H581.044V169.031H565.334V174.654ZM502.519 174.654H518.229V169.031H502.519V174.654ZM486.81 174.654H502.519V169.031H486.81V174.654ZM471.101 174.654H486.81V169.031H471.101V174.654ZM423.995 174.654H439.704V169.031H423.995V174.654ZM408.286 174.654H423.995V169.031H408.286V174.654ZM361.18 174.654H376.889V169.031H361.18V174.654ZM345.471 174.654H361.18V169.031H345.471V174.654ZM251.26 174.654H266.969V169.031H251.26V174.654ZM235.55 174.654H251.26V169.031H235.55V174.654ZM172.735 174.654H188.445V169.031H172.735V174.654ZM157.048 174.654H172.758V169.031H157.048V174.654ZM109.921 174.654H125.63V169.031H109.921V174.654ZM94.2335 174.654H109.943V169.031H94.2335V174.654ZM78.5242 174.654H94.2335V169.031H78.5242V174.654ZM62.8149 174.654H78.5242V169.031H62.8149V174.654ZM1240.59 169.031H1256.3V163.408H1240.59V169.031ZM1177.77 169.031H1193.48V163.408H1177.77V169.031ZM1162.06 169.031H1177.77V163.408H1162.06V169.031ZM1114.96 169.031H1130.67V163.408H1114.96V169.031ZM1099.25 169.031H1114.96V163.408H1099.25V169.031ZM1083.56 169.031H1099.27V163.408H1083.56V169.031ZM1067.85 169.031H1083.56V163.408H1067.85V169.031ZM1020.75 169.031H1036.46V163.408H1020.75V169.031ZM1005.04 169.031H1020.75V163.408H1005.04V169.031ZM942.224 169.031H957.933V163.408H942.224V169.031ZM926.514 169.031H942.224V163.408H926.514V169.031ZM910.805 169.031H926.514V163.408H910.805V169.031ZM847.99 169.031H863.699V163.408H847.99V169.031ZM832.303 169.031H848.012V163.408H832.303V169.031ZM769.488 169.031H785.198V163.408H769.488V169.031ZM753.779 169.031H769.488V163.408H753.779V169.031ZM738.07 169.031H753.779V163.408H738.07V169.031ZM675.255 169.031H690.964V163.408H675.255V169.031ZM659.545 169.031H675.255V163.408H659.545V169.031ZM596.731 169.031H612.44V163.408H596.731V169.031ZM581.044 169.031H596.753V163.408H581.044V169.031ZM565.334 169.031H581.044V163.408H565.334V169.031ZM502.519 169.031H518.229V163.408H502.519V169.031ZM486.81 169.031H502.519V163.408H486.81V169.031ZM423.995 169.031H439.704V163.408H423.995V169.031ZM408.286 169.031H423.995V163.408H408.286V169.031ZM361.18 169.031H376.889V163.408H361.18V169.031ZM345.471 169.031H361.18V163.408H345.471V169.031ZM251.26 169.031H266.969V163.408H251.26V169.031ZM235.55 169.031H251.26V163.408H235.55V169.031ZM172.735 169.031H188.445V163.408H172.735V169.031ZM157.048 169.031H172.758V163.408H157.048V169.031ZM109.921 169.031H125.63V163.408H109.921V169.031ZM78.5242 169.031H94.2335V163.408H78.5242V169.031ZM62.8149 169.031H78.5242V163.408H62.8149V169.031ZM47.1056 169.031H62.8149V163.408H47.1056V169.031ZM1240.59 163.386H1256.3V157.74H1240.59V163.386ZM1177.77 163.386H1193.48V157.74H1177.77V163.386ZM1162.06 163.386H1177.77V157.74H1162.06V163.386ZM1114.96 163.386H1130.67V157.74H1114.96V163.386ZM1099.25 163.386H1114.96V157.74H1099.25V163.386ZM1083.56 163.386H1099.27V157.74H1083.56V163.386ZM1020.75 163.386H1036.46V157.74H1020.75V163.386ZM1005.04 163.386H1020.75V157.74H1005.04V163.386ZM942.224 163.386H957.933V157.74H942.224V163.386ZM926.514 163.386H942.224V157.74H926.514V163.386ZM910.805 163.386H926.514V157.74H910.805V163.386ZM847.99 163.386H863.699V157.74H847.99V163.386ZM832.303 163.386H848.012V157.74H832.303V163.386ZM769.488 163.386H785.198V157.74H769.488V163.386ZM753.779 163.386H769.488V157.74H753.779V163.386ZM738.07 163.386H753.779V157.74H738.07V163.386ZM675.255 163.386H690.964V157.74H675.255V163.386ZM659.545 163.386H675.255V157.74H659.545V163.386ZM596.731 163.386H612.44V157.74H596.731V163.386ZM581.044 163.386H596.753V157.74H581.044V163.386ZM565.334 163.386H581.044V157.74H565.334V163.386ZM502.519 163.386H518.229V157.74H502.519V163.386ZM486.81 163.386H502.519V157.74H486.81V163.386ZM439.704 163.386H455.414V157.74H439.704V163.386ZM423.995 163.386H439.704V157.74H423.995V163.386ZM408.286 163.386H423.995V157.74H408.286V163.386ZM361.18 163.386H376.889V157.74H361.18V163.386ZM345.471 163.386H361.18V157.74H345.471V163.386ZM251.26 163.386H266.969V157.74H251.26V163.386ZM188.445 163.386H204.154V157.74H188.445V163.386ZM172.735 163.386H188.445V157.74H172.735V163.386ZM157.048 163.386H172.758V157.74H157.048V163.386ZM109.921 163.386H125.63V157.74H109.921V163.386ZM62.8149 163.386H78.5242V157.74H62.8149V163.386ZM47.1056 163.386H62.8149V157.74H47.1056V163.386ZM1177.77 157.762H1193.48V152.139H1177.77V157.762ZM1162.06 157.762H1177.77V152.139H1162.06V157.762ZM1114.96 157.762H1130.67V152.139H1114.96V157.762ZM1099.25 157.762H1114.96V152.139H1099.25V157.762ZM1083.56 157.762H1099.27V152.139H1083.56V157.762ZM1020.75 157.762H1036.46V152.139H1020.75V157.762ZM1005.04 157.762H1020.75V152.139H1005.04V157.762ZM942.224 157.762H957.933V152.139H942.224V157.762ZM926.514 157.762H942.224V152.139H926.514V157.762ZM863.699 157.762H879.409V152.139H863.699V157.762ZM847.99 157.762H863.699V152.139H847.99V157.762ZM832.303 157.762H848.012V152.139H832.303V157.762ZM769.488 157.762H785.198V152.139H769.488V157.762ZM753.779 157.762H769.488V152.139H753.779V157.762ZM738.07 157.762H753.779V152.139H738.07V157.762ZM690.964 157.762H706.673V152.139H690.964V157.762ZM675.255 157.762H690.964V152.139H675.255V157.762ZM659.545 157.762H675.255V152.139H659.545V157.762ZM596.731 157.762H612.44V152.139H596.731V157.762ZM581.044 157.762H596.753V152.139H581.044V157.762ZM518.229 157.762H533.938V152.139H518.229V157.762ZM502.519 157.762H518.229V152.139H502.519V157.762ZM486.81 157.762H502.519V152.139H486.81V157.762ZM439.704 157.762H455.414V152.139H439.704V157.762ZM423.995 157.762H439.704V152.139H423.995V157.762ZM376.889 157.762H392.599V152.139H376.889V157.762ZM361.18 157.762H376.889V152.139H361.18V157.762ZM345.471 157.762H361.18V152.139H345.471V157.762ZM251.26 157.762H266.969V152.139H251.26V157.762ZM188.445 157.762H204.154V152.139H188.445V157.762ZM172.735 157.762H188.445V152.139H172.735V157.762ZM157.048 157.762H172.758V152.139H157.048V157.762ZM125.63 157.762H141.339V152.139H125.63V157.762ZM47.1056 157.762H62.8149V152.139H47.1056V157.762ZM31.4186 157.762H47.1279V152.139H31.4186V157.762ZM1177.77 152.117H1193.48V146.494H1177.77V152.117ZM1162.06 152.117H1177.77V146.494H1162.06V152.117ZM1130.67 152.117H1146.38V146.494H1130.67V152.117ZM1114.96 152.117H1130.67V146.494H1114.96V152.117ZM1099.25 152.117H1114.96V146.494H1099.25V152.117ZM1083.56 152.117H1099.27V146.494H1083.56V152.117ZM1020.75 152.117H1036.46V146.494H1020.75V152.117ZM1005.04 152.117H1020.75V146.494H1005.04V152.117ZM942.224 152.117H957.933V146.494H942.224V152.117ZM926.514 152.117H942.224V146.494H926.514V152.117ZM863.699 152.117H879.409V146.494H863.699V152.117ZM847.99 152.117H863.699V146.494H847.99V152.117ZM785.175 152.117H800.885V146.494H785.175V152.117ZM769.488 152.117H785.198V146.494H769.488V152.117ZM753.779 152.117H769.488V146.494H753.779V152.117ZM738.07 152.117H753.779V146.494H738.07V152.117ZM690.964 152.117H706.673V146.494H690.964V152.117ZM675.255 152.117H690.964V146.494H675.255V152.117ZM596.731 152.117H612.44V146.494H596.731V152.117ZM581.044 152.117H596.753V146.494H581.044V152.117ZM518.229 152.117H533.938V146.494H518.229V152.117ZM502.519 152.117H518.229V146.494H502.519V152.117ZM486.81 152.117H502.519V146.494H486.81V152.117ZM439.704 152.117H455.414V146.494H439.704V152.117ZM423.995 152.117H439.704V146.494H423.995V152.117ZM376.889 152.117H392.599V146.494H376.889V152.117ZM361.18 152.117H376.889V146.494H361.18V152.117ZM251.26 152.117H266.969V146.494H251.26V152.117ZM188.445 152.117H204.154V146.494H188.445V152.117ZM172.735 152.117H188.445V146.494H172.735V152.117ZM157.048 152.117H172.758V146.494H157.048V152.117ZM141.339 152.117H157.048V146.494H141.339V152.117ZM125.63 152.117H141.339V146.494H125.63V152.117ZM47.1056 152.117H62.8149V146.494H47.1056V152.117ZM31.4186 152.117H47.1279V146.494H31.4186V152.117ZM1177.77 146.494H1193.48V140.848H1177.77V146.494ZM1130.67 146.494H1146.38V140.848H1130.67V146.494ZM1114.96 146.494H1130.67V140.848H1114.96V146.494ZM1099.25 146.494H1114.96V140.848H1099.25V146.494ZM1083.56 146.494H1099.27V140.848H1083.56V146.494ZM1020.75 146.494H1036.46V140.848H1020.75V146.494ZM1005.04 146.494H1020.75V140.848H1005.04V146.494ZM957.933 146.494H973.642V140.848H957.933V146.494ZM942.224 146.494H957.933V140.848H942.224V146.494ZM863.699 146.494H879.409V140.848H863.699V146.494ZM847.99 146.494H863.699V140.848H847.99V146.494ZM785.175 146.494H800.885V140.848H785.175V146.494ZM769.488 146.494H785.198V140.848H769.488V146.494ZM753.779 146.494H769.488V140.848H753.779V146.494ZM738.07 146.494H753.779V140.848H738.07V146.494ZM690.964 146.494H706.673V140.848H690.964V146.494ZM675.255 146.494H690.964V140.848H675.255V146.494ZM612.44 146.494H628.149V140.848H612.44V146.494ZM596.731 146.494H612.44V140.848H596.731V146.494ZM581.044 146.494H596.753V140.848H581.044V146.494ZM518.229 146.494H533.938V140.848H518.229V146.494ZM502.519 146.494H518.229V140.848H502.519V146.494ZM486.81 146.494H502.519V140.848H486.81V146.494ZM439.704 146.494H455.414V140.848H439.704V146.494ZM423.995 146.494H439.704V140.848H423.995V146.494ZM376.889 146.494H392.599V140.848H376.889V146.494ZM361.18 146.494H376.889V140.848H361.18V146.494ZM251.26 146.494H266.969V140.848H251.26V146.494ZM188.445 146.494H204.154V140.848H188.445V146.494ZM172.735 146.494H188.445V140.848H172.735V146.494ZM141.339 146.494H157.048V140.848H141.339V146.494ZM47.1056 146.494H62.8149V140.848H47.1056V146.494ZM31.4186 146.494H47.1279V140.848H31.4186V146.494ZM1177.77 140.848H1193.48V135.225H1177.77V140.848ZM1162.06 140.848H1177.77V135.225H1162.06V140.848ZM1146.38 140.848H1162.09V135.225H1146.38V140.848ZM1114.96 140.848H1130.67V135.225H1114.96V140.848ZM1099.25 140.848H1114.96V135.225H1099.25V140.848ZM1083.56 140.848H1099.27V135.225H1083.56V140.848ZM1005.04 140.848H1020.75V135.225H1005.04V140.848ZM973.62 140.848H989.329V135.225H973.62V140.848ZM957.933 140.848H973.642V135.225H957.933V140.848ZM942.224 140.848H957.933V135.225H942.224V140.848ZM879.409 140.848H895.118V135.225H879.409V140.848ZM863.699 140.848H879.409V135.225H863.699V140.848ZM847.99 140.848H863.699V135.225H847.99V140.848ZM785.175 140.848H800.885V135.225H785.175V140.848ZM769.488 140.848H785.198V135.225H769.488V140.848ZM753.779 140.848H769.488V135.225H753.779V140.848ZM738.07 140.848H753.779V135.225H738.07V140.848ZM706.673 140.848H722.383V135.225H706.673V140.848ZM690.964 140.848H706.673V135.225H690.964V140.848ZM612.44 140.848H628.149V135.225H612.44V140.848ZM596.731 140.848H612.44V135.225H596.731V140.848ZM581.044 140.848H596.753V135.225H581.044V140.848ZM518.229 140.848H533.938V135.225H518.229V140.848ZM502.519 140.848H518.229V135.225H502.519V140.848ZM439.704 140.848H455.414V135.225H439.704V140.848ZM423.995 140.848H439.704V135.225H423.995V140.848ZM392.599 140.848H408.308V135.225H392.599V140.848ZM376.889 140.848H392.599V135.225H376.889V140.848ZM251.26 140.848H266.969V135.225H251.26V140.848ZM188.445 140.848H204.154V135.225H188.445V140.848ZM172.735 140.848H188.445V135.225H172.735V140.848ZM141.339 140.848H157.048V135.225H141.339V140.848ZM47.1056 140.848H62.8149V135.225H47.1056V140.848ZM31.4186 140.848H47.1279V135.225H31.4186V140.848ZM1177.77 135.225H1193.48V129.602H1177.77V135.225ZM1162.06 135.225H1177.77V129.602H1162.06V135.225ZM1146.38 135.225H1162.09V129.602H1146.38V135.225ZM1114.96 135.225H1130.67V129.602H1114.96V135.225ZM1099.25 135.225H1114.96V129.602H1099.25V135.225ZM1005.04 135.225H1020.75V129.602H1005.04V135.225ZM989.329 135.225H1005.04V129.602H989.329V135.225ZM973.62 135.225H989.329V129.602H973.62V135.225ZM957.933 135.225H973.642V129.602H957.933V135.225ZM879.409 135.225H895.118V129.602H879.409V135.225ZM863.699 135.225H879.409V129.602H863.699V135.225ZM785.175 135.225H800.885V129.602H785.175V135.225ZM738.07 135.225H753.779V129.602H738.07V135.225ZM722.36 135.225H738.07V129.602H722.36V135.225ZM706.673 135.225H722.383V129.602H706.673V135.225ZM690.964 135.225H706.673V129.602H690.964V135.225ZM612.44 135.225H628.149V129.602H612.44V135.225ZM518.229 135.225H533.938V129.602H518.229V135.225ZM502.519 135.225H518.229V129.602H502.519V135.225ZM423.995 135.225H439.704V129.602H423.995V135.225ZM408.286 135.225H423.995V129.602H408.286V135.225ZM392.599 135.225H408.308V129.602H392.599V135.225ZM235.55 135.225H251.26V129.602H235.55V135.225ZM204.154 135.225H219.863V129.602H204.154V135.225ZM188.445 135.225H204.154V129.602H188.445V135.225ZM172.735 135.225H188.445V129.602H172.735V135.225ZM141.339 135.225H157.048V129.602H141.339V135.225ZM47.1056 135.225H62.8149V129.602H47.1056V135.225ZM31.4186 135.225H47.1279V129.602H31.4186V135.225ZM1177.77 129.579H1193.48V123.934H1177.77V129.579ZM1162.06 129.579H1177.77V123.934H1162.06V129.579ZM989.329 129.579H1005.04V123.934H989.329V129.579ZM973.62 129.579H989.329V123.934H973.62V129.579ZM722.36 129.579H738.07V123.934H722.36V129.579ZM706.673 129.579H722.383V123.934H706.673V129.579ZM533.916 129.579H549.625V123.934H533.916V129.579ZM518.229 129.579H533.938V123.934H518.229V129.579ZM502.519 129.579H518.229V123.934H502.519V129.579ZM423.995 129.579H439.704V123.934H423.995V129.579ZM408.286 129.579H423.995V123.934H408.286V129.579ZM251.26 129.579H266.969V123.934H251.26V129.579ZM235.55 129.579H251.26V123.934H235.55V129.579ZM219.841 129.579H235.55V123.934H219.841V129.579ZM204.154 129.579H219.863V123.934H204.154V129.579ZM188.445 129.579H204.154V123.934H188.445V129.579ZM172.735 129.579H188.445V123.934H172.735V129.579ZM47.1056 129.579H62.8149V123.934H47.1056V129.579ZM31.4186 129.579H47.1279V123.934H31.4186V129.579ZM533.916 123.956H549.625V118.333H533.916V123.956ZM518.229 123.956H533.938V118.333H518.229V123.956ZM502.519 123.956H518.229V118.333H502.519V123.956ZM266.969 123.956H282.678V118.333H266.969V123.956ZM251.26 123.956H266.969V118.333H251.26V123.956ZM235.55 123.956H251.26V118.333H235.55V123.956ZM204.154 123.956H219.863V118.333H204.154V123.956ZM188.445 123.956H204.154V118.333H188.445V123.956ZM172.735 123.956H188.445V118.333H172.735V123.956ZM47.1056 123.956H62.8149V118.333H47.1056V123.956ZM31.4186 123.956H47.1279V118.333H31.4186V123.956ZM533.916 118.311H549.625V112.665H533.916V118.311ZM518.229 118.311H533.938V112.665H518.229V118.311ZM502.519 118.311H518.229V112.665H502.519V118.311ZM298.365 118.311H314.075V112.665H298.365V118.311ZM282.656 118.311H298.365V112.665H282.656V118.311ZM266.969 118.311H282.678V112.665H266.969V118.311ZM204.154 118.311H219.863V112.665H204.154V118.311ZM188.445 118.311H204.154V112.665H188.445V118.311ZM47.1056 118.311H62.8149V112.665H47.1056V118.311ZM31.4186 118.311H47.1279V112.665H31.4186V118.311ZM533.916 112.687H549.625V107.064H533.916V112.687ZM518.229 112.687H533.938V107.064H518.229V112.687ZM298.365 112.687H314.075V107.064H298.365V112.687ZM282.656 112.687H298.365V107.064H282.656V112.687ZM266.969 112.687H282.678V107.064H266.969V112.687ZM204.154 112.687H219.863V107.064H204.154V112.687ZM188.445 112.687H204.154V107.064H188.445V112.687ZM157.048 112.687H172.758V107.064H157.048V112.687ZM47.1056 112.687H62.8149V107.064H47.1056V112.687ZM31.4186 112.687H47.1279V107.064H31.4186V112.687ZM533.916 107.042H549.625V101.419H533.916V107.042ZM518.229 107.042H533.938V101.419H518.229V107.042ZM298.365 107.042H314.075V101.419H298.365V107.042ZM282.656 107.042H298.365V101.419H282.656V107.042ZM204.154 107.042H219.863V101.419H204.154V107.042ZM188.445 107.042H204.154V101.419H188.445V107.042ZM157.048 107.042H172.758V101.419H157.048V107.042ZM47.1056 107.042H62.8149V101.419H47.1056V107.042ZM31.4186 107.042H47.1279V101.419H31.4186V107.042ZM549.625 101.419H565.334V95.7732H549.625V101.419ZM533.916 101.419H549.625V95.7732H533.916V101.419ZM518.229 101.419H533.938V95.7732H518.229V101.419ZM314.075 101.419H329.784V95.7732H314.075V101.419ZM298.365 101.419H314.075V95.7732H298.365V101.419ZM282.656 101.419H298.365V95.7732H282.656V101.419ZM219.841 101.419H235.55V95.7732H219.841V101.419ZM204.154 101.419H219.863V95.7732H204.154V101.419ZM188.445 101.419H204.154V95.7732H188.445V101.419ZM157.048 101.419H172.758V95.7732H157.048V101.419ZM47.1056 101.419H62.8149V95.7732H47.1056V101.419ZM31.4186 101.419H47.1279V95.7732H31.4186V101.419ZM895.118 95.7732H910.827V90.15H895.118V95.7732ZM643.858 95.7732H659.568V90.15H643.858V95.7732ZM628.149 95.7732H643.858V90.15H628.149V95.7732ZM549.625 95.7732H565.334V90.15H549.625V95.7732ZM533.916 95.7732H549.625V90.15H533.916V95.7732ZM518.229 95.7732H533.938V90.15H518.229V95.7732ZM314.075 95.7732H329.784V90.15H314.075V95.7732ZM298.365 95.7732H314.075V90.15H298.365V95.7732ZM219.841 95.7732H235.55V90.15H219.841V95.7732ZM204.154 95.7732H219.863V90.15H204.154V95.7732ZM157.048 95.7732H172.758V90.15H157.048V95.7732ZM47.1056 95.7732H62.8149V90.15H47.1056V95.7732ZM31.4186 95.7732H47.1279V90.15H31.4186V95.7732ZM895.118 90.15H910.827V84.5045H895.118V90.15ZM643.858 90.15H659.568V84.5045H643.858V90.15ZM628.149 90.15H643.858V84.5045H628.149V90.15ZM549.625 90.15H565.334V84.5045H549.625V90.15ZM533.916 90.15H549.625V84.5045H533.916V90.15ZM314.075 90.15H329.784V84.5045H314.075V90.15ZM298.365 90.15H314.075V84.5045H298.365V90.15ZM219.841 90.15H235.55V84.5045H219.841V90.15ZM204.154 90.15H219.863V84.5045H204.154V90.15ZM157.048 90.15H172.758V84.5045H157.048V90.15ZM47.1056 90.15H62.8149V84.5045H47.1056V90.15ZM31.4186 90.15H47.1279V84.5045H31.4186V90.15ZM910.805 84.5045H926.514V78.8812H910.805V84.5045ZM895.118 84.5045H910.827V78.8812H895.118V84.5045ZM879.409 84.5045H895.118V78.8812H879.409V84.5045ZM643.858 84.5045H659.568V78.8812H643.858V84.5045ZM628.149 84.5045H643.858V78.8812H628.149V84.5045ZM565.334 84.5045H581.044V78.8812H565.334V84.5045ZM549.625 84.5045H565.334V78.8812H549.625V84.5045ZM533.916 84.5045H549.625V78.8812H533.916V84.5045ZM314.075 84.5045H329.784V78.8812H314.075V84.5045ZM298.365 84.5045H314.075V78.8812H298.365V84.5045ZM235.55 84.5045H251.26V78.8812H235.55V84.5045ZM219.841 84.5045H235.55V78.8812H219.841V84.5045ZM204.154 84.5045H219.863V78.8812H204.154V84.5045ZM157.048 84.5045H172.758V78.8812H157.048V84.5045ZM62.8149 84.5045H78.5242V78.8812H62.8149V84.5045ZM47.1056 84.5045H62.8149V78.8812H47.1056V84.5045ZM910.805 78.8812H926.514V73.258H910.805V78.8812ZM895.118 78.8812H910.827V73.258H895.118V78.8812ZM879.409 78.8812H895.118V73.258H879.409V78.8812ZM643.858 78.8812H659.568V73.258H643.858V78.8812ZM628.149 78.8812H643.858V73.258H628.149V78.8812ZM565.334 78.8812H581.044V73.258H565.334V78.8812ZM549.625 78.8812H565.334V73.258H549.625V78.8812ZM533.916 78.8812H549.625V73.258H533.916V78.8812ZM314.075 78.8812H329.784V73.258H314.075V78.8812ZM298.365 78.8812H314.075V73.258H298.365V78.8812ZM235.55 78.8812H251.26V73.258H235.55V78.8812ZM219.841 78.8812H235.55V73.258H219.841V78.8812ZM204.154 78.8812H219.863V73.258H204.154V78.8812ZM157.048 78.8812H172.758V73.258H157.048V78.8812ZM62.8149 78.8812H78.5242V73.258H62.8149V78.8812ZM47.1056 78.8812H62.8149V73.258H47.1056V78.8812ZM910.805 73.2357H926.514V67.5902H910.805V73.2357ZM895.118 73.2357H910.827V67.5902H895.118V73.2357ZM879.409 73.2357H895.118V67.5902H879.409V73.2357ZM643.858 73.2357H659.568V67.5902H643.858V73.2357ZM628.149 73.2357H643.858V67.5902H628.149V73.2357ZM565.334 73.2357H581.044V67.5902H565.334V73.2357ZM549.625 73.2357H565.334V67.5902H549.625V73.2357ZM533.916 73.2357H549.625V67.5902H533.916V73.2357ZM314.075 73.2357H329.784V67.5902H314.075V73.2357ZM298.365 73.2357H314.075V67.5902H298.365V73.2357ZM235.55 73.2357H251.26V67.5902H235.55V73.2357ZM219.841 73.2357H235.55V67.5902H219.841V73.2357ZM157.048 73.2357H172.758V67.5902H157.048V73.2357ZM62.8149 73.2357H78.5242V67.5902H62.8149V73.2357ZM47.1056 73.2357H62.8149V67.5902H47.1056V73.2357ZM910.805 67.6125H926.514V61.9893H910.805V67.6125ZM895.118 67.6125H910.827V61.9893H895.118V67.6125ZM643.858 67.6125H659.568V61.9893H643.858V67.6125ZM628.149 67.6125H643.858V61.9893H628.149V67.6125ZM565.334 67.6125H581.044V61.9893H565.334V67.6125ZM549.625 67.6125H565.334V61.9893H549.625V67.6125ZM533.916 67.6125H549.625V61.9893H533.916V67.6125ZM314.075 67.6125H329.784V61.9893H314.075V67.6125ZM298.365 67.6125H314.075V61.9893H298.365V67.6125ZM235.55 67.6125H251.26V61.9893H235.55V67.6125ZM219.841 67.6125H235.55V61.9893H219.841V67.6125ZM62.8149 67.6125H78.5242V61.9893H62.8149V67.6125ZM47.1056 67.6125H62.8149V61.9893H47.1056V67.6125ZM895.118 61.967H910.827V56.3437H895.118V61.967ZM643.858 61.967H659.568V56.3437H643.858V61.967ZM628.149 61.967H643.858V56.3437H628.149V61.967ZM565.334 61.967H581.044V56.3437H565.334V61.967ZM549.625 61.967H565.334V56.3437H549.625V61.967ZM314.075 61.967H329.784V56.3437H314.075V61.967ZM298.365 61.967H314.075V56.3437H298.365V61.967ZM251.26 61.967H266.969V56.3437H251.26V61.967ZM235.55 61.967H251.26V56.3437H235.55V61.967ZM219.841 61.967H235.55V56.3437H219.841V61.967ZM78.5242 61.967H94.2335V56.3437H78.5242V61.967ZM62.8149 61.967H78.5242V56.3437H62.8149V61.967ZM581.044 56.3437H596.753V50.6982H581.044V56.3437ZM565.334 56.3437H581.044V50.6982H565.334V56.3437ZM549.625 56.3437H565.334V50.6982H549.625V56.3437ZM314.075 56.3437H329.784V50.6982H314.075V56.3437ZM298.365 56.3437H314.075V50.6982H298.365V56.3437ZM251.26 56.3437H266.969V50.6982H251.26V56.3437ZM235.55 56.3437H251.26V50.6982H235.55V56.3437ZM219.841 56.3437H235.55V50.6982H219.841V56.3437ZM78.5242 56.3437H94.2335V50.6982H78.5242V56.3437ZM62.8149 56.3437H78.5242V50.6982H62.8149V56.3437ZM581.044 50.6982H596.753V45.075H581.044V50.6982ZM565.334 50.6982H581.044V45.075H565.334V50.6982ZM549.625 50.6982H565.334V45.075H549.625V50.6982ZM314.075 50.6982H329.784V45.075H314.075V50.6982ZM298.365 50.6982H314.075V45.075H298.365V50.6982ZM251.26 50.6982H266.969V45.075H251.26V50.6982ZM235.55 50.6982H251.26V45.075H235.55V50.6982ZM94.2335 50.6982H109.943V45.075H94.2335V50.6982ZM78.5242 50.6982H94.2335V45.075H78.5242V50.6982ZM62.8149 50.6982H78.5242V45.075H62.8149V50.6982ZM581.044 45.075H596.753V39.4518H581.044V45.075ZM565.334 45.075H581.044V39.4518H565.334V45.075ZM549.625 45.075H565.334V39.4518H549.625V45.075ZM314.075 45.075H329.784V39.4518H314.075V45.075ZM298.365 45.075H314.075V39.4518H298.365V45.075ZM251.26 45.075H266.969V39.4518H251.26V45.075ZM235.55 45.075H251.26V39.4518H235.55V45.075ZM94.2335 45.075H109.943V39.4518H94.2335V45.075ZM78.5242 45.075H94.2335V39.4518H78.5242V45.075ZM581.044 39.4518H596.753V33.8062H581.044V39.4518ZM565.334 39.4518H581.044V33.8062H565.334V39.4518ZM549.625 39.4518H565.334V33.8062H549.625V39.4518ZM314.075 39.4518H329.784V33.8062H314.075V39.4518ZM298.365 39.4518H314.075V33.8062H298.365V39.4518ZM266.969 39.4518H282.678V33.8062H266.969V39.4518ZM251.26 39.4518H266.969V33.8062H251.26V39.4518ZM109.921 39.4518H125.63V33.8062H109.921V39.4518ZM94.2335 39.4518H109.943V33.8062H94.2335V39.4518ZM78.5242 39.4518H94.2335V33.8062H78.5242V39.4518ZM596.731 33.8062H612.44V28.183H596.731V33.8062ZM581.044 33.8062H596.753V28.183H581.044V33.8062ZM565.334 33.8062H581.044V28.183H565.334V33.8062ZM298.365 33.8062H314.075V28.183H298.365V33.8062ZM266.969 33.8062H282.678V28.183H266.969V33.8062ZM251.26 33.8062H266.969V28.183H251.26V33.8062ZM109.921 33.8062H125.63V28.183H109.921V33.8062ZM94.2335 33.8062H109.943V28.183H94.2335V33.8062ZM596.731 28.1607H612.44V22.5152H596.731V28.1607ZM581.044 28.1607H596.753V22.5152H581.044V28.1607ZM565.334 28.1607H581.044V22.5152H565.334V28.1607ZM298.365 28.1607H314.075V22.5152H298.365V28.1607ZM282.656 28.1607H298.365V22.5152H282.656V28.1607ZM266.969 28.1607H282.678V22.5152H266.969V28.1607ZM125.63 28.1607H141.339V22.5152H125.63V28.1607ZM109.921 28.1607H125.63V22.5152H109.921V28.1607ZM596.731 22.5375H612.44V16.9143H596.731V22.5375ZM581.044 22.5375H596.753V16.9143H581.044V22.5375ZM565.334 22.5375H581.044V16.9143H565.334V22.5375ZM298.365 22.5375H314.075V16.9143H298.365V22.5375ZM282.656 22.5375H298.365V16.9143H282.656V22.5375ZM266.969 22.5375H282.678V16.9143H266.969V22.5375ZM141.339 22.5375H157.048V16.9143H141.339V22.5375ZM125.63 22.5375H141.339V16.9143H125.63V22.5375ZM596.731 16.892H612.44V11.2687H596.731V16.892ZM581.044 16.892H596.753V11.2687H581.044V16.892ZM298.365 16.892H314.075V11.2687H298.365V16.892ZM282.656 16.892H298.365V11.2687H282.656V16.892ZM266.969 16.892H282.678V11.2687H266.969V16.892ZM157.048 16.892H172.758V11.2687H157.048V16.892ZM141.339 16.892H157.048V11.2687H141.339V16.892ZM125.63 16.892H141.339V11.2687H125.63V16.892ZM314.075 11.2687H329.784V5.62322H314.075V11.2687ZM298.365 11.2687H314.075V5.62322H298.365V11.2687ZM282.656 11.2687H298.365V5.62322H282.656V11.2687ZM266.969 11.2687H282.678V5.62322H266.969V11.2687ZM251.26 11.2687H266.969V5.62322H251.26V11.2687ZM235.55 11.2687H251.26V5.62322H235.55V11.2687ZM172.735 11.2687H188.445V5.62322H172.735V11.2687ZM157.048 11.2687H172.758V5.62322H157.048V11.2687ZM141.339 11.2687H157.048V5.62322H141.339V11.2687ZM235.55 5.62322H251.26V0H235.55V5.62322ZM219.841 5.62322H235.55V0H219.841V5.62322ZM204.154 5.62322H219.863V0H204.154V5.62322ZM188.445 5.62322H204.154V0H188.445V5.62322Z" fill="var(--fill-0, #0000FF)"/>
</svg>
