<svg preserveAspectRatio="none" width="100%" height="100%" overflow="visible" style="display: block;" viewBox="0 0 371 106.49" fill="none" xmlns="http://www.w3.org/2000/svg">
<path id="Vector" d="M176.222 104.822H180.861V106.49H176.222V104.822ZM171.589 106.49H176.228V104.822H171.589V106.49ZM166.95 106.49H171.589V104.822H166.95V106.49ZM162.311 106.49H166.95V104.822H162.311V106.49ZM180.861 104.822H185.5V103.162H180.861V104.822ZM176.222 104.822H180.861V103.162H176.222V104.822ZM171.589 104.822H176.228V103.162H171.589V104.822ZM166.95 104.822H171.589V103.162H166.95V104.822ZM162.311 104.822H166.95V103.162H162.311V104.822ZM157.672 104.822H162.311V103.162H157.672V104.822ZM185.5 103.162H190.139V101.495H185.5V103.162ZM180.861 103.162H185.5V101.495H180.861V103.162ZM162.311 103.162H166.95V101.495H162.311V103.162ZM157.672 103.162H162.311V101.495H157.672V103.162ZM190.139 101.495H194.778V99.8339H190.139V101.495ZM185.5 101.495H190.139V99.8339H185.5V101.495ZM180.861 101.495H185.5V99.8339H180.861V101.495ZM157.672 101.495H162.311V99.8339H157.672V101.495ZM153.039 101.495H157.678V99.8339H153.039V101.495ZM190.139 99.8339H194.778V98.1667H190.139V99.8339ZM185.5 99.8339H190.139V98.1667H185.5V99.8339ZM157.672 99.8339H162.311V98.1667H157.672V99.8339ZM153.039 99.8339H157.678V98.1667H153.039V99.8339ZM194.772 98.1667H199.411V96.5061H194.772V98.1667ZM190.139 98.1667H194.778V96.5061H190.139V98.1667ZM185.5 98.1667H190.139V96.5061H185.5V98.1667ZM157.672 98.1667H162.311V96.5061H157.672V98.1667ZM153.039 98.1667H157.678V96.5061H153.039V98.1667ZM194.772 96.5061H199.411V94.8389H194.772V96.5061ZM190.139 96.5061H194.778V94.8389H190.139V96.5061ZM157.672 96.5061H162.311V94.8389H157.672V96.5061ZM153.039 96.5061H157.678V94.8389H153.039V96.5061ZM199.411 94.8389H204.05V93.1717H199.411V94.8389ZM194.772 94.8389H199.411V93.1717H194.772V94.8389ZM190.139 94.8389H194.778V93.1717H190.139V94.8389ZM157.672 94.8389H162.311V93.1717H157.672V94.8389ZM153.039 94.8389H157.678V93.1717H153.039V94.8389ZM199.411 93.1783H204.05V91.5177H199.411V93.1783ZM194.772 93.1783H199.411V91.5177H194.772V93.1783ZM157.672 93.1783H162.311V91.5177H157.672V93.1783ZM153.039 93.1783H157.678V91.5177H153.039V93.1783ZM204.05 91.5111H208.689V89.8439H204.05V91.5111ZM199.411 91.5111H204.05V89.8439H199.411V91.5111ZM194.772 91.5111H199.411V89.8439H194.772V91.5111ZM157.672 91.5111H162.311V89.8439H157.672V91.5111ZM153.039 91.5111H157.678V89.8439H153.039V91.5111ZM204.05 89.8505H208.689V88.1899H204.05V89.8505ZM199.411 89.8505H204.05V88.1899H199.411V89.8505ZM194.772 89.8505H199.411V88.1899H194.772V89.8505ZM157.672 89.8505H162.311V88.1899H157.672V89.8505ZM153.039 89.8505H157.678V88.1899H153.039V89.8505ZM204.05 88.1833H208.689V86.5161H204.05V88.1833ZM199.411 88.1833H204.05V86.5161H199.411V88.1833ZM194.772 88.1833H199.411V86.5161H194.772V88.1833ZM157.672 88.1833H162.311V86.5161H157.672V88.1833ZM153.039 88.1833H157.678V86.5161H153.039V88.1833ZM204.05 86.5227H208.689V84.8555H204.05V86.5227ZM199.411 86.5227H204.05V84.8555H199.411V86.5227ZM157.672 86.5227H162.311V84.8555H157.672V86.5227ZM153.039 86.5227H157.678V84.8555H153.039V86.5227ZM204.05 84.8555H208.689V83.1949H204.05V84.8555ZM199.411 84.8555H204.05V83.1949H199.411V84.8555ZM162.311 84.8555H166.95V83.1949H162.311V84.8555ZM157.672 84.8555H162.311V83.1949H157.672V84.8555ZM208.689 83.1949H213.328V81.5277H208.689V83.1949ZM204.05 83.1949H208.689V81.5277H204.05V83.1949ZM199.411 83.1949H204.05V81.5277H199.411V83.1949ZM166.95 83.1949H171.589V81.5277H166.95V83.1949ZM162.311 83.1949H166.95V81.5277H162.311V83.1949ZM157.672 83.1949H162.311V81.5277H157.672V83.1949ZM208.689 81.5277H213.328V79.8671H208.689V81.5277ZM204.05 81.5277H208.689V79.8671H204.05V81.5277ZM199.411 81.5277H204.05V79.8671H199.411V81.5277ZM166.95 81.5277H171.589V79.8671H166.95V81.5277ZM162.311 81.5277H166.95V79.8671H162.311V81.5277ZM208.689 79.8671H213.328V78.1999H208.689V79.8671ZM204.05 79.8671H208.689V78.1999H204.05V79.8671ZM213.322 78.1999H217.961V76.5328H213.322V78.1999ZM208.689 78.1999H213.328V76.5328H208.689V78.1999ZM204.05 78.1999H208.689V76.5328H204.05V78.1999ZM338.539 76.5393H343.178V74.8787H338.539V76.5393ZM278.25 76.5393H282.889V74.8787H278.25V76.5393ZM273.611 76.5393H278.25V74.8787H273.611V76.5393ZM268.972 76.5393H273.611V74.8787H268.972V76.5393ZM241.15 76.5393H245.789V74.8787H241.15V76.5393ZM217.961 76.5393H222.6V74.8787H217.961V76.5393ZM213.322 76.5393H217.961V74.8787H213.322V76.5393ZM208.689 76.5393H213.328V74.8787H208.689V76.5393ZM204.05 76.5393H208.689V74.8787H204.05V76.5393ZM162.311 76.5393H166.95V74.8787H162.311V76.5393ZM139.122 76.5393H143.761V74.8787H139.122V76.5393ZM111.3 76.5393H115.939V74.8787H111.3V76.5393ZM106.661 76.5393H111.3V74.8787H106.661V76.5393ZM102.022 76.5393H106.661V74.8787H102.022V76.5393ZM74.2 76.5393H78.8391V74.8787H74.2V76.5393ZM69.5609 76.5393H74.2V74.8787H69.5609V76.5393ZM13.9109 76.5393H18.55V74.8787H13.9109V76.5393ZM343.172 74.8722H347.811V73.205H343.172V74.8722ZM338.539 74.8722H343.178V73.205H338.539V74.8722ZM333.9 74.8722H338.539V73.205H333.9V74.8722ZM310.711 74.8722H315.35V73.205H310.711V74.8722ZM306.072 74.8722H310.711V73.205H306.072V74.8722ZM301.439 74.8722H306.078V73.205H301.439V74.8722ZM282.889 74.8722H287.528V73.205H282.889V74.8722ZM278.25 74.8722H282.889V73.205H278.25V74.8722ZM268.972 74.8722H273.611V73.205H268.972V74.8722ZM264.339 74.8722H268.978V73.205H264.339V74.8722ZM245.789 74.8722H250.428V73.205H245.789V74.8722ZM241.15 74.8722H245.789V73.205H241.15V74.8722ZM236.511 74.8722H241.15V73.205H236.511V74.8722ZM222.6 74.8722H227.239V73.205H222.6V74.8722ZM213.322 74.8722H217.961V73.205H213.322V74.8722ZM208.689 74.8722H213.328V73.205H208.689V74.8722ZM199.411 74.8722H204.05V73.205H199.411V74.8722ZM194.772 74.8722H199.411V73.205H194.772V74.8722ZM190.139 74.8722H194.778V73.205H190.139V74.8722ZM171.589 74.8722H176.228V73.205H171.589V74.8722ZM166.95 74.8722H171.589V73.205H166.95V74.8722ZM162.311 74.8722H166.95V73.205H162.311V74.8722ZM157.672 74.8722H162.311V73.205H157.672V74.8722ZM143.761 74.8722H148.4V73.205H143.761V74.8722ZM139.122 74.8722H143.761V73.205H139.122V74.8722ZM134.489 74.8722H139.128V73.205H134.489V74.8722ZM115.939 74.8722H120.578V73.205H115.939V74.8722ZM111.3 74.8722H115.939V73.205H111.3V74.8722ZM106.661 74.8722H111.3V73.205H106.661V74.8722ZM102.022 74.8722H106.661V73.205H102.022V74.8722ZM97.3891 74.8722H102.028V73.205H97.3891V74.8722ZM78.8391 74.8722H83.4783V73.205H78.8391V74.8722ZM69.5609 74.8722H74.2V73.205H69.5609V74.8722ZM64.9217 74.8722H69.5609V73.205H64.9217V74.8722ZM27.8283 74.8722H32.4674V73.205H27.8283V74.8722ZM23.1891 74.8722H27.8283V73.205H23.1891V74.8722ZM18.55 74.8722H23.1891V73.205H18.55V74.8722ZM9.2783 74.8722H13.9174V73.205H9.2783V74.8722ZM4.63915 74.8722H9.2783V73.205H4.63915V74.8722ZM343.172 73.2115H347.811V71.5509H343.172V73.2115ZM338.539 73.2115H343.178V71.5509H338.539V73.2115ZM333.9 73.2115H338.539V71.5509H333.9V73.2115ZM310.711 73.2115H315.35V71.5509H310.711V73.2115ZM306.072 73.2115H310.711V71.5509H306.072V73.2115ZM301.439 73.2115H306.078V71.5509H301.439V73.2115ZM287.522 73.2115H292.161V71.5509H287.522V73.2115ZM282.889 73.2115H287.528V71.5509H282.889V73.2115ZM268.972 73.2115H273.611V71.5509H268.972V73.2115ZM264.339 73.2115H268.978V71.5509H264.339V73.2115ZM250.422 73.2115H255.061V71.5509H250.422V73.2115ZM241.15 73.2115H245.789V71.5509H241.15V73.2115ZM236.511 73.2115H241.15V71.5509H236.511V73.2115ZM222.6 73.2115H227.239V71.5509H222.6V73.2115ZM213.322 73.2115H217.961V71.5509H213.322V73.2115ZM208.689 73.2115H213.328V71.5509H208.689V73.2115ZM204.05 73.2115H208.689V71.5509H204.05V73.2115ZM199.411 73.2115H204.05V71.5509H199.411V73.2115ZM194.772 73.2115H199.411V71.5509H194.772V73.2115ZM190.139 73.2115H194.778V71.5509H190.139V73.2115ZM185.5 73.2115H190.139V71.5509H185.5V73.2115ZM171.589 73.2115H176.228V71.5509H171.589V73.2115ZM162.311 73.2115H166.95V71.5509H162.311V73.2115ZM157.672 73.2115H162.311V71.5509H157.672V73.2115ZM143.761 73.2115H148.4V71.5509H143.761V73.2115ZM139.122 73.2115H143.761V71.5509H139.122V73.2115ZM134.489 73.2115H139.128V71.5509H134.489V73.2115ZM120.572 73.2115H125.211V71.5509H120.572V73.2115ZM115.939 73.2115H120.578V71.5509H115.939V73.2115ZM111.3 73.2115H115.939V71.5509H111.3V73.2115ZM106.661 73.2115H111.3V71.5509H106.661V73.2115ZM102.022 73.2115H106.661V71.5509H102.022V73.2115ZM97.3891 73.2115H102.028V71.5509H97.3891V73.2115ZM83.4717 73.2115H88.1109V71.5509H83.4717V73.2115ZM78.8391 73.2115H83.4783V71.5509H78.8391V73.2115ZM69.5609 73.2115H74.2V71.5509H69.5609V73.2115ZM64.9217 73.2115H69.5609V71.5509H64.9217V73.2115ZM32.4609 73.2115H37.1V71.5509H32.4609V73.2115ZM27.8283 73.2115H32.4674V71.5509H27.8283V73.2115ZM23.1891 73.2115H27.8283V71.5509H23.1891V73.2115ZM4.63915 73.2115H9.2783V71.5509H4.63915V73.2115ZM347.811 71.5444H352.45V69.8772H347.811V71.5444ZM333.9 71.5444H338.539V69.8772H333.9V71.5444ZM310.711 71.5444H315.35V69.8772H310.711V71.5444ZM306.072 71.5444H310.711V69.8772H306.072V71.5444ZM287.522 71.5444H292.161V69.8772H287.522V71.5444ZM282.889 71.5444H287.528V69.8772H282.889V71.5444ZM268.972 71.5444H273.611V69.8772H268.972V71.5444ZM264.339 71.5444H268.978V69.8772H264.339V71.5444ZM250.422 71.5444H255.061V69.8772H250.422V71.5444ZM241.15 71.5444H245.789V69.8772H241.15V71.5444ZM236.511 71.5444H241.15V69.8772H236.511V71.5444ZM222.6 71.5444H227.239V69.8772H222.6V71.5444ZM213.322 71.5444H217.961V69.8772H213.322V71.5444ZM208.689 71.5444H213.328V69.8772H208.689V71.5444ZM204.05 71.5444H208.689V69.8772H204.05V71.5444ZM194.772 71.5444H199.411V69.8772H194.772V71.5444ZM190.139 71.5444H194.778V69.8772H190.139V71.5444ZM185.5 71.5444H190.139V69.8772H185.5V71.5444ZM176.222 71.5444H180.861V69.8772H176.222V71.5444ZM171.589 71.5444H176.228V69.8772H171.589V71.5444ZM162.311 71.5444H166.95V69.8772H162.311V71.5444ZM157.672 71.5444H162.311V69.8772H157.672V71.5444ZM148.4 71.5444H153.039V69.8772H148.4V71.5444ZM139.122 71.5444H143.761V69.8772H139.122V71.5444ZM134.489 71.5444H139.128V69.8772H134.489V71.5444ZM120.572 71.5444H125.211V69.8772H120.572V71.5444ZM102.022 71.5444H106.661V69.8772H102.022V71.5444ZM97.3891 71.5444H102.028V69.8772H97.3891V71.5444ZM83.4717 71.5444H88.1109V69.8772H83.4717V71.5444ZM69.5609 71.5444H74.2V69.8772H69.5609V71.5444ZM64.9217 71.5444H69.5609V69.8772H64.9217V71.5444ZM32.4609 71.5444H37.1V69.8772H32.4609V71.5444ZM27.8283 71.5444H32.4674V69.8772H27.8283V71.5444ZM4.63915 71.5444H9.2783V69.8772H4.63915V71.5444ZM347.811 69.8838H352.45V68.2166H347.811V69.8838ZM333.9 69.8838H338.539V68.2166H333.9V69.8838ZM310.711 69.8838H315.35V68.2166H310.711V69.8838ZM306.072 69.8838H310.711V68.2166H306.072V69.8838ZM292.161 69.8838H296.8V68.2166H292.161V69.8838ZM287.522 69.8838H292.161V68.2166H287.522V69.8838ZM282.889 69.8838H287.528V68.2166H282.889V69.8838ZM268.972 69.8838H273.611V68.2166H268.972V69.8838ZM264.339 69.8838H268.978V68.2166H264.339V69.8838ZM250.422 69.8838H255.061V68.2166H250.422V69.8838ZM241.15 69.8838H245.789V68.2166H241.15V69.8838ZM236.511 69.8838H241.15V68.2166H236.511V69.8838ZM227.239 69.8838H231.878V68.2166H227.239V69.8838ZM213.322 69.8838H217.961V68.2166H213.322V69.8838ZM208.689 69.8838H213.328V68.2166H208.689V69.8838ZM204.05 69.8838H208.689V68.2166H204.05V69.8838ZM194.772 69.8838H199.411V68.2166H194.772V69.8838ZM190.139 69.8838H194.778V68.2166H190.139V69.8838ZM185.5 69.8838H190.139V68.2166H185.5V69.8838ZM176.222 69.8838H180.861V68.2166H176.222V69.8838ZM162.311 69.8838H166.95V68.2166H162.311V69.8838ZM157.672 69.8838H162.311V68.2166H157.672V69.8838ZM148.4 69.8838H153.039V68.2166H148.4V69.8838ZM139.122 69.8838H143.761V68.2166H139.122V69.8838ZM134.489 69.8838H139.128V68.2166H134.489V69.8838ZM125.211 69.8838H129.85V68.2166H125.211V69.8838ZM120.572 69.8838H125.211V68.2166H120.572V69.8838ZM102.022 69.8838H106.661V68.2166H102.022V69.8838ZM97.3891 69.8838H102.028V68.2166H97.3891V69.8838ZM92.75 69.8838H97.3891V68.2166H92.75V69.8838ZM83.4717 69.8838H88.1109V68.2166H83.4717V69.8838ZM69.5609 69.8838H74.2V68.2166H69.5609V69.8838ZM64.9217 69.8838H69.5609V68.2166H64.9217V69.8838ZM32.4609 69.8838H37.1V68.2166H32.4609V69.8838ZM27.8283 69.8838H32.4674V68.2166H27.8283V69.8838ZM4.63915 69.8838H9.2783V68.2166H4.63915V69.8838ZM0 69.8838H4.63915V68.2166H0V69.8838ZM352.45 68.2166H357.089V66.556H352.45V68.2166ZM338.539 68.2166H343.178V66.556H338.539V68.2166ZM333.9 68.2166H338.539V66.556H333.9V68.2166ZM315.35 68.2166H319.989V66.556H315.35V68.2166ZM310.711 68.2166H315.35V66.556H310.711V68.2166ZM306.072 68.2166H310.711V66.556H306.072V68.2166ZM292.161 68.2166H296.8V66.556H292.161V68.2166ZM287.522 68.2166H292.161V66.556H287.522V68.2166ZM268.972 68.2166H273.611V66.556H268.972V68.2166ZM264.339 68.2166H268.978V66.556H264.339V68.2166ZM255.061 68.2166H259.7V66.556H255.061V68.2166ZM241.15 68.2166H245.789V66.556H241.15V68.2166ZM236.511 68.2166H241.15V66.556H236.511V68.2166ZM231.872 68.2166H236.511V66.556H231.872V68.2166ZM217.961 68.2166H222.6V66.556H217.961V68.2166ZM213.322 68.2166H217.961V66.556H213.322V68.2166ZM208.689 68.2166H213.328V66.556H208.689V68.2166ZM190.139 68.2166H194.778V66.556H190.139V68.2166ZM185.5 68.2166H190.139V66.556H185.5V68.2166ZM162.311 68.2166H166.95V66.556H162.311V68.2166ZM157.672 68.2166H162.311V66.556H157.672V68.2166ZM153.039 68.2166H157.678V66.556H153.039V68.2166ZM139.122 68.2166H143.761V66.556H139.122V68.2166ZM134.489 68.2166H139.128V66.556H134.489V68.2166ZM125.211 68.2166H129.85V66.556H125.211V68.2166ZM102.022 68.2166H106.661V66.556H102.022V68.2166ZM97.3891 68.2166H102.028V66.556H97.3891V68.2166ZM92.75 68.2166H97.3891V66.556H92.75V68.2166ZM88.1109 68.2166H92.75V66.556H88.1109V68.2166ZM69.5609 68.2166H74.2V66.556H69.5609V68.2166ZM64.9217 68.2166H69.5609V66.556H64.9217V68.2166ZM37.1 68.2166H41.7391V66.556H37.1V68.2166ZM32.4609 68.2166H37.1V66.556H32.4609V68.2166ZM4.63915 68.2166H9.2783V66.556H4.63915V68.2166ZM0 68.2166H4.63915V66.556H0V68.2166ZM352.45 66.556H357.089V64.8888H352.45V66.556ZM338.539 66.556H343.178V64.8888H338.539V66.556ZM333.9 66.556H338.539V64.8888H333.9V66.556ZM315.35 66.556H319.989V64.8888H315.35V66.556ZM310.711 66.556H315.35V64.8888H310.711V66.556ZM306.072 66.556H310.711V64.8888H306.072V66.556ZM292.161 66.556H296.8V64.8888H292.161V66.556ZM287.522 66.556H292.161V64.8888H287.522V66.556ZM268.972 66.556H273.611V64.8888H268.972V66.556ZM264.339 66.556H268.978V64.8888H264.339V66.556ZM255.061 66.556H259.7V64.8888H255.061V66.556ZM241.15 66.556H245.789V64.8888H241.15V66.556ZM236.511 66.556H241.15V64.8888H236.511V66.556ZM231.872 66.556H236.511V64.8888H231.872V66.556ZM217.961 66.556H222.6V64.8888H217.961V66.556ZM213.322 66.556H217.961V64.8888H213.322V66.556ZM208.689 66.556H213.328V64.8888H208.689V66.556ZM190.139 66.556H194.778V64.8888H190.139V66.556ZM185.5 66.556H190.139V64.8888H185.5V66.556ZM180.861 66.556H185.5V64.8888H180.861V66.556ZM166.95 66.556H171.589V64.8888H166.95V66.556ZM162.311 66.556H166.95V64.8888H162.311V66.556ZM157.672 66.556H162.311V64.8888H157.672V66.556ZM153.039 66.556H157.678V64.8888H153.039V66.556ZM139.122 66.556H143.761V64.8888H139.122V66.556ZM134.489 66.556H139.128V64.8888H134.489V66.556ZM129.85 66.556H134.489V64.8888H129.85V66.556ZM102.022 66.556H106.661V64.8888H102.022V66.556ZM97.3891 66.556H102.028V64.8888H97.3891V66.556ZM92.75 66.556H97.3891V64.8888H92.75V66.556ZM88.1109 66.556H92.75V64.8888H88.1109V66.556ZM69.5609 66.556H74.2V64.8888H69.5609V66.556ZM64.9217 66.556H69.5609V64.8888H64.9217V66.556ZM41.7391 66.556H46.3783V64.8888H41.7391V66.556ZM37.1 66.556H41.7391V64.8888H37.1V66.556ZM32.4609 66.556H37.1V64.8888H32.4609V66.556ZM4.63915 66.556H9.2783V64.8888H4.63915V66.556ZM0 66.556H4.63915V64.8888H0V66.556ZM352.45 64.8888H357.089V63.2282H352.45V64.8888ZM338.539 64.8888H343.178V63.2282H338.539V64.8888ZM333.9 64.8888H338.539V63.2282H333.9V64.8888ZM315.35 64.8888H319.989V63.2282H315.35V64.8888ZM310.711 64.8888H315.35V63.2282H310.711V64.8888ZM306.072 64.8888H310.711V63.2282H306.072V64.8888ZM296.8 64.8888H301.439V63.2282H296.8V64.8888ZM292.161 64.8888H296.8V63.2282H292.161V64.8888ZM287.522 64.8888H292.161V63.2282H287.522V64.8888ZM268.972 64.8888H273.611V63.2282H268.972V64.8888ZM264.339 64.8888H268.978V63.2282H264.339V64.8888ZM259.7 64.8888H264.339V63.2282H259.7V64.8888ZM241.15 64.8888H245.789V63.2282H241.15V64.8888ZM236.511 64.8888H241.15V63.2282H236.511V64.8888ZM231.872 64.8888H236.511V63.2282H231.872V64.8888ZM217.961 64.8888H222.6V63.2282H217.961V64.8888ZM213.322 64.8888H217.961V63.2282H213.322V64.8888ZM208.689 64.8888H213.328V63.2282H208.689V64.8888ZM190.139 64.8888H194.778V63.2282H190.139V64.8888ZM185.5 64.8888H190.139V63.2282H185.5V64.8888ZM180.861 64.8888H185.5V63.2282H180.861V64.8888ZM166.95 64.8888H171.589V63.2282H166.95V64.8888ZM162.311 64.8888H166.95V63.2282H162.311V64.8888ZM157.672 64.8888H162.311V63.2282H157.672V64.8888ZM139.122 64.8888H143.761V63.2282H139.122V64.8888ZM134.489 64.8888H139.128V63.2282H134.489V64.8888ZM129.85 64.8888H134.489V63.2282H129.85V64.8888ZM102.022 64.8888H106.661V63.2282H102.022V64.8888ZM97.3891 64.8888H102.028V63.2282H97.3891V64.8888ZM92.75 64.8888H97.3891V63.2282H92.75V64.8888ZM74.2 64.8888H78.8391V63.2282H74.2V64.8888ZM69.5609 64.8888H74.2V63.2282H69.5609V64.8888ZM64.9217 64.8888H69.5609V63.2282H64.9217V64.8888ZM41.7391 64.8888H46.3783V63.2282H41.7391V64.8888ZM37.1 64.8888H41.7391V63.2282H37.1V64.8888ZM4.63915 64.8888H9.2783V63.2282H4.63915V64.8888ZM0 64.8888H4.63915V63.2282H0V64.8888ZM357.089 63.2282H361.728V61.561H357.089V63.2282ZM343.172 63.2282H347.811V61.561H343.172V63.2282ZM338.539 63.2282H343.178V61.561H338.539V63.2282ZM333.9 63.2282H338.539V61.561H333.9V63.2282ZM315.35 63.2282H319.989V61.561H315.35V63.2282ZM310.711 63.2282H315.35V61.561H310.711V63.2282ZM296.8 63.2282H301.439V61.561H296.8V63.2282ZM292.161 63.2282H296.8V61.561H292.161V63.2282ZM268.972 63.2282H273.611V61.561H268.972V63.2282ZM264.339 63.2282H268.978V61.561H264.339V63.2282ZM259.7 63.2282H264.339V61.561H259.7V63.2282ZM245.789 63.2282H250.428V61.561H245.789V63.2282ZM241.15 63.2282H245.789V61.561H241.15V63.2282ZM236.511 63.2282H241.15V61.561H236.511V63.2282ZM217.961 63.2282H222.6V61.561H217.961V63.2282ZM213.322 63.2282H217.961V61.561H213.322V63.2282ZM194.772 63.2282H199.411V61.561H194.772V63.2282ZM190.139 63.2282H194.778V61.561H190.139V63.2282ZM185.5 63.2282H190.139V61.561H185.5V63.2282ZM166.95 63.2282H171.589V61.561H166.95V63.2282ZM162.311 63.2282H166.95V61.561H162.311V63.2282ZM157.672 63.2282H162.311V61.561H157.672V63.2282ZM139.122 63.2282H143.761V61.561H139.122V63.2282ZM134.489 63.2282H139.128V61.561H134.489V63.2282ZM129.85 63.2282H134.489V61.561H129.85V63.2282ZM102.022 63.2282H106.661V61.561H102.022V63.2282ZM97.3891 63.2282H102.028V61.561H97.3891V63.2282ZM92.75 63.2282H97.3891V61.561H92.75V63.2282ZM74.2 63.2282H78.8391V61.561H74.2V63.2282ZM69.5609 63.2282H74.2V61.561H69.5609V63.2282ZM64.9217 63.2282H69.5609V61.561H64.9217V63.2282ZM41.7391 63.2282H46.3783V61.561H41.7391V63.2282ZM37.1 63.2282H41.7391V61.561H37.1V63.2282ZM4.63915 63.2282H9.2783V61.561H4.63915V63.2282ZM0 63.2282H4.63915V61.561H0V63.2282ZM357.089 61.561H361.728V59.8938H357.089V61.561ZM343.172 61.561H347.811V59.8938H343.172V61.561ZM338.539 61.561H343.178V59.8938H338.539V61.561ZM333.9 61.561H338.539V59.8938H333.9V61.561ZM319.989 61.561H324.628V59.8938H319.989V61.561ZM315.35 61.561H319.989V59.8938H315.35V61.561ZM310.711 61.561H315.35V59.8938H310.711V61.561ZM296.8 61.561H301.439V59.8938H296.8V61.561ZM292.161 61.561H296.8V59.8938H292.161V61.561ZM268.972 61.561H273.611V59.8938H268.972V61.561ZM264.339 61.561H268.978V59.8938H264.339V61.561ZM245.789 61.561H250.428V59.8938H245.789V61.561ZM241.15 61.561H245.789V59.8938H241.15V61.561ZM236.511 61.561H241.15V59.8938H236.511V61.561ZM217.961 61.561H222.6V59.8938H217.961V61.561ZM213.322 61.561H217.961V59.8938H213.322V61.561ZM194.772 61.561H199.411V59.8938H194.772V61.561ZM190.139 61.561H194.778V59.8938H190.139V61.561ZM185.5 61.561H190.139V59.8938H185.5V61.561ZM166.95 61.561H171.589V59.8938H166.95V61.561ZM162.311 61.561H166.95V59.8938H162.311V61.561ZM157.672 61.561H162.311V59.8938H157.672V61.561ZM143.761 61.561H148.4V59.8938H143.761V61.561ZM139.122 61.561H143.761V59.8938H139.122V61.561ZM134.489 61.561H139.128V59.8938H134.489V61.561ZM102.022 61.561H106.661V59.8938H102.022V61.561ZM97.3891 61.561H102.028V59.8938H97.3891V61.561ZM92.75 61.561H97.3891V59.8938H92.75V61.561ZM74.2 61.561H78.8391V59.8938H74.2V61.561ZM69.5609 61.561H74.2V59.8938H69.5609V61.561ZM64.9217 61.561H69.5609V59.8938H64.9217V61.561ZM46.3783 61.561H51.0174V59.8938H46.3783V61.561ZM41.7391 61.561H46.3783V59.8938H41.7391V61.561ZM37.1 61.561H41.7391V59.8938H37.1V61.561ZM4.63915 61.561H9.2783V59.8938H4.63915V61.561ZM0 61.561H4.63915V59.8938H0V61.561ZM357.089 59.9004H361.728V58.2398H357.089V59.9004ZM343.172 59.9004H347.811V58.2398H343.172V59.9004ZM338.539 59.9004H343.178V58.2398H338.539V59.9004ZM333.9 59.9004H338.539V58.2398H333.9V59.9004ZM319.989 59.9004H324.628V58.2398H319.989V59.9004ZM315.35 59.9004H319.989V58.2398H315.35V59.9004ZM310.711 59.9004H315.35V58.2398H310.711V59.9004ZM296.8 59.9004H301.439V58.2398H296.8V59.9004ZM292.161 59.9004H296.8V58.2398H292.161V59.9004ZM268.972 59.9004H273.611V58.2398H268.972V59.9004ZM264.339 59.9004H268.978V58.2398H264.339V59.9004ZM245.789 59.9004H250.428V58.2398H245.789V59.9004ZM241.15 59.9004H245.789V58.2398H241.15V59.9004ZM236.511 59.9004H241.15V58.2398H236.511V59.9004ZM222.6 59.9004H227.239V58.2398H222.6V59.9004ZM217.961 59.9004H222.6V58.2398H217.961V59.9004ZM213.322 59.9004H217.961V58.2398H213.322V59.9004ZM194.772 59.9004H199.411V58.2398H194.772V59.9004ZM190.139 59.9004H194.778V58.2398H190.139V59.9004ZM185.5 59.9004H190.139V58.2398H185.5V59.9004ZM166.95 59.9004H171.589V58.2398H166.95V59.9004ZM162.311 59.9004H166.95V58.2398H162.311V59.9004ZM143.761 59.9004H148.4V58.2398H143.761V59.9004ZM139.122 59.9004H143.761V58.2398H139.122V59.9004ZM134.489 59.9004H139.128V58.2398H134.489V59.9004ZM102.022 59.9004H106.661V58.2398H102.022V59.9004ZM97.3891 59.9004H102.028V58.2398H97.3891V59.9004ZM92.75 59.9004H97.3891V58.2398H92.75V59.9004ZM74.2 59.9004H78.8391V58.2398H74.2V59.9004ZM69.5609 59.9004H74.2V58.2398H69.5609V59.9004ZM64.9217 59.9004H69.5609V58.2398H64.9217V59.9004ZM46.3783 59.9004H51.0174V58.2398H46.3783V59.9004ZM41.7391 59.9004H46.3783V58.2398H41.7391V59.9004ZM37.1 59.9004H41.7391V58.2398H37.1V59.9004ZM4.63915 59.9004H9.2783V58.2398H4.63915V59.9004ZM0 59.9004H4.63915V58.2398H0V59.9004ZM361.722 58.2398H366.361V56.5726H361.722V58.2398ZM343.172 58.2398H347.811V56.5726H343.172V58.2398ZM338.539 58.2398H343.178V56.5726H338.539V58.2398ZM319.989 58.2398H324.628V56.5726H319.989V58.2398ZM315.35 58.2398H319.989V56.5726H315.35V58.2398ZM310.711 58.2398H315.35V56.5726H310.711V58.2398ZM301.439 58.2398H306.078V56.5726H301.439V58.2398ZM296.8 58.2398H301.439V56.5726H296.8V58.2398ZM292.161 58.2398H296.8V56.5726H292.161V58.2398ZM273.611 58.2398H278.25V56.5726H273.611V58.2398ZM268.972 58.2398H273.611V56.5726H268.972V58.2398ZM264.339 58.2398H268.978V56.5726H264.339V58.2398ZM245.789 58.2398H250.428V56.5726H245.789V58.2398ZM241.15 58.2398H245.789V56.5726H241.15V58.2398ZM222.6 58.2398H227.239V56.5726H222.6V58.2398ZM217.961 58.2398H222.6V56.5726H217.961V58.2398ZM213.322 58.2398H217.961V56.5726H213.322V58.2398ZM194.772 58.2398H199.411V56.5726H194.772V58.2398ZM190.139 58.2398H194.778V56.5726H190.139V58.2398ZM185.5 58.2398H190.139V56.5726H185.5V58.2398ZM171.589 58.2398H176.228V56.5726H171.589V58.2398ZM166.95 58.2398H171.589V56.5726H166.95V58.2398ZM162.311 58.2398H166.95V56.5726H162.311V58.2398ZM143.761 58.2398H148.4V56.5726H143.761V58.2398ZM139.122 58.2398H143.761V56.5726H139.122V58.2398ZM134.489 58.2398H139.128V56.5726H134.489V58.2398ZM111.3 58.2398H115.939V56.5726H111.3V58.2398ZM106.661 58.2398H111.3V56.5726H106.661V58.2398ZM102.022 58.2398H106.661V56.5726H102.022V58.2398ZM97.3891 58.2398H102.028V56.5726H97.3891V58.2398ZM92.75 58.2398H97.3891V56.5726H92.75V58.2398ZM74.2 58.2398H78.8391V56.5726H74.2V58.2398ZM69.5609 58.2398H74.2V56.5726H69.5609V58.2398ZM46.3783 58.2398H51.0174V56.5726H46.3783V58.2398ZM41.7391 58.2398H46.3783V56.5726H41.7391V58.2398ZM4.63915 58.2398H9.2783V56.5726H4.63915V58.2398ZM0 58.2398H4.63915V56.5726H0V58.2398ZM361.722 56.5726H366.361V54.912H361.722V56.5726ZM343.172 56.5726H347.811V54.912H343.172V56.5726ZM338.539 56.5726H343.178V54.912H338.539V56.5726ZM319.989 56.5726H324.628V54.912H319.989V56.5726ZM315.35 56.5726H319.989V54.912H315.35V56.5726ZM310.711 56.5726H315.35V54.912H310.711V56.5726ZM301.439 56.5726H306.078V54.912H301.439V56.5726ZM296.8 56.5726H301.439V54.912H296.8V56.5726ZM292.161 56.5726H296.8V54.912H292.161V56.5726ZM273.611 56.5726H278.25V54.912H273.611V56.5726ZM268.972 56.5726H273.611V54.912H268.972V56.5726ZM264.339 56.5726H268.978V54.912H264.339V56.5726ZM245.789 56.5726H250.428V54.912H245.789V56.5726ZM241.15 56.5726H245.789V54.912H241.15V56.5726ZM222.6 56.5726H227.239V54.912H222.6V56.5726ZM217.961 56.5726H222.6V54.912H217.961V56.5726ZM194.772 56.5726H199.411V54.912H194.772V56.5726ZM190.139 56.5726H194.778V54.912H190.139V56.5726ZM171.589 56.5726H176.228V54.912H171.589V56.5726ZM166.95 56.5726H171.589V54.912H166.95V56.5726ZM162.311 56.5726H166.95V54.912H162.311V56.5726ZM143.761 56.5726H148.4V54.912H143.761V56.5726ZM139.122 56.5726H143.761V54.912H139.122V56.5726ZM115.939 56.5726H120.578V54.912H115.939V56.5726ZM111.3 56.5726H115.939V54.912H111.3V56.5726ZM102.022 56.5726H106.661V54.912H102.022V56.5726ZM97.3891 56.5726H102.028V54.912H97.3891V56.5726ZM74.2 56.5726H78.8391V54.912H74.2V56.5726ZM69.5609 56.5726H74.2V54.912H69.5609V56.5726ZM46.3783 56.5726H51.0174V54.912H46.3783V56.5726ZM41.7391 56.5726H46.3783V54.912H41.7391V56.5726ZM4.63915 56.5726H9.2783V54.912H4.63915V56.5726ZM361.722 54.9054H366.361V53.2448H361.722V54.9054ZM347.811 54.9054H352.45V53.2448H347.811V54.9054ZM343.172 54.9054H347.811V53.2448H343.172V54.9054ZM338.539 54.9054H343.178V53.2448H338.539V54.9054ZM319.989 54.9054H324.628V53.2448H319.989V54.9054ZM315.35 54.9054H319.989V53.2448H315.35V54.9054ZM310.711 54.9054H315.35V53.2448H310.711V54.9054ZM306.072 54.9054H310.711V53.2448H306.072V54.9054ZM301.439 54.9054H306.078V53.2448H301.439V54.9054ZM296.8 54.9054H301.439V53.2448H296.8V54.9054ZM292.161 54.9054H296.8V53.2448H292.161V54.9054ZM273.611 54.9054H278.25V53.2448H273.611V54.9054ZM268.972 54.9054H273.611V53.2448H268.972V54.9054ZM264.339 54.9054H268.978V53.2448H264.339V54.9054ZM250.422 54.9054H255.061V53.2448H250.422V54.9054ZM245.789 54.9054H250.428V53.2448H245.789V54.9054ZM241.15 54.9054H245.789V53.2448H241.15V54.9054ZM222.6 54.9054H227.239V53.2448H222.6V54.9054ZM217.961 54.9054H222.6V53.2448H217.961V54.9054ZM194.772 54.9054H199.411V53.2448H194.772V54.9054ZM190.139 54.9054H194.778V53.2448H190.139V54.9054ZM171.589 54.9054H176.228V53.2448H171.589V54.9054ZM166.95 54.9054H171.589V53.2448H166.95V54.9054ZM162.311 54.9054H166.95V53.2448H162.311V54.9054ZM143.761 54.9054H148.4V53.2448H143.761V54.9054ZM139.122 54.9054H143.761V53.2448H139.122V54.9054ZM120.572 54.9054H125.211V53.2448H120.572V54.9054ZM115.939 54.9054H120.578V53.2448H115.939V54.9054ZM102.022 54.9054H106.661V53.2448H102.022V54.9054ZM97.3891 54.9054H102.028V53.2448H97.3891V54.9054ZM74.2 54.9054H78.8391V53.2448H74.2V54.9054ZM69.5609 54.9054H74.2V53.2448H69.5609V54.9054ZM51.0109 54.9054H55.65V53.2448H51.0109V54.9054ZM46.3783 54.9054H51.0174V53.2448H46.3783V54.9054ZM41.7391 54.9054H46.3783V53.2448H41.7391V54.9054ZM347.811 53.2448H352.45V51.5776H347.811V53.2448ZM343.172 53.2448H347.811V51.5776H343.172V53.2448ZM338.539 53.2448H343.178V51.5776H338.539V53.2448ZM324.622 53.2448H329.261V51.5776H324.622V53.2448ZM319.989 53.2448H324.628V51.5776H319.989V53.2448ZM315.35 53.2448H319.989V51.5776H315.35V53.2448ZM306.072 53.2448H310.711V51.5776H306.072V53.2448ZM301.439 53.2448H306.078V51.5776H301.439V53.2448ZM296.8 53.2448H301.439V51.5776H296.8V53.2448ZM292.161 53.2448H296.8V51.5776H292.161V53.2448ZM273.611 53.2448H278.25V51.5776H273.611V53.2448ZM268.972 53.2448H273.611V51.5776H268.972V53.2448ZM264.339 53.2448H268.978V51.5776H264.339V53.2448ZM250.422 53.2448H255.061V51.5776H250.422V53.2448ZM245.789 53.2448H250.428V51.5776H245.789V53.2448ZM241.15 53.2448H245.789V51.5776H241.15V53.2448ZM222.6 53.2448H227.239V51.5776H222.6V53.2448ZM217.961 53.2448H222.6V51.5776H217.961V53.2448ZM194.772 53.2448H199.411V51.5776H194.772V53.2448ZM190.139 53.2448H194.778V51.5776H190.139V53.2448ZM171.589 53.2448H176.228V51.5776H171.589V53.2448ZM166.95 53.2448H171.589V51.5776H166.95V53.2448ZM143.761 53.2448H148.4V51.5776H143.761V53.2448ZM139.122 53.2448H143.761V51.5776H139.122V53.2448ZM125.211 53.2448H129.85V51.5776H125.211V53.2448ZM120.572 53.2448H125.211V51.5776H120.572V53.2448ZM115.939 53.2448H120.578V51.5776H115.939V53.2448ZM102.022 53.2448H106.661V51.5776H102.022V53.2448ZM97.3891 53.2448H102.028V51.5776H97.3891V53.2448ZM74.2 53.2448H78.8391V51.5776H74.2V53.2448ZM69.5609 53.2448H74.2V51.5776H69.5609V53.2448ZM51.0109 53.2448H55.65V51.5776H51.0109V53.2448ZM46.3783 53.2448H51.0174V51.5776H46.3783V53.2448ZM41.7391 53.2448H46.3783V51.5776H41.7391V53.2448ZM366.361 51.5776H371V49.917H366.361V51.5776ZM347.811 51.5776H352.45V49.917H347.811V51.5776ZM343.172 51.5776H347.811V49.917H343.172V51.5776ZM338.539 51.5776H343.178V49.917H338.539V51.5776ZM324.622 51.5776H329.261V49.917H324.622V51.5776ZM319.989 51.5776H324.628V49.917H319.989V51.5776ZM315.35 51.5776H319.989V49.917H315.35V51.5776ZM301.439 51.5776H306.078V49.917H301.439V51.5776ZM296.8 51.5776H301.439V49.917H296.8V51.5776ZM273.611 51.5776H278.25V49.917H273.611V51.5776ZM268.972 51.5776H273.611V49.917H268.972V51.5776ZM250.422 51.5776H255.061V49.917H250.422V51.5776ZM245.789 51.5776H250.428V49.917H245.789V51.5776ZM227.239 51.5776H231.878V49.917H227.239V51.5776ZM222.6 51.5776H227.239V49.917H222.6V51.5776ZM217.961 51.5776H222.6V49.917H217.961V51.5776ZM199.411 51.5776H204.05V49.917H199.411V51.5776ZM194.772 51.5776H199.411V49.917H194.772V51.5776ZM190.139 51.5776H194.778V49.917H190.139V51.5776ZM176.222 51.5776H180.861V49.917H176.222V51.5776ZM171.589 51.5776H176.228V49.917H171.589V51.5776ZM166.95 51.5776H171.589V49.917H166.95V51.5776ZM148.4 51.5776H153.039V49.917H148.4V51.5776ZM143.761 51.5776H148.4V49.917H143.761V51.5776ZM139.122 51.5776H143.761V49.917H139.122V51.5776ZM125.211 51.5776H129.85V49.917H125.211V51.5776ZM120.572 51.5776H125.211V49.917H120.572V51.5776ZM106.661 51.5776H111.3V49.917H106.661V51.5776ZM102.022 51.5776H106.661V49.917H102.022V51.5776ZM74.2 51.5776H78.8391V49.917H74.2V51.5776ZM69.5609 51.5776H74.2V49.917H69.5609V51.5776ZM51.0109 51.5776H55.65V49.917H51.0109V51.5776ZM46.3783 51.5776H51.0174V49.917H46.3783V51.5776ZM32.4609 51.5776H37.1V49.917H32.4609V51.5776ZM27.8283 51.5776H32.4674V49.917H27.8283V51.5776ZM23.1891 51.5776H27.8283V49.917H23.1891V51.5776ZM18.55 51.5776H23.1891V49.917H18.55V51.5776ZM366.361 49.917H371V48.2564H366.361V49.917ZM347.811 49.917H352.45V48.2564H347.811V49.917ZM343.172 49.917H347.811V48.2564H343.172V49.917ZM329.261 49.917H333.9V48.2564H329.261V49.917ZM324.622 49.917H329.261V48.2564H324.622V49.917ZM319.989 49.917H324.628V48.2564H319.989V49.917ZM315.35 49.917H319.989V48.2564H315.35V49.917ZM301.439 49.917H306.078V48.2564H301.439V49.917ZM296.8 49.917H301.439V48.2564H296.8V49.917ZM278.25 49.917H282.889V48.2564H278.25V49.917ZM273.611 49.917H278.25V48.2564H273.611V49.917ZM268.972 49.917H273.611V48.2564H268.972V49.917ZM250.422 49.917H255.061V48.2564H250.422V49.917ZM245.789 49.917H250.428V48.2564H245.789V49.917ZM227.239 49.917H231.878V48.2564H227.239V49.917ZM222.6 49.917H227.239V48.2564H222.6V49.917ZM217.961 49.917H222.6V48.2564H217.961V49.917ZM199.411 49.917H204.05V48.2564H199.411V49.917ZM194.772 49.917H199.411V48.2564H194.772V49.917ZM176.222 49.917H180.861V48.2564H176.222V49.917ZM171.589 49.917H176.228V48.2564H171.589V49.917ZM166.95 49.917H171.589V48.2564H166.95V49.917ZM148.4 49.917H153.039V48.2564H148.4V49.917ZM143.761 49.917H148.4V48.2564H143.761V49.917ZM125.211 49.917H129.85V48.2564H125.211V49.917ZM120.572 49.917H125.211V48.2564H120.572V49.917ZM106.661 49.917H111.3V48.2564H106.661V49.917ZM102.022 49.917H106.661V48.2564H102.022V49.917ZM74.2 49.917H78.8391V48.2564H74.2V49.917ZM69.5609 49.917H74.2V48.2564H69.5609V49.917ZM51.0109 49.917H55.65V48.2564H51.0109V49.917ZM46.3783 49.917H51.0174V48.2564H46.3783V49.917ZM32.4609 49.917H37.1V48.2564H32.4609V49.917ZM23.1891 49.917H27.8283V48.2564H23.1891V49.917ZM18.55 49.917H23.1891V48.2564H18.55V49.917ZM13.9109 49.917H18.55V48.2564H13.9109V49.917ZM366.361 48.2498H371V46.5826H366.361V48.2498ZM347.811 48.2498H352.45V46.5826H347.811V48.2498ZM343.172 48.2498H347.811V46.5826H343.172V48.2498ZM329.261 48.2498H333.9V46.5826H329.261V48.2498ZM324.622 48.2498H329.261V46.5826H324.622V48.2498ZM319.989 48.2498H324.628V46.5826H319.989V48.2498ZM301.439 48.2498H306.078V46.5826H301.439V48.2498ZM296.8 48.2498H301.439V46.5826H296.8V48.2498ZM278.25 48.2498H282.889V46.5826H278.25V48.2498ZM273.611 48.2498H278.25V46.5826H273.611V48.2498ZM268.972 48.2498H273.611V46.5826H268.972V48.2498ZM250.422 48.2498H255.061V46.5826H250.422V48.2498ZM245.789 48.2498H250.428V46.5826H245.789V48.2498ZM227.239 48.2498H231.878V46.5826H227.239V48.2498ZM222.6 48.2498H227.239V46.5826H222.6V48.2498ZM217.961 48.2498H222.6V46.5826H217.961V48.2498ZM199.411 48.2498H204.05V46.5826H199.411V48.2498ZM194.772 48.2498H199.411V46.5826H194.772V48.2498ZM176.222 48.2498H180.861V46.5826H176.222V48.2498ZM171.589 48.2498H176.228V46.5826H171.589V48.2498ZM166.95 48.2498H171.589V46.5826H166.95V48.2498ZM148.4 48.2498H153.039V46.5826H148.4V48.2498ZM143.761 48.2498H148.4V46.5826H143.761V48.2498ZM129.85 48.2498H134.489V46.5826H129.85V48.2498ZM125.211 48.2498H129.85V46.5826H125.211V48.2498ZM120.572 48.2498H125.211V46.5826H120.572V48.2498ZM106.661 48.2498H111.3V46.5826H106.661V48.2498ZM102.022 48.2498H106.661V46.5826H102.022V48.2498ZM74.2 48.2498H78.8391V46.5826H74.2V48.2498ZM55.65 48.2498H60.2891V46.5826H55.65V48.2498ZM51.0109 48.2498H55.65V46.5826H51.0109V48.2498ZM46.3783 48.2498H51.0174V46.5826H46.3783V48.2498ZM32.4609 48.2498H37.1V46.5826H32.4609V48.2498ZM18.55 48.2498H23.1891V46.5826H18.55V48.2498ZM13.9109 48.2498H18.55V46.5826H13.9109V48.2498ZM347.811 46.5892H352.45V44.9286H347.811V46.5892ZM343.172 46.5892H347.811V44.9286H343.172V46.5892ZM329.261 46.5892H333.9V44.9286H329.261V46.5892ZM324.622 46.5892H329.261V44.9286H324.622V46.5892ZM319.989 46.5892H324.628V44.9286H319.989V46.5892ZM301.439 46.5892H306.078V44.9286H301.439V46.5892ZM296.8 46.5892H301.439V44.9286H296.8V46.5892ZM278.25 46.5892H282.889V44.9286H278.25V46.5892ZM273.611 46.5892H278.25V44.9286H273.611V46.5892ZM255.061 46.5892H259.7V44.9286H255.061V46.5892ZM250.422 46.5892H255.061V44.9286H250.422V46.5892ZM245.789 46.5892H250.428V44.9286H245.789V46.5892ZM227.239 46.5892H231.878V44.9286H227.239V46.5892ZM222.6 46.5892H227.239V44.9286H222.6V46.5892ZM217.961 46.5892H222.6V44.9286H217.961V46.5892ZM204.05 46.5892H208.689V44.9286H204.05V46.5892ZM199.411 46.5892H204.05V44.9286H199.411V46.5892ZM194.772 46.5892H199.411V44.9286H194.772V46.5892ZM176.222 46.5892H180.861V44.9286H176.222V46.5892ZM171.589 46.5892H176.228V44.9286H171.589V46.5892ZM153.039 46.5892H157.678V44.9286H153.039V46.5892ZM148.4 46.5892H153.039V44.9286H148.4V46.5892ZM143.761 46.5892H148.4V44.9286H143.761V46.5892ZM129.85 46.5892H134.489V44.9286H129.85V46.5892ZM125.211 46.5892H129.85V44.9286H125.211V46.5892ZM111.3 46.5892H115.939V44.9286H111.3V46.5892ZM106.661 46.5892H111.3V44.9286H106.661V46.5892ZM102.022 46.5892H106.661V44.9286H102.022V46.5892ZM74.2 46.5892H78.8391V44.9286H74.2V46.5892ZM55.65 46.5892H60.2891V44.9286H55.65V46.5892ZM51.0109 46.5892H55.65V44.9286H51.0109V46.5892ZM46.3783 46.5892H51.0174V44.9286H46.3783V46.5892ZM37.1 46.5892H41.7391V44.9286H37.1V46.5892ZM13.9109 46.5892H18.55V44.9286H13.9109V46.5892ZM9.2783 46.5892H13.9174V44.9286H9.2783V46.5892ZM347.811 44.922H352.45V43.2614H347.811V44.922ZM343.172 44.922H347.811V43.2614H343.172V44.922ZM333.9 44.922H338.539V43.2614H333.9V44.922ZM329.261 44.922H333.9V43.2614H329.261V44.922ZM324.622 44.922H329.261V43.2614H324.622V44.922ZM319.989 44.922H324.628V43.2614H319.989V44.922ZM301.439 44.922H306.078V43.2614H301.439V44.922ZM296.8 44.922H301.439V43.2614H296.8V44.922ZM278.25 44.922H282.889V43.2614H278.25V44.922ZM273.611 44.922H278.25V43.2614H273.611V44.922ZM255.061 44.922H259.7V43.2614H255.061V44.922ZM250.422 44.922H255.061V43.2614H250.422V44.922ZM231.872 44.922H236.511V43.2614H231.872V44.922ZM227.239 44.922H231.878V43.2614H227.239V44.922ZM222.6 44.922H227.239V43.2614H222.6V44.922ZM217.961 44.922H222.6V43.2614H217.961V44.922ZM204.05 44.922H208.689V43.2614H204.05V44.922ZM199.411 44.922H204.05V43.2614H199.411V44.922ZM176.222 44.922H180.861V43.2614H176.222V44.922ZM171.589 44.922H176.228V43.2614H171.589V44.922ZM153.039 44.922H157.678V43.2614H153.039V44.922ZM148.4 44.922H153.039V43.2614H148.4V44.922ZM143.761 44.922H148.4V43.2614H143.761V44.922ZM129.85 44.922H134.489V43.2614H129.85V44.922ZM125.211 44.922H129.85V43.2614H125.211V44.922ZM111.3 44.922H115.939V43.2614H111.3V44.922ZM106.661 44.922H111.3V43.2614H106.661V44.922ZM74.2 44.922H78.8391V43.2614H74.2V44.922ZM55.65 44.922H60.2891V43.2614H55.65V44.922ZM51.0109 44.922H55.65V43.2614H51.0109V44.922ZM46.3783 44.922H51.0174V43.2614H46.3783V44.922ZM41.7391 44.922H46.3783V43.2614H41.7391V44.922ZM37.1 44.922H41.7391V43.2614H37.1V44.922ZM13.9109 44.922H18.55V43.2614H13.9109V44.922ZM9.2783 44.922H13.9174V43.2614H9.2783V44.922ZM347.811 43.2614H352.45V41.5942H347.811V43.2614ZM333.9 43.2614H338.539V41.5942H333.9V43.2614ZM329.261 43.2614H333.9V41.5942H329.261V43.2614ZM324.622 43.2614H329.261V41.5942H324.622V43.2614ZM319.989 43.2614H324.628V41.5942H319.989V43.2614ZM301.439 43.2614H306.078V41.5942H301.439V43.2614ZM296.8 43.2614H301.439V41.5942H296.8V43.2614ZM282.889 43.2614H287.528V41.5942H282.889V43.2614ZM278.25 43.2614H282.889V41.5942H278.25V43.2614ZM255.061 43.2614H259.7V41.5942H255.061V43.2614ZM250.422 43.2614H255.061V41.5942H250.422V43.2614ZM231.872 43.2614H236.511V41.5942H231.872V43.2614ZM227.239 43.2614H231.878V41.5942H227.239V43.2614ZM222.6 43.2614H227.239V41.5942H222.6V43.2614ZM217.961 43.2614H222.6V41.5942H217.961V43.2614ZM204.05 43.2614H208.689V41.5942H204.05V43.2614ZM199.411 43.2614H204.05V41.5942H199.411V43.2614ZM180.861 43.2614H185.5V41.5942H180.861V43.2614ZM176.222 43.2614H180.861V41.5942H176.222V43.2614ZM171.589 43.2614H176.228V41.5942H171.589V43.2614ZM153.039 43.2614H157.678V41.5942H153.039V43.2614ZM148.4 43.2614H153.039V41.5942H148.4V43.2614ZM143.761 43.2614H148.4V41.5942H143.761V43.2614ZM129.85 43.2614H134.489V41.5942H129.85V43.2614ZM125.211 43.2614H129.85V41.5942H125.211V43.2614ZM111.3 43.2614H115.939V41.5942H111.3V43.2614ZM106.661 43.2614H111.3V41.5942H106.661V43.2614ZM74.2 43.2614H78.8391V41.5942H74.2V43.2614ZM55.65 43.2614H60.2891V41.5942H55.65V43.2614ZM51.0109 43.2614H55.65V41.5942H51.0109V43.2614ZM41.7391 43.2614H46.3783V41.5942H41.7391V43.2614ZM13.9109 43.2614H18.55V41.5942H13.9109V43.2614ZM9.2783 43.2614H13.9174V41.5942H9.2783V43.2614ZM347.811 41.5942H352.45V39.9336H347.811V41.5942ZM343.172 41.5942H347.811V39.9336H343.172V41.5942ZM338.539 41.5942H343.178V39.9336H338.539V41.5942ZM329.261 41.5942H333.9V39.9336H329.261V41.5942ZM324.622 41.5942H329.261V39.9336H324.622V41.5942ZM319.989 41.5942H324.628V39.9336H319.989V41.5942ZM296.8 41.5942H301.439V39.9336H296.8V41.5942ZM287.522 41.5942H292.161V39.9336H287.522V41.5942ZM282.889 41.5942H287.528V39.9336H282.889V41.5942ZM278.25 41.5942H282.889V39.9336H278.25V41.5942ZM259.7 41.5942H264.339V39.9336H259.7V41.5942ZM255.061 41.5942H259.7V39.9336H255.061V41.5942ZM250.422 41.5942H255.061V39.9336H250.422V41.5942ZM231.872 41.5942H236.511V39.9336H231.872V41.5942ZM227.239 41.5942H231.878V39.9336H227.239V41.5942ZM222.6 41.5942H227.239V39.9336H222.6V41.5942ZM217.961 41.5942H222.6V39.9336H217.961V41.5942ZM208.689 41.5942H213.328V39.9336H208.689V41.5942ZM204.05 41.5942H208.689V39.9336H204.05V41.5942ZM180.861 41.5942H185.5V39.9336H180.861V41.5942ZM176.222 41.5942H180.861V39.9336H176.222V41.5942ZM171.589 41.5942H176.228V39.9336H171.589V41.5942ZM153.039 41.5942H157.678V39.9336H153.039V41.5942ZM148.4 41.5942H153.039V39.9336H148.4V41.5942ZM129.85 41.5942H134.489V39.9336H129.85V41.5942ZM125.211 41.5942H129.85V39.9336H125.211V41.5942ZM115.939 41.5942H120.578V39.9336H115.939V41.5942ZM111.3 41.5942H115.939V39.9336H111.3V41.5942ZM74.2 41.5942H78.8391V39.9336H74.2V41.5942ZM55.65 41.5942H60.2891V39.9336H55.65V41.5942ZM51.0109 41.5942H55.65V39.9336H51.0109V41.5942ZM41.7391 41.5942H46.3783V39.9336H41.7391V41.5942ZM13.9109 41.5942H18.55V39.9336H13.9109V41.5942ZM9.2783 41.5942H13.9174V39.9336H9.2783V41.5942ZM347.811 39.9336H352.45V38.273H347.811V39.9336ZM343.172 39.9336H347.811V38.273H343.172V39.9336ZM338.539 39.9336H343.178V38.273H338.539V39.9336ZM329.261 39.9336H333.9V38.273H329.261V39.9336ZM324.622 39.9336H329.261V38.273H324.622V39.9336ZM296.8 39.9336H301.439V38.273H296.8V39.9336ZM292.161 39.9336H296.8V38.273H292.161V39.9336ZM287.522 39.9336H292.161V38.273H287.522V39.9336ZM282.889 39.9336H287.528V38.273H282.889V39.9336ZM259.7 39.9336H264.339V38.273H259.7V39.9336ZM255.061 39.9336H259.7V38.273H255.061V39.9336ZM231.872 39.9336H236.511V38.273H231.872V39.9336ZM217.961 39.9336H222.6V38.273H217.961V39.9336ZM213.322 39.9336H217.961V38.273H213.322V39.9336ZM208.689 39.9336H213.328V38.273H208.689V39.9336ZM204.05 39.9336H208.689V38.273H204.05V39.9336ZM180.861 39.9336H185.5V38.273H180.861V39.9336ZM153.039 39.9336H157.678V38.273H153.039V39.9336ZM148.4 39.9336H153.039V38.273H148.4V39.9336ZM125.211 39.9336H129.85V38.273H125.211V39.9336ZM120.572 39.9336H125.211V38.273H120.572V39.9336ZM115.939 39.9336H120.578V38.273H115.939V39.9336ZM69.5609 39.9336H74.2V38.273H69.5609V39.9336ZM60.2891 39.9336H64.9283V38.273H60.2891V39.9336ZM55.65 39.9336H60.2891V38.273H55.65V39.9336ZM51.0109 39.9336H55.65V38.273H51.0109V39.9336ZM41.7391 39.9336H46.3783V38.273H41.7391V39.9336ZM13.9109 39.9336H18.55V38.273H13.9109V39.9336ZM9.2783 39.9336H13.9174V38.273H9.2783V39.9336ZM347.811 38.2664H352.45V36.5992H347.811V38.2664ZM343.172 38.2664H347.811V36.5992H343.172V38.2664ZM292.161 38.2664H296.8V36.5992H292.161V38.2664ZM287.522 38.2664H292.161V36.5992H287.522V38.2664ZM213.322 38.2664H217.961V36.5992H213.322V38.2664ZM208.689 38.2664H213.328V36.5992H208.689V38.2664ZM157.672 38.2664H162.311V36.5992H157.672V38.2664ZM153.039 38.2664H157.678V36.5992H153.039V38.2664ZM148.4 38.2664H153.039V36.5992H148.4V38.2664ZM125.211 38.2664H129.85V36.5992H125.211V38.2664ZM120.572 38.2664H125.211V36.5992H120.572V38.2664ZM74.2 38.2664H78.8391V36.5992H74.2V38.2664ZM69.5609 38.2664H74.2V36.5992H69.5609V38.2664ZM64.9217 38.2664H69.5609V36.5992H64.9217V38.2664ZM60.2891 38.2664H64.9283V36.5992H60.2891V38.2664ZM55.65 38.2664H60.2891V36.5992H55.65V38.2664ZM51.0109 38.2664H55.65V36.5992H51.0109V38.2664ZM13.9109 38.2664H18.55V36.5992H13.9109V38.2664ZM9.2783 38.2664H13.9174V36.5992H9.2783V38.2664ZM157.672 36.6058H162.311V34.9452H157.672V36.6058ZM153.039 36.6058H157.678V34.9452H153.039V36.6058ZM148.4 36.6058H153.039V34.9452H148.4V36.6058ZM78.8391 36.6058H83.4783V34.9452H78.8391V36.6058ZM74.2 36.6058H78.8391V34.9452H74.2V36.6058ZM69.5609 36.6058H74.2V34.9452H69.5609V36.6058ZM60.2891 36.6058H64.9283V34.9452H60.2891V36.6058ZM55.65 36.6058H60.2891V34.9452H55.65V36.6058ZM51.0109 36.6058H55.65V34.9452H51.0109V36.6058ZM13.9109 36.6058H18.55V34.9452H13.9109V36.6058ZM9.2783 36.6058H13.9174V34.9452H9.2783V36.6058ZM157.672 34.9386H162.311V33.2714H157.672V34.9386ZM153.039 34.9386H157.678V33.2714H153.039V34.9386ZM148.4 34.9386H153.039V33.2714H148.4V34.9386ZM88.1109 34.9386H92.75V33.2714H88.1109V34.9386ZM83.4717 34.9386H88.1109V33.2714H83.4717V34.9386ZM78.8391 34.9386H83.4783V33.2714H78.8391V34.9386ZM60.2891 34.9386H64.9283V33.2714H60.2891V34.9386ZM55.65 34.9386H60.2891V33.2714H55.65V34.9386ZM13.9109 34.9386H18.55V33.2714H13.9109V34.9386ZM9.2783 34.9386H13.9174V33.2714H9.2783V34.9386ZM157.672 33.278H162.311V31.6174H157.672V33.278ZM153.039 33.278H157.678V31.6174H153.039V33.278ZM88.1109 33.278H92.75V31.6174H88.1109V33.278ZM83.4717 33.278H88.1109V31.6174H83.4717V33.278ZM78.8391 33.278H83.4783V31.6174H78.8391V33.278ZM60.2891 33.278H64.9283V31.6174H60.2891V33.278ZM55.65 33.278H60.2891V31.6174H55.65V33.278ZM46.3783 33.278H51.0174V31.6174H46.3783V33.278ZM13.9109 33.278H18.55V31.6174H13.9109V33.278ZM9.2783 33.278H13.9174V31.6174H9.2783V33.278ZM157.672 31.6108H162.311V29.9502H157.672V31.6108ZM153.039 31.6108H157.678V29.9502H153.039V31.6108ZM88.1109 31.6108H92.75V29.9502H88.1109V31.6108ZM83.4717 31.6108H88.1109V29.9502H83.4717V31.6108ZM60.2891 31.6108H64.9283V29.9502H60.2891V31.6108ZM55.65 31.6108H60.2891V29.9502H55.65V31.6108ZM46.3783 31.6108H51.0174V29.9502H46.3783V31.6108ZM13.9109 31.6108H18.55V29.9502H13.9109V31.6108ZM9.2783 31.6108H13.9174V29.9502H9.2783V31.6108ZM162.311 29.9502H166.95V28.283H162.311V29.9502ZM157.672 29.9502H162.311V28.283H157.672V29.9502ZM153.039 29.9502H157.678V28.283H153.039V29.9502ZM92.75 29.9502H97.3891V28.283H92.75V29.9502ZM88.1109 29.9502H92.75V28.283H88.1109V29.9502ZM83.4717 29.9502H88.1109V28.283H83.4717V29.9502ZM64.9217 29.9502H69.5609V28.283H64.9217V29.9502ZM60.2891 29.9502H64.9283V28.283H60.2891V29.9502ZM55.65 29.9502H60.2891V28.283H55.65V29.9502ZM46.3783 29.9502H51.0174V28.283H46.3783V29.9502ZM13.9109 29.9502H18.55V28.283H13.9109V29.9502ZM9.2783 29.9502H13.9174V28.283H9.2783V29.9502ZM264.339 28.283H268.978V26.6224H264.339V28.283ZM190.139 28.283H194.778V26.6224H190.139V28.283ZM185.5 28.283H190.139V26.6224H185.5V28.283ZM162.311 28.283H166.95V26.6224H162.311V28.283ZM157.672 28.283H162.311V26.6224H157.672V28.283ZM153.039 28.283H157.678V26.6224H153.039V28.283ZM92.75 28.283H97.3891V26.6224H92.75V28.283ZM88.1109 28.283H92.75V26.6224H88.1109V28.283ZM64.9217 28.283H69.5609V26.6224H64.9217V28.283ZM60.2891 28.283H64.9283V26.6224H60.2891V28.283ZM46.3783 28.283H51.0174V26.6224H46.3783V28.283ZM13.9109 28.283H18.55V26.6224H13.9109V28.283ZM9.2783 28.283H13.9174V26.6224H9.2783V28.283ZM264.339 26.6224H268.978V24.9552H264.339V26.6224ZM190.139 26.6224H194.778V24.9552H190.139V26.6224ZM185.5 26.6224H190.139V24.9552H185.5V26.6224ZM162.311 26.6224H166.95V24.9552H162.311V26.6224ZM157.672 26.6224H162.311V24.9552H157.672V26.6224ZM92.75 26.6224H97.3891V24.9552H92.75V26.6224ZM88.1109 26.6224H92.75V24.9552H88.1109V26.6224ZM64.9217 26.6224H69.5609V24.9552H64.9217V26.6224ZM60.2891 26.6224H64.9283V24.9552H60.2891V26.6224ZM46.3783 26.6224H51.0174V24.9552H46.3783V26.6224ZM13.9109 26.6224H18.55V24.9552H13.9109V26.6224ZM9.2783 26.6224H13.9174V24.9552H9.2783V26.6224ZM268.972 24.9552H273.611V23.2946H268.972V24.9552ZM264.339 24.9552H268.978V23.2946H264.339V24.9552ZM259.7 24.9552H264.339V23.2946H259.7V24.9552ZM190.139 24.9552H194.778V23.2946H190.139V24.9552ZM185.5 24.9552H190.139V23.2946H185.5V24.9552ZM166.95 24.9552H171.589V23.2946H166.95V24.9552ZM162.311 24.9552H166.95V23.2946H162.311V24.9552ZM157.672 24.9552H162.311V23.2946H157.672V24.9552ZM92.75 24.9552H97.3891V23.2946H92.75V24.9552ZM88.1109 24.9552H92.75V23.2946H88.1109V24.9552ZM69.5609 24.9552H74.2V23.2946H69.5609V24.9552ZM64.9217 24.9552H69.5609V23.2946H64.9217V24.9552ZM60.2891 24.9552H64.9283V23.2946H60.2891V24.9552ZM46.3783 24.9552H51.0174V23.2946H46.3783V24.9552ZM18.55 24.9552H23.1891V23.2946H18.55V24.9552ZM13.9109 24.9552H18.55V23.2946H13.9109V24.9552ZM268.972 23.2946H273.611V21.634H268.972V23.2946ZM264.339 23.2946H268.978V21.634H264.339V23.2946ZM259.7 23.2946H264.339V21.634H259.7V23.2946ZM190.139 23.2946H194.778V21.634H190.139V23.2946ZM185.5 23.2946H190.139V21.634H185.5V23.2946ZM166.95 23.2946H171.589V21.634H166.95V23.2946ZM162.311 23.2946H166.95V21.634H162.311V23.2946ZM157.672 23.2946H162.311V21.634H157.672V23.2946ZM92.75 23.2946H97.3891V21.634H92.75V23.2946ZM88.1109 23.2946H92.75V21.634H88.1109V23.2946ZM69.5609 23.2946H74.2V21.634H69.5609V23.2946ZM64.9217 23.2946H69.5609V21.634H64.9217V23.2946ZM60.2891 23.2946H64.9283V21.634H60.2891V23.2946ZM46.3783 23.2946H51.0174V21.634H46.3783V23.2946ZM18.55 23.2946H23.1891V21.634H18.55V23.2946ZM13.9109 23.2946H18.55V21.634H13.9109V23.2946ZM268.972 21.6274H273.611V19.9602H268.972V21.6274ZM264.339 21.6274H268.978V19.9602H264.339V21.6274ZM259.7 21.6274H264.339V19.9602H259.7V21.6274ZM190.139 21.6274H194.778V19.9602H190.139V21.6274ZM185.5 21.6274H190.139V19.9602H185.5V21.6274ZM166.95 21.6274H171.589V19.9602H166.95V21.6274ZM162.311 21.6274H166.95V19.9602H162.311V21.6274ZM157.672 21.6274H162.311V19.9602H157.672V21.6274ZM92.75 21.6274H97.3891V19.9602H92.75V21.6274ZM88.1109 21.6274H92.75V19.9602H88.1109V21.6274ZM69.5609 21.6274H74.2V19.9602H69.5609V21.6274ZM64.9217 21.6274H69.5609V19.9602H64.9217V21.6274ZM46.3783 21.6274H51.0174V19.9602H46.3783V21.6274ZM18.55 21.6274H23.1891V19.9602H18.55V21.6274ZM13.9109 21.6274H18.55V19.9602H13.9109V21.6274ZM268.972 19.9668H273.611V18.3062H268.972V19.9668ZM264.339 19.9668H268.978V18.3062H264.339V19.9668ZM190.139 19.9668H194.778V18.3062H190.139V19.9668ZM185.5 19.9668H190.139V18.3062H185.5V19.9668ZM166.95 19.9668H171.589V18.3062H166.95V19.9668ZM162.311 19.9668H166.95V18.3062H162.311V19.9668ZM157.672 19.9668H162.311V18.3062H157.672V19.9668ZM92.75 19.9668H97.3891V18.3062H92.75V19.9668ZM88.1109 19.9668H92.75V18.3062H88.1109V19.9668ZM69.5609 19.9668H74.2V18.3062H69.5609V19.9668ZM64.9217 19.9668H69.5609V18.3062H64.9217V19.9668ZM18.55 19.9668H23.1891V18.3062H18.55V19.9668ZM13.9109 19.9668H18.55V18.3062H13.9109V19.9668ZM264.339 18.2996H268.978V16.639H264.339V18.2996ZM190.139 18.2996H194.778V16.639H190.139V18.2996ZM185.5 18.2996H190.139V16.639H185.5V18.2996ZM166.95 18.2996H171.589V16.639H166.95V18.2996ZM162.311 18.2996H166.95V16.639H162.311V18.2996ZM92.75 18.2996H97.3891V16.639H92.75V18.2996ZM88.1109 18.2996H92.75V16.639H88.1109V18.2996ZM74.2 18.2996H78.8391V16.639H74.2V18.2996ZM69.5609 18.2996H74.2V16.639H69.5609V18.2996ZM64.9217 18.2996H69.5609V16.639H64.9217V18.2996ZM23.1891 18.2996H27.8283V16.639H23.1891V18.2996ZM18.55 18.2996H23.1891V16.639H18.55V18.2996ZM171.589 16.639H176.228V14.9718H171.589V16.639ZM166.95 16.639H171.589V14.9718H166.95V16.639ZM162.311 16.639H166.95V14.9718H162.311V16.639ZM92.75 16.639H97.3891V14.9718H92.75V16.639ZM88.1109 16.639H92.75V14.9718H88.1109V16.639ZM74.2 16.639H78.8391V14.9718H74.2V16.639ZM69.5609 16.639H74.2V14.9718H69.5609V16.639ZM64.9217 16.639H69.5609V14.9718H64.9217V16.639ZM23.1891 16.639H27.8283V14.9718H23.1891V16.639ZM18.55 16.639H23.1891V14.9718H18.55V16.639ZM171.589 14.9718H176.228V13.3112H171.589V14.9718ZM166.95 14.9718H171.589V13.3112H166.95V14.9718ZM162.311 14.9718H166.95V13.3112H162.311V14.9718ZM92.75 14.9718H97.3891V13.3112H92.75V14.9718ZM88.1109 14.9718H92.75V13.3112H88.1109V14.9718ZM74.2 14.9718H78.8391V13.3112H74.2V14.9718ZM69.5609 14.9718H74.2V13.3112H69.5609V14.9718ZM27.8283 14.9718H32.4674V13.3112H27.8283V14.9718ZM23.1891 14.9718H27.8283V13.3112H23.1891V14.9718ZM18.55 14.9718H23.1891V13.3112H18.55V14.9718ZM171.589 13.3112H176.228V11.6506H171.589V13.3112ZM166.95 13.3112H171.589V11.6506H166.95V13.3112ZM162.311 13.3112H166.95V11.6506H162.311V13.3112ZM92.75 13.3112H97.3891V11.6506H92.75V13.3112ZM88.1109 13.3112H92.75V11.6506H88.1109V13.3112ZM74.2 13.3112H78.8391V11.6506H74.2V13.3112ZM69.5609 13.3112H74.2V11.6506H69.5609V13.3112ZM27.8283 13.3112H32.4674V11.6506H27.8283V13.3112ZM23.1891 13.3112H27.8283V11.6506H23.1891V13.3112ZM171.589 11.6506H176.228V9.98339H171.589V11.6506ZM166.95 11.6506H171.589V9.98339H166.95V11.6506ZM162.311 11.6506H166.95V9.98339H162.311V11.6506ZM92.75 11.6506H97.3891V9.98339H92.75V11.6506ZM88.1109 11.6506H92.75V9.98339H88.1109V11.6506ZM78.8391 11.6506H83.4783V9.98339H78.8391V11.6506ZM74.2 11.6506H78.8391V9.98339H74.2V11.6506ZM32.4609 11.6506H37.1V9.98339H32.4609V11.6506ZM27.8283 11.6506H32.4674V9.98339H27.8283V11.6506ZM23.1891 11.6506H27.8283V9.98339H23.1891V11.6506ZM176.222 9.98339H180.861V8.32279H176.222V9.98339ZM171.589 9.98339H176.228V8.32279H171.589V9.98339ZM166.95 9.98339H171.589V8.32279H166.95V9.98339ZM88.1109 9.98339H92.75V8.32279H88.1109V9.98339ZM78.8391 9.98339H83.4783V8.32279H78.8391V9.98339ZM74.2 9.98339H78.8391V8.32279H74.2V9.98339ZM32.4609 9.98339H37.1V8.32279H32.4609V9.98339ZM27.8283 9.98339H32.4674V8.32279H27.8283V9.98339ZM176.222 8.3162H180.861V6.64901H176.222V8.3162ZM171.589 8.3162H176.228V6.64901H171.589V8.3162ZM166.95 8.3162H171.589V6.64901H166.95V8.3162ZM88.1109 8.3162H92.75V6.64901H88.1109V8.3162ZM83.4717 8.3162H88.1109V6.64901H83.4717V8.3162ZM78.8391 8.3162H83.4783V6.64901H78.8391V8.3162ZM37.1 8.3162H41.7391V6.64901H37.1V8.3162ZM32.4609 8.3162H37.1V6.64901H32.4609V8.3162ZM176.222 6.6556H180.861V4.99499H176.222V6.6556ZM171.589 6.6556H176.228V4.99499H171.589V6.6556ZM166.95 6.6556H171.589V4.99499H166.95V6.6556ZM88.1109 6.6556H92.75V4.99499H88.1109V6.6556ZM83.4717 6.6556H88.1109V4.99499H83.4717V6.6556ZM78.8391 6.6556H83.4783V4.99499H78.8391V6.6556ZM41.7391 6.6556H46.3783V4.99499H41.7391V6.6556ZM37.1 6.6556H41.7391V4.99499H37.1V6.6556ZM176.222 4.9884H180.861V3.3278H176.222V4.9884ZM171.589 4.9884H176.228V3.3278H171.589V4.9884ZM88.1109 4.9884H92.75V3.3278H88.1109V4.9884ZM83.4717 4.9884H88.1109V3.3278H83.4717V4.9884ZM78.8391 4.9884H83.4783V3.3278H78.8391V4.9884ZM46.3783 4.9884H51.0174V3.3278H46.3783V4.9884ZM41.7391 4.9884H46.3783V3.3278H41.7391V4.9884ZM37.1 4.9884H41.7391V3.3278H37.1V4.9884ZM92.75 3.3278H97.3891V1.6606H92.75V3.3278ZM88.1109 3.3278H92.75V1.6606H88.1109V3.3278ZM83.4717 3.3278H88.1109V1.6606H83.4717V3.3278ZM78.8391 3.3278H83.4783V1.6606H78.8391V3.3278ZM74.2 3.3278H78.8391V1.6606H74.2V3.3278ZM69.5609 3.3278H74.2V1.6606H69.5609V3.3278ZM51.0109 3.3278H55.65V1.6606H51.0109V3.3278ZM46.3783 3.3278H51.0174V1.6606H46.3783V3.3278ZM41.7391 3.3278H46.3783V1.6606H41.7391V3.3278ZM69.5609 1.6606H74.2V0H69.5609V1.6606ZM64.9217 1.6606H69.5609V0H64.9217V1.6606ZM60.2891 1.6606H64.9283V0H60.2891V1.6606ZM55.65 1.6606H60.2891V0H55.65V1.6606Z" fill="var(--fill-0, #0000FF)"/>
</svg>
