<svg preserveAspectRatio="none" width="100%" height="100%" overflow="visible" style="display: block;" viewBox="0 0 134 171.66" fill="none" xmlns="http://www.w3.org/2000/svg">
<path id="wink / send" d="M81.8889 160.931H89.3333V171.66H81.8889V160.931ZM96.7778 160.931H104.222V150.203H96.7778V160.931ZM89.3333 160.931H96.7778V150.203H89.3333V160.931ZM7.44444 160.931H14.8889V150.203H7.44444V160.931ZM104.222 150.203H111.667V139.474H104.222V150.203ZM14.8889 150.203H22.3333V139.474H14.8889V150.203ZM7.44444 150.203H14.8889V139.474H7.44444V150.203ZM111.667 139.474H119.111V128.745H111.667V139.474ZM14.8889 139.474H22.3333V128.745H14.8889V139.474ZM7.44444 139.474H14.8889V128.745H7.44444V139.474ZM0 139.474H7.44444V128.745H0V139.474ZM119.111 128.745H126.556V118.016H119.111V128.745ZM111.667 128.745H119.111V118.016H111.667V128.745ZM7.44444 128.745H14.8889V118.016H7.44444V128.745ZM119.111 118.016H126.556V107.288H119.111V118.016ZM126.556 107.288H134V96.5588H126.556V107.288ZM119.111 107.288H126.556V96.5588H119.111V107.288ZM74.4444 107.288H85.6111V96.5588H74.4444V107.288ZM67 107.288H74.4444V96.5588H67V107.288ZM59.5556 107.288H67V96.5588H59.5556V107.288ZM52.1111 107.288H59.5556V96.5588H52.1111V107.288ZM44.6667 107.288H52.1111V96.5588H44.6667V107.288ZM126.556 96.5588H134V85.8301H126.556V96.5588ZM119.111 96.5588H126.556V85.8301H119.111V96.5588ZM126.556 85.8301H134V75.1013H126.556V85.8301ZM119.111 85.8301H126.556V75.1013H119.111V85.8301ZM14.8889 85.8301H22.3333V75.1013H14.8889V85.8301ZM7.44444 85.8301H14.8889V75.1013H7.44444V85.8301ZM126.556 75.1013H134V64.3725H126.556V75.1013ZM119.111 75.1013H126.556V64.3725H119.111V75.1013ZM14.8889 75.1013H22.3333V32.1863H14.8889V75.1013ZM126.556 64.3725H134V53.6438H126.556V64.3725ZM119.111 64.3725H126.556V53.6438H119.111V64.3725ZM119.111 53.6438H126.556V42.915H119.111V53.6438ZM111.667 53.6438H119.111V42.915H111.667V53.6438ZM119.111 42.915H126.556V32.1863H119.111V42.915ZM111.667 42.915H119.111V32.1863H111.667V42.915ZM111.667 32.1863H119.111V21.4575H111.667V32.1863ZM104.222 32.1863H111.667V21.4575H104.222V32.1863ZM104.222 21.4575H111.667V10.7288H104.222V21.4575ZM96.7778 21.4575H104.222V10.7288H96.7778V21.4575ZM96.7778 10.7288H104.222V0H96.7778V10.7288Z" fill="var(--fill-0, #0000FF)"/>
</svg>
